<?xml version="1.0" standalone="no"?>
<!DOCTYPE svg PUBLIC "-//W3C//DTD SVG 20010904//EN"
 "http://www.w3.org/TR/2001/REC-SVG-20010904/DTD/svg10.dtd">
<svg version="1.0" xmlns="http://www.w3.org/2000/svg"
 width="40pt" height="40pt" viewBox="0 0 40 40"
 preserveAspectRatio="xMidYMid meet">

<g transform="translate(0.000000,40.000000) scale(0.100000,-0.100000)"
fill="#000000" stroke="none">
<path d="M3445 4835 c-330 -58 -605 -210 -832 -459 l-53 -58 0 -2026 0 -2027
1086 1085 c597 597 1116 1122 1153 1168 219 269 338 633 317 974 -39 658 -493
1190 -1136 1333 -104 23 -426 29 -535 10z m-90 -1230 c166 -43 309 -197 346
-372 23 -114 -5 -256 -71 -354 l-28 -43 51 -56 c63 -67 113 -165 132 -257 41
-193 -13 -371 -155 -513 -120 -121 -236 -170 -400 -170 -47 0 -112 7 -143 15
-184 48 -336 190 -399 374 -33 94 -32 258 0 353 26 76 83 169 134 219 l34 34
-32 50 c-93 146 -98 343 -13 492 61 107 176 196 290 227 72 19 181 20 254 1z"/>
<path d="M3165 3286 c-93 -40 -122 -160 -60 -242 71 -93 219 -75 267 33 59
133 -74 267 -207 209z"/>
<path d="M3141 2636 c-48 -17 -108 -71 -133 -119 -31 -59 -31 -165 -1 -223 64
-122 211 -168 334 -106 180 91 180 343 0 435 -60 30 -139 35 -200 13z"/>
</g>
</svg>
