<?xml version="1.0" encoding="utf-8"?>
<svg viewBox="0 0 272 292" style="shape-rendering: geometricprecision;" xmlns="http://www.w3.org/2000/svg" xmlns:xlink="http://www.w3.org/1999/xlink" xmlns:bx="https://boxy-svg.com">
  <defs>
    <style bx:fonts="Swis721 Blk BT">@font-face { font-family: "Swis721 Blk BT"; font-variant: normal; font-style: normal; font-weight: normal; }</style>
    <clipPath id="id0">
      <path d="M14863.8 1436.9c5110.77,0 9253.87,4143.1 9253.87,9253.87 0,5110.77 -4143.1,9253.87 -9253.87,9253.87 -5110.77,0 -9253.87,-4143.1 -9253.87,-9253.87 0,-5110.77 4143.1,-9253.87 9253.87,-9253.87z"/>
    </clipPath>
    <linearGradient id="id1" gradientUnits="userSpaceOnUse" x1="17044.02" y1="14992.48" x2="17044.02" y2="8585.91">
      <stop offset="0" style="stop-opacity:1; stop-color:#5766E6"/>
      <stop offset="0.9882" style="stop-opacity:1; stop-color:#440CE4"/>
      <stop offset="1" style="stop-opacity:1; stop-color:#440CE4"/>
    </linearGradient>
    <linearGradient id="id2" gradientUnits="userSpaceOnUse" x1="17002.23" y1="14992.44" x2="17002.23" y2="8585.96" xlink:href="#id1"/>
    <linearGradient id="id3" gradientUnits="userSpaceOnUse" x1="14158.1" y1="14992.48" x2="14158.1" y2="8585.92" xlink:href="#id1"/>
    <linearGradient id="id4" gradientUnits="userSpaceOnUse" x1="19929.16" y1="3464.19" x2="8194.43" y2="17274.47">
      <stop offset="0" style="stop-opacity:1; stop-color:#4D57E4"/>
      <stop offset="0.9882" style="stop-opacity:1; stop-color:#9CFDC8"/>
      <stop offset="1" style="stop-opacity:1; stop-color:#9CFDC8"/>
    </linearGradient>
    <linearGradient id="id5" gradientUnits="userSpaceOnUse" x1="20589.62" y1="1302.1" x2="8074.1" y2="16031.24" xlink:href="#id4"/>
  </defs>
  <g id="Layer_x0020_1" transform="matrix(0.026576, 0, 0, 0.026576, -5570.07666, -1360.004761)" style="transform-origin: 5457.07px 1284.1px;">
    <g style=""/>
    <g style="clip-path:url(#id0)">
      <g style="">
        <g id="_2489352454080">
          <polygon class="fil0" points="24270.62,20097.59 5456.98,20097.59 5456.98,1283.95 24270.62,1283.95 " style="fill: rgb(19, 15, 68); fill-rule: nonzero; visibility: hidden;"/>
          <g style="">
            <path class="fil1" d="M17853.28 15122.35c0,0 -566.66,59.76 -798.27,-329.15 -25.08,-42.42 -46.44,-90.42 -62.54,-144.3 -163.49,-546.52 -265.86,-924.49 -567.15,-1268.82l-190.55 -811.99c43.35,-26.63 86.7,-53.26 129.12,-79.57 270.63,-168.14 573.46,-412.45 829.53,-759.57 0,0 324.2,2141.19 659.86,3393.4z" style="fill: url('#id1'); fill-rule: nonzero;"/>
            <path class="fil2" d="M12463.62 15121.42c-8.05,0.61 -16.41,0.93 -24.77,0.93 -26.95,0 -663.57,-4.34 -1311.65,-309.96 -620.84,-292.92 -1367.4,-917.78 -1396.5,-2230.99 -27.25,-1219.68 514.63,-1903.68 974.14,-2262.56 496.67,-388.3 1005.1,-483.65 1026.46,-487.69 176.81,-32.2 345.88,85.46 378.09,261.97 31.89,176.18 -84.84,344.94 -260.73,377.76 -65.95,12.69 -1507.65,312.75 -1468.02,2096.28 28.49,1268.3 928,1692.52 1529.64,1834.02 245.55,436.6 535.38,703.83 553.34,720.24z" style="fill: url('#id5'); fill-rule: nonzero;"/>
            <path class="fil3" d="M17492.39 11221.76c-87.01,189.47 -188.32,358.06 -298.9,507.33 -255.98,346.84 -559.13,591.21 -829.42,759.42 -42.54,26.29 -85.84,52.97 -129.15,79.66 -507.7,309.72 -1072.24,649.99 -1406.71,1364.95 225.81,-700.65 516.2,-2115.1 -564.55,-2684.28 -1421.78,-748.6 -2378.03,755.94 -2430.62,841.39 734.29,-1503.76 2129.42,-1864.52 2688.92,-2536.95 27.84,-33.65 53.74,-66.51 77.33,-98.6 463.24,-631.06 112.53,-992.99 -128.76,-1549.4 -254.05,-585.43 -43.3,-981.77 -43.3,-981.77 0,0 -391.7,-721.15 -25.91,-1532.38 0,0 462.84,161.63 663.14,520.85 0,0 527.04,-329.07 658.12,-318.24 131.47,10.44 441.19,288.07 624.09,258.3 106.72,-17.79 271.06,-106.72 390.16,-177.87 100.15,-59.93 229.29,-34.42 300.05,58.39 160.86,210.73 366.96,609.4 261.01,1001.48 -150.41,557.59 -641.11,804.66 -641.11,804.66 0,0 198.75,128.39 429.22,389.77 102.46,115.62 210.73,257.92 310.88,426.13 -237.03,502.67 -467.49,1006.11 -467.49,1006.11 -689.05,-401.36 -1540.9,-392.47 -1882.33,190.25 -26.68,46.01 -50.66,95.51 -70.76,148.49 -277.24,727.32 369.27,1434.54 1235.43,1440.73 684.4,4.25 1125.22,59.16 1280.66,81.58z" style="fill: url('#id4'); fill-rule: nonzero;"/>
            <path class="fil4" d="M16725.55 15122.35l-4261 0c0,0 -0.31,-0.32 -0.93,-0.93 -17.96,-16.41 -307.79,-283.64 -553.34,-720.24 -296.02,-526.07 -527.63,-1297.4 -142.74,-2170.91 20.43,-46.45 41.5,-91.96 63.17,-136.24 0.3,-0.31 0.3,-0.94 0.61,-1.24 30.04,-49.24 992.42,-1602.09 2432.25,-843.78 1080.97,569.12 790.52,1983.58 564.79,2683.99 -57.6,122.94 -108.38,257.01 -150.48,403.78 -0.62,1.54 -0.93,2.47 -0.93,2.47 219.53,365.7 1196.46,133.46 1704.28,240.91 193.21,40.87 289.21,129.12 334.1,222.94 73.08,152.35 10.22,319.25 10.22,319.25z" style="fill: url('#id3'); fill-rule: nonzero;"/>
            <path class="fil5" d="M18840.11 7662.41c-513.39,450.53 -614.02,811.88 -653.96,1187.79 -40.26,375.91 -361.68,2143.35 -631.37,2381.46 0,0 -21.05,-3.7 -62.55,-9.9 -155.13,-22.61 -596.06,-77.41 -1280.38,-81.75 -866.39,-5.88 -1512.61,-713.09 -1235.48,-1440.45 277.13,-727.35 1209.79,-771.94 1952.93,-338.76 0,0 230.68,-503.47 467.56,-1006.03 208.7,-443.1 421.74,-884.96 484.9,-979.4 135.01,-200.97 1044.44,-654.28 1044.44,-654.28 0,0 427.61,490.78 -86.09,941.32z" style="fill: url('#id2'); fill-rule: nonzero;"/>
            <path class="fil6" d="M 19236.006 5125.125 L 19098.236 5162.255 C 18849.896 5229.165 18655.716 5423.065 18588.806 5671.395 L 18551.956 5809.175 L 18514.826 5671.395 C 18447.906 5423.065 18253.726 5229.165 18005.396 5162.255 L 17867.636 5125.125 L 18005.396 5087.985 C 18253.726 5021.085 18447.906 4827.185 18514.826 4578.855 L 18551.956 4441.075 L 18588.806 4578.855 C 18655.716 4827.185 18849.896 5021.085 19098.236 5087.985 L 19236.006 5125.125 Z" style="fill: rgb(175, 242, 239); fill-rule: nonzero;"/>
            <path class="fil7" d="M17085.98 7928.4c-1279.76,712.48 -2038.39,-284.26 -2055.73,-307.49 516.48,464.16 1626.56,-82.05 1626.56,-82.05 0,0 198.79,128.19 429.17,389.54z" style="fill: rgb(14, 5, 68); fill-opacity: 0.701961; fill-rule: nonzero;"/>
            <path class="fil6" d="M18222.26 5101.54l-73.48 19.81c-132.46,35.69 -236.04,139.11 -271.72,271.56l-19.66 73.5 -19.81 -73.5c-35.69,-132.45 -139.27,-235.87 -271.72,-271.56l-73.48 -19.81 73.48 -19.8c132.45,-35.69 236.03,-139.12 271.72,-271.58l19.81 -73.48 19.66 73.48c35.68,132.46 139.26,235.89 271.72,271.58l73.48 19.8z" style="fill: rgb(175, 242, 239); fill-rule: nonzero; visibility: hidden;"/>
            <path class="fil6" d="M19941.46 4579.2l-73.48 19.81c-132.47,35.69 -236.04,139.12 -271.73,271.58l-19.66 73.48 -19.8 -73.48c-35.69,-132.46 -139.27,-235.89 -271.72,-271.58l-73.49 -19.81 73.49 -19.8c132.45,-35.69 236.03,-139.12 271.72,-271.58l19.8 -73.48 19.66 73.48c35.69,132.46 139.26,235.89 271.73,271.58l73.48 19.8z" style="fill: rgb(175, 242, 239); fill-rule: nonzero; visibility: hidden;"/>
          </g>
          <text x="10005" y="16902.5" class="fil8 fnt0" style="white-space: pre; fill: rgb(142, 224, 205); font-family: 'Swis721 Blk BT'; font-size: 1137.98px; font-weight: 400; line-height: 1820.77px; perspective-origin: 9317.98px 8574.25px; visibility: hidden;">MAGIA SAPUNA</text>
          <path class="fil9" d="M13340.17 15692.05l-56.47 15.2c-101.71,27.41 -181.27,106.86 -208.68,208.58l-15.09 56.46 -15.24 -56.46c-27.38,-101.72 -106.95,-181.17 -208.69,-208.58l-56.43 -15.2 56.43 -15.2c101.74,-27.42 181.31,-106.86 208.69,-208.58l15.24 -56.46 15.09 56.46c27.41,101.72 106.97,181.16 208.68,208.58l56.47 15.2z" style="fill: rgb(143, 226, 204); fill-rule: nonzero; visibility: hidden;"/>
        </g>
      </g>
    </g>
    <path class="fil10 str0" d="M14863.8 1436.9c5110.77,0 9253.87,4143.1 9253.87,9253.87 0,5110.77 -4143.1,9253.87 -9253.87,9253.87 -5110.77,0 -9253.87,-4143.1 -9253.87,-9253.87 0,-5110.77 4143.1,-9253.87 9253.87,-9253.87z" style="fill: none; stroke: rgb(254, 254, 254); stroke-miterlimit: 22.9256; stroke-width: 20px; visibility: hidden;"/>
  </g>
</svg>