<svg xmlns="http://www.w3.org/2000/svg" viewBox="0 0 800 800" xml:space="preserve"><path style="stroke:#1c274c;stroke-width:1.6;stroke-dasharray:none;stroke-linecap:butt;stroke-dashoffset:0;stroke-linejoin:miter;stroke-miterlimit:4;fill:#1c274c;fill-rule:nonzero;opacity:1" transform="matrix(-33.33 0 0 33.33 799.975 .065)" d="M7.5 18a1.5 1.5 0 1 1 0 3 1.5 1.5 0 0 1 0-3Z" stroke-linecap="round"/><path style="stroke:#1c274c;stroke-width:1.5;stroke-dasharray:none;stroke-linecap:butt;stroke-dashoffset:0;stroke-linejoin:miter;stroke-miterlimit:4;fill:#1c274c;fill-rule:nonzero;opacity:1" transform="matrix(-33.33 0 0 33.33 799.945 .065)" d="M16.5 18a1.5 1.5 0 1 1 0 3 1.5 1.5 0 0 1 0-3Z" stroke-linecap="round"/><path style="stroke:none;stroke-width:1;stroke-dasharray:none;stroke-linecap:butt;stroke-dashoffset:0;stroke-linejoin:miter;stroke-miterlimit:4;fill:#1c274c;fill-rule:nonzero;opacity:1" transform="matrix(-33.33 0 0 33.33 799.965 .027)" d="m2.26 3.1.25-.72-.25.71Zm-.01-.8a.75.75 0 1 0-.5 1.4l.5-1.4Zm2.34 2.02.62-.42-.62.42Zm1.3 10.27-.55.51.55-.51Zm14.77-4.7.73.14-.73-.15Zm-.5 2.42.73.15-.73-.15Zm.57-5.61-.59.45.6-.45Zm-1.6 8.35-.47-.58.47.58Zm-13.42-5.29v-2.72h-1.5v2.72h1.5Zm-3.2-7.38-.26-.09-.5 1.42.26.09.5-1.42Zm8.43 13.87h5.3v-1.5h-5.3v1.5Zm-5.23-9.21c0-.7 0-1.3-.05-1.78-.06-.5-.17-.95-.45-1.36l-1.24.85c.09.13.16.31.2.67.04.38.04.88.04 1.62h1.5Zm-3.7-3.24c.67.23 1.1.39 1.43.55.3.15.44.27.53.4l1.24-.85a2.7 2.7 0 0 0-1.1-.9c-.43-.2-.97-.4-1.6-.62l-.5 1.42Zm2.2 5.96c0 1.45.01 2.5.15 3.3.15.85.44 1.47.98 2.04l1.1-1.03c-.33-.34-.5-.67-.6-1.26-.11-.65-.13-1.56-.13-3.05h-1.5Zm6.73 4.99c-1.42 0-2.4 0-3.14-.1-.72-.1-1.1-.3-1.37-.58l-1.09 1.03c.6.63 1.35.9 2.25 1.03.87.12 1.98.12 3.35.12v-1.5Zm-5.98-7.88h12.13v-1.5h-12.13v1.5Zm14.96 2.86-.5 2.43 1.47.3.5-2.43-1.47-.3Zm-2.83-2.86c.86 0 1.6 0 2.2.07.3.03.52.08.68.13.16.06.18.1.17.08l1.19-.91c-.24-.3-.57-.48-.87-.58-.3-.11-.65-.17-1-.21-.7-.08-1.54-.08-2.37-.08v1.5Zm4.3 3.16c.17-.85.32-1.56.35-2.13a2.36 2.36 0 0 0-.41-1.66l-1.19.91c.06.09.13.23.1.66a16.5 16.5 0 0 1-.32 1.93l1.47.29Zm-5.15 6.22c.76 0 1.4 0 1.92-.06a2.77 2.77 0 0 0 1.45-.56l-.95-1.16c-.13.1-.3.18-.69.23-.4.05-.93.05-1.73.05v1.5Zm3.18-4.1c-.16.79-.27 1.3-.4 1.7-.12.36-.23.52-.36.62l.95 1.16c.42-.35.66-.8.84-1.3.16-.5.29-1.13.44-1.87l-1.47-.3Z"/>  <path d="m238.44035,415.25349c-2.5724,0 -6.54702,1.32732 -12.86198,0c-6.80141,-1.42957 -11.93262,-8.26262 -18.00677,-12.63406c-5.78243,-4.16149 -10.20488,-5.81769 -12.86198,-7.01892c-3.75772,-1.69878 -9.00339,-7.01892 -10.28958,-8.42271c-3.85859,-4.21135 -5.14479,-7.01892 -7.71719,-9.82649c-1.2862,-1.40378 -2.81713,-2.64126 -5.14479,-7.01892c-1.44356,-2.71491 -1.2862,-4.21135 -2.5724,-8.42271c-1.2862,-4.21135 -2.5724,-8.42271 -5.14479,-14.03785c-1.2862,-2.80757 -2.5724,-4.21135 -3.85859,-7.01892c-1.2862,-2.80757 -4.6481,-6.03206 -7.71719,-9.82649c-1.90337,-2.35321 -2.84465,-3.81003 -6.43099,-7.01892c-1.40668,-1.25864 -2.08018,-2.91441 -2.5724,-4.21135c-0.69609,-1.83411 -2.67031,-3.67414 -3.85859,-4.21135c-1.6805,-0.75973 -1.2862,-2.80757 -1.2862,-5.61514c0,-2.80757 0,-5.61514 0,-9.82649c0,-4.21135 -1.18202,-7.16912 0,-12.63406c0.66078,-3.05497 1.47178,-4.11891 2.5724,-7.01892c1.55648,-4.10126 4.74935,-7.28003 6.43099,-9.82649c2.12713,-3.22102 6.24158,-7.26191 7.71719,-8.42271c2.33316,-1.8354 5.07626,-2.10392 14.14818,-2.80757c2.56592,-0.19904 6.43099,0 11.57578,0c3.85859,0 11.57578,0 19.29297,0c10.28958,0 17.92697,0.69949 25.72396,1.40378c7.69089,0.6947 19.29297,0 27.01016,0c5.14479,0 12.86198,0 16.72057,0c5.14479,0 11.57578,0 18.00677,0c7.71719,0 16.72057,0 25.72396,0c6.43099,0 16.72057,0 27.01016,0c3.85859,0 10.29437,0.20979 14.14818,0c12.91006,-0.70275 19.29297,-2.80757 24.43776,-2.80757c7.71719,0 11.57578,0 18.00677,0c7.71719,0 15.43438,0 28.29636,0c10.28958,0 21.86537,0 32.15495,0c11.57578,0 19.29297,0 30.86875,0c9.00339,0 12.87073,-0.23155 15.43438,0c7.79699,0.70429 16.72057,1.40378 32.15495,1.40378c2.5724,0 7.71719,0 12.86198,0c2.5724,0 10.28958,0 15.43438,0c6.43099,0 14.14818,1.40378 19.29297,1.40378c1.2862,0 1.2862,1.40378 1.2862,2.80757c0,1.40378 -1.92765,6.94412 -2.5724,16.84542c-0.27351,4.20077 0,11.23028 0,15.44163c0,4.21135 0,11.23028 0,15.44163c0,4.21135 0,11.23028 0,15.44163c0,2.80757 -0.82413,5.68762 0,11.23028c0.6515,4.38182 3.24054,8.47707 3.85859,12.63406c0.6515,4.38182 1.2862,7.01892 1.2862,11.23028c0,5.61514 0,9.82649 0,15.44163c0,9.82649 0,15.44163 0,19.65299c0,7.01892 0,14.03785 0,18.2492c0,4.21135 -2.5724,7.01892 -5.14479,9.82649c-3.85859,4.21135 -9.08087,11.16053 -15.43438,19.65299c-5.20885,6.96242 -9.00339,11.23028 -11.57578,14.03785c-3.85859,4.21135 -10.28958,11.23028 -14.14818,12.63406c-7.71719,2.80757 -15.92392,4.33289 -21.86537,7.01892c-3.361,1.51945 -9.0698,3.31193 -14.14818,4.21135c-8.02959,1.42216 -12.78218,3.50706 -20.57917,4.21135c-7.69089,0.6947 -25.72396,0 -36.01354,0c-11.57578,0 -20.57917,0 -33.44115,0c-12.86198,0 -18.00677,0 -24.43776,0c-6.43099,0 -12.92945,1.20064 -21.86537,0c-5.26341,-0.7072 -15.43438,-1.40378 -28.29636,-1.40378c-6.43099,0 -15.43438,0 -27.01016,0c-9.00339,0 -15.43438,0 -20.57917,0c-2.5724,0 -7.71719,0 -10.28958,0c-5.14479,0 -12.95987,0.53721 -14.14818,0c-1.68048,-0.75973 -6.43099,-2.80757 -11.57578,-5.61514c-5.14479,-2.80757 -12.80189,-7.1199 -16.72057,-9.82649c-6.33737,-4.37715 -8.44676,-6.01278 -10.28958,-8.42271c-4.12064,-5.38877 -15.91285,-7.55952 -20.57917,-11.23028c-4.42684,-3.48239 -5.68352,-3.39555 -7.71719,-5.61514c-2.03367,-2.21959 -5.56109,-4.94156 -7.71719,-7.01892c-3.4766,-3.34967 -6.43099,-5.61514 -7.71719,-7.01892c-1.2862,-1.40378 -6.56399,-5.48366 -7.71719,-7.01892c-2.94009,-3.91422 -4.09783,-6.58731 -6.43099,-8.42271c-1.47561,-1.1608 -3.75261,-3.35065 -5.14479,-7.01892c-1.47663,-3.89078 -1.92445,-5.48568 -2.5724,-11.23028c-0.47145,-4.17978 -3.21065,-16.71595 -3.85859,-22.46056c-0.62862,-5.57307 -2.5724,-14.03785 -2.5724,-19.65299c0,-2.80757 0,-5.61514 0,-8.42271c0,-5.61514 0,-11.23028 0,-16.84542c0,-7.01892 0,-14.03785 0,-18.2492c0,-5.61514 0,-9.82649 0,-12.63406c0,-2.80757 -1.3524,-4.63067 0,-7.01892c3.02403,-5.34032 51.44792,-4.21135 54.02032,-4.21135c2.5724,0 9.00339,0 16.72057,0c10.28958,0 19.29297,0 28.29636,0c5.14479,0 12.79345,0.70014 21.86537,1.40378c10.26372,0.7961 24.43776,0 36.01354,0c10.28958,0 23.15156,0 33.44115,0c7.71719,0 16.52969,2.80072 29.58255,4.21135c5.11975,0.55332 16.72057,0 24.43776,0c10.28958,0 25.6639,2.10431 36.01354,2.80757c7.70227,0.52338 11.57578,0 19.29297,0c10.28958,0 15.43438,0 24.43776,0c3.85859,0 9.00339,0 14.14818,0c5.14479,0 10.28958,0 19.29297,0c7.71719,0 12.86198,0 19.29297,0c10.28958,0 16.72057,0 23.15156,0c2.5724,0 4.25731,-0.93002 7.71719,1.40378c1.5473,1.04371 2.94913,1.81496 3.85859,2.80757c1.81892,1.98525 -0.95319,10.84699 -3.85859,21.05677c-3.89054,13.67161 -2.41641,23.99123 -3.85859,33.69083c-0.6515,4.38182 -5.33477,15.36221 -7.71719,22.46056c-2.79794,8.3366 -5.20179,12.59324 -7.71719,16.84542c-6.58156,11.12588 -7.34948,14.33499 -10.28958,18.2492c-5.76599,7.67639 -11.75846,13.77627 -27.01016,26.67191c-6.51055,5.50483 -11.63175,6.64283 -20.57917,8.42271c-11.66598,2.32065 -21.87263,5.53803 -34.72735,7.01892c-11.58269,1.33434 -19.30478,2.34181 -27.01016,2.80757c-11.6292,0.70296 -24.43776,4.21135 -36.01354,4.21135c-9.00339,0 -20.80015,1.30362 -30.86875,-1.40378c-10.67021,-2.86922 -22.99813,-7.68971 -37.29974,-11.23028c-14.02387,-3.47181 -25.72396,-5.61514 -38.58594,-7.01892c-12.86198,-1.40378 -23.15156,-4.21135 -38.58594,-8.42271c-5.14479,-1.40378 -7.90929,-2.06956 -9.00339,-2.80757c-2.44648,-1.65024 -3.15183,-2.03619 -6.43099,-5.61514c-3.27916,-3.57895 -3.29035,-6.34411 -7.71719,-9.82649c-2.33316,-1.8354 -4.93731,-4.4507 -9.00339,-8.42271c-6.13664,-5.9947 -12.21401,-11.10082 -12.86198,-16.84542c-0.15716,-1.39325 -0.75575,-4.23526 -1.2862,-11.23028c-0.6453,-8.5098 -2.78844,-12.52225 -5.14479,-18.2492c-2.83744,-6.89619 -6.63439,-11.59815 -10.28958,-19.65299c-2.35365,-5.18665 -1.2862,-8.42271 -1.2862,-9.82649c0,-1.40378 -0.18941,-3.05056 1.2862,-4.21135c4.66631,-3.67075 10.78718,-8.30704 14.14818,-9.82649c3.56487,-1.6116 6.43099,0 10.28958,0c11.57578,0 21.92318,-1.02911 29.58255,0c15.79019,2.12157 34.68193,7.36366 60.45131,11.23028c20.54608,3.0829 36.01354,2.80757 50.16172,2.80757c11.57578,0 27.01016,0 43.73073,0c28.29636,0 42.44453,0 54.02032,0c5.14479,0 10.28958,0 20.57917,0c7.71719,0 10.89571,2.0478 19.29297,4.21135c7.51076,1.93513 15.43438,0 24.43776,0c6.43099,0 7.71719,0 9.00339,0c3.85859,0 7.59857,2.10036 12.86198,2.80757c2.55308,0.34302 5.24567,2.51257 9.00339,4.21135c5.3142,2.40247 11.95998,3.96018 14.14818,8.42271c0.60691,1.23769 -4.04331,0.53692 -16.72057,4.21135c-7.86211,2.27879 -27.01016,2.80757 -50.16172,2.80757c-29.58255,0 -60.45131,0 -92.60626,0c-21.86537,0 -37.29974,0 -55.30651,0c-7.71719,0 -16.72057,0 -25.72396,0c-10.28958,0 -18.00677,0 -23.15156,0c-5.14479,0 -14.17083,-2.11099 -23.15156,-2.80757c-9.07192,-0.70365 -15.27819,-2.09651 -19.29297,-2.80757c-2.53919,-0.44974 -7.73014,0.39807 -12.86198,0c-9.07192,-0.70365 -17.3267,-3.45158 -25.72396,-5.61514c-2.50359,-0.64504 -5.14479,-1.40378 -6.43099,-1.40378c-1.2862,0 -1.2862,1.40378 -1.2862,8.42271c0,5.61514 3.97376,13.85792 7.71719,16.84542c6.64801,5.30553 12.78218,7.71842 20.57917,8.42271c10.25453,0.92629 28.21247,1.85635 46.30313,5.61514c15.37122,3.19377 21.67594,4.45434 23.15156,5.61514c2.33316,1.8354 3.85859,1.40378 9.00339,1.40378c3.85859,0 9.02419,0.50427 14.14818,0c14.32202,-1.40948 23.15156,-2.80757 43.73073,-4.21135c20.57917,-1.40378 37.34873,-0.94501 50.16172,-2.80757c7.75514,-1.12734 16.73043,-3.82322 23.15156,-4.21135c11.6292,-0.70296 24.92731,-0.12154 30.86875,-2.80757c3.361,-1.51945 5.14479,-2.80757 7.71719,-4.21135c5.14479,-2.80757 10.31031,-3.9586 18.00677,-12.63406c3.2259,-3.63618 6.08558,-8.53067 7.71719,-14.03785c2.13105,-7.19294 5.68509,-19.34951 9.00339,-23.86434c1.79961,-2.44853 3.85859,-2.80757 5.14479,-4.21135c1.2862,-1.40378 6.43099,-5.61514 10.28958,-8.42271c3.85859,-2.80757 7.73014,-2.4095 12.86198,-2.80757c9.07192,-0.70365 16.56451,-4.38164 19.29297,-1.40378c1.81892,1.98525 0,16.84542 0,28.0757c0,18.2492 -0.51223,38.02488 -2.5724,50.53625c-1.87607,11.39337 -7.71091,22.25222 -9.00339,36.4984c-0.88717,9.77868 -1.2862,14.03785 -2.5724,15.44163c-1.2862,1.40378 -3.85859,1.40378 -7.71719,1.40378c-7.71719,0 -24.43776,0 -34.72735,0c-10.28958,0 -15.43438,0 -18.00677,0c-1.2862,0 -4.94677,-2.05213 -1.2862,-14.03785c4.06733,-13.31749 14.43664,-20.82741 21.86537,-32.28705c8.0354,-12.39549 11.80246,-17.56659 9.00339,-16.84542c-2.50359,0.64504 -7.37735,4.54182 -15.43438,14.03785c-8.65122,10.19637 -20.85291,22.59816 -34.72735,32.28705c-7.26772,5.07527 -23.15156,7.01892 -33.44115,7.01892c-9.00339,0 -20.57917,0 -33.44115,0c-16.72057,0 -33.52789,1.54366 -45.01693,0c-10.52678,-1.41437 -16.78699,-3.31193 -21.86537,-4.21135c-4.01478,-0.71106 -12.36411,-6.69407 -19.29297,-9.82649c-9.7989,-4.42992 -19.31609,-5.47981 -33.44115,-8.42271c-6.44202,-1.34218 -10.32401,-1.08124 -11.57578,-1.40378c-2.79907,-0.72117 -7.71719,-1.40378 -14.14818,-1.40378c-6.43099,0 -9.38012,-0.99261 -10.28958,0c-0.90946,0.99261 0,7.01892 0,8.42271c0,1.40378 0.4163,2.13399 2.5724,4.21135c3.4766,3.34967 12.63185,18.66852 16.72057,21.05677c3.40202,1.98718 6.43099,2.80757 11.57578,5.61514c2.5724,1.40378 7.50817,6.02109 14.14818,9.82649c13.75959,7.88566 20.51911,7.71945 30.86875,8.42271c5.13486,0.34889 10.28958,0 12.86198,0c5.14479,0 12.83529,-1.53835 24.43776,-4.21135c6.41694,-1.47837 18.60418,-3.4596 23.15156,-8.42271c4.54738,-4.96311 10.80127,-8.51357 18.00677,-12.63406c11.39287,-6.51504 28.70606,-12.9447 36.01354,-16.84542c4.1659,-2.22374 10.8196,-4.16719 15.43438,-7.01892c3.16572,-1.95625 5.14479,-4.21135 6.43099,-4.21135c1.2862,0 3.16251,-0.97346 3.85859,-2.80757c1.96882,-5.18772 1.35238,-8.84203 0,-11.23028c-3.02403,-5.34032 -10.28958,-2.80757 -15.43438,-2.80757c-1.2862,0 -5.14479,0 -11.57578,0c-6.43099,0 -19.29297,5.61514 -20.57917,5.61514l2.5724,0" id="svg_6" stroke-width="99" stroke="#1c274c" fill="none"/>
</svg>
