<?xml version="1.0" encoding="UTF-8" standalone="no" ?>
<!DOCTYPE svg PUBLIC "-//W3C//DTD SVG 1.1//EN" "http://www.w3.org/Graphics/SVG/1.1/DTD/svg11.dtd">
<svg xmlns="http://www.w3.org/2000/svg" xmlns:xlink="http://www.w3.org/1999/xlink" version="1.1" width="85" height="81" viewBox="0 0 85 81" xml:space="preserve">
<desc>Created with Fabric.js 3.6.6</desc>
<defs>
</defs>
<g transform="matrix(3.72 0 0 3.72 43.83 41.28)"  >
<path style="stroke: #ff0000; stroke-width: 1.5; stroke-dasharray: none; stroke-linecap: round; stroke-dashoffset: 0; stroke-linejoin: round; stroke-miterlimit: 4; fill: #ff0000; fill-rule: nonzero; opacity: 1;"  transform=" translate(-12, -12.02)" d="M 12 6 c -1.8 -2.1 -4.8 -2.74 -7.06 -0.82 a 5.33 5.33 0 0 0 -0.8 7.4 c 1.47 1.89 5.92 5.87 7.38 7.16 c 0.17 0.14 0.25 0.21 0.35 0.24 c 0.08 0.03 0.17 0.03 0.25 0 c 0.1 -0.03 0.18 -0.1 0.34 -0.24 c 1.46 -1.3 5.92 -5.27 7.39 -7.16 a 5.3 5.3 0 0 0 -0.8 -7.4 c -2.3 -1.9 -5.25 -1.28 -7.05 0.82 Z" stroke-linecap="round" />
</g>
</svg>
