<?xml version="1.0" encoding="UTF-8" standalone="no" ?>
<!DOCTYPE svg PUBLIC "-//W3C//DTD SVG 1.1//EN" "http://www.w3.org/Graphics/SVG/1.1/DTD/svg11.dtd">
<svg xmlns="http://www.w3.org/2000/svg" xmlns:xlink="http://www.w3.org/1999/xlink" version="1.1" width="85" height="81" viewBox="0 0 85 81" xml:space="preserve">
<desc>Created with Fabric.js 3.6.6</desc>
<defs>
</defs>
<g transform="matrix(-3.54 0 0 3.54 41.42 40.42)"  >
<g style=""   >
		<g transform="matrix(1 0 0 1 0 7.5)"  >
<path style="stroke: rgb(60,56,100); stroke-width: 1.5; stroke-dasharray: none; stroke-linecap: butt; stroke-dashoffset: 0; stroke-linejoin: miter; stroke-miterlimit: 4; fill: none; fill-rule: nonzero; opacity: 1;"  transform=" translate(-12, -19.5)" d="M 7.5 18 a 1.5 1.5 0 1 1 0 3 a 1.5 1.5 0 0 1 0 -3 Z m 9 0 a 1.5 1.5 0 1 1 0 3 a 1.5 1.5 0 0 1 0 -3 Z" stroke-linecap="round" />
</g>
		<g transform="matrix(1 0 0 1 -0.5 -2.75)"  >
<path style="stroke: rgb(60,56,100); stroke-width: 1.5; stroke-dasharray: none; stroke-linecap: round; stroke-dashoffset: 0; stroke-linejoin: miter; stroke-miterlimit: 4; fill: none; fill-rule: nonzero; opacity: 1;"  transform=" translate(-11.5, -9.25)" d="m 2 3 l 0.26 0.1 c 1.3 0.45 1.95 0.68 2.33 1.22 c 0.37 0.55 0.37 1.27 0.37 2.72 v 2.72 c 0 2.94 0.06 3.91 0.93 4.83 c 0.86 0.91 2.26 0.91 5.05 0.91 h 1.06 m 4.24 0 c 1.56 0 2.34 0 2.9 -0.45 c 0.55 -0.45 0.7 -1.21 1.02 -2.74 l 0.5 -2.43 c 0.34 -1.74 0.52 -2.6 0.07 -3.18 c -0.44 -0.58 -1.96 -0.58 -3.64 -0.58 h -6.07 m -6.06 0 h 2.04" stroke-linecap="round" />
</g>
</g>
</g>
</svg>