<svg version="1.0" xmlns="http://www.w3.org/2000/svg" viewBox="0 0 40 40"><path d="M344.5-443.5c-33 5.8-60.5 21-83.2 45.9l-5.3 5.8v405.3l108.6-108.5c59.7-59.7 111.6-112.2 115.3-116.8 21.9-26.9 33.8-63.3 31.7-97.4-3.9-65.8-49.3-119-113.6-133.3-10.4-2.3-42.6-2.9-53.5-1zm-9 123c16.6 4.3 30.9 19.7 34.6 37.2 2.3 11.4-.5 25.6-7.1 35.4l-2.8 4.3 5.1 5.6c6.3 6.7 11.3 16.5 13.2 25.7 4.1 19.3-1.3 37.1-15.5 51.3-12 12.1-23.6 17-40 17-4.7 0-11.2-.7-14.3-1.5-18.4-4.8-33.6-19-39.9-37.4-3.3-9.4-3.2-25.8 0-35.3 2.6-7.6 8.3-16.9 13.4-21.9l3.4-3.4-3.2-5c-9.3-14.6-9.8-34.3-1.3-49.2 6.1-10.7 17.6-19.6 29-22.7 7.2-1.9 18.1-2 25.4-.1z"/><path d="M316.5-288.6c-9.3 4-12.2 16-6 24.2 7.1 9.3 21.9 7.5 26.7-3.3 5.9-13.3-7.4-26.7-20.7-20.9zm-2.4 65c-4.8 1.7-10.8 7.1-13.3 11.9-3.1 5.9-3.1 16.5-.1 22.3a24.8 24.8 0 0 0 33.4 10.6c18-9.1 18-34.3 0-43.5-6-3-13.9-3.5-20-1.3z"/></svg>