<svg viewBox="0 0 24 24" fill="none" xmlns="http://www.w3.org/2000/svg" stroke="#000" stroke-width="0"><g fill="#0F0F0F" stroke="none"><path fill-rule="evenodd" clip-rule="evenodd" d="M12 18a6 6 0 1 0 0-12 6 6 0 0 0 0 12Zm0-2a4 4 0 1 0 0-8 4 4 0 0 0 0 8Z"/><path d="M18 5a1 1 0 1 0 0 2 1 1 0 0 0 0-2Z"/><path fill-rule="evenodd" clip-rule="evenodd" d="M1.65 4.28c-.65 1.28-.65 2.96-.65 6.32v2.8c0 3.36 0 5.04.65 6.32a6 6 0 0 0 2.63 2.63c1.28.65 2.96.65 6.32.65h2.8c3.36 0 5.04 0 6.32-.65a6 6 0 0 0 2.63-2.63c.65-1.28.65-2.96.65-6.32v-2.8c0-3.36 0-5.04-.65-6.32a6 6 0 0 0-2.63-2.63c-1.28-.65-2.96-.65-6.32-.65h-2.8c-3.36 0-5.04 0-6.32.65a6 6 0 0 0-2.63 2.63Zm11.75-1.28h-2.8c-1.71 0-2.88 0-3.78.08-.87.07-1.32.2-1.64.36a4 4 0 0 0-1.74 1.74c-.16.32-.3.77-.36 1.64-.08.9-.08 2.07-.08 3.78v2.8c0 1.71 0 2.88.08 3.78.07.87.2 1.32.36 1.64a4 4 0 0 0 1.74 1.74c.32.16.77.3 1.64.36.9.08 2.07.08 3.78.08h2.8c1.71 0 2.88 0 3.78-.08.87-.07 1.32-.2 1.64-.36a4 4 0 0 0 1.74-1.74c.16-.32.3-.77.36-1.64.08-.9.08-2.07.08-3.78v-2.8c0-1.71 0-2.88-.08-3.78a4.32 4.32 0 0 0-.36-1.64 4 4 0 0 0-1.74-1.74 4.32 4.32 0 0 0-1.64-.36c-.9-.08-2.07-.08-3.78-.08Z"/></g></svg>