<svg xmlns="http://www.w3.org/2000/svg" viewBox="0 0 85 81" xml:space="preserve"><path style="stroke:red;stroke-width:1.5;stroke-dasharray:none;stroke-linecap:round;stroke-dashoffset:0;stroke-linejoin:round;stroke-miterlimit:4;fill:red;fill-rule:nonzero;opacity:1" transform="matrix(3.72 0 0 3.72 -.81 -3.434)" d="M12 6c-1.8-2.1-4.8-2.74-7.06-.82a5.33 5.33 0 0 0-.8 7.4c1.47 1.89 5.92 5.87 7.38 7.16.17.14.25.21.35.24.08.03.17.03.25 0 .1-.03.18-.1.34-.24 1.46-1.3 5.92-5.27 7.39-7.16a5.3 5.3 0 0 0-.8-7.4c-2.3-1.9-5.25-1.28-7.05.82Z" stroke-linecap="round"/></svg>