<?xml version="1.0" encoding="UTF-8" standalone="no" ?>
<!DOCTYPE svg PUBLIC "-//W3C//DTD SVG 1.1//EN" "http://www.w3.org/Graphics/SVG/1.1/DTD/svg11.dtd">
<svg xmlns="http://www.w3.org/2000/svg" xmlns:xlink="http://www.w3.org/1999/xlink" version="1.1" width="85" height="81" viewBox="0 0 85 81" xml:space="preserve">
<desc>Created with Fabric.js 3.6.6</desc>
<defs>
</defs>
<g transform="matrix(-3.98 0 0 3.98 43.8 40.65)"  >
<path style="stroke: none; stroke-width: 1; stroke-dasharray: none; stroke-linecap: butt; stroke-dashoffset: 0; stroke-linejoin: miter; stroke-miterlimit: 4; fill: rgb(28,39,76); fill-rule: nonzero; opacity: 1;"  transform=" translate(-11.54, -11.62)" d="M 2.08 2.75 c 0.14 -0.39 0.57 -0.6 0.96 -0.46 l 0.3 0.1 c 0.62 0.23 1.14 0.4 1.55 0.61 c 0.44 0.22 0.82 0.48 1.1 0.9 c 0.29 0.41 0.4 0.87 0.46 1.36 c 0.02 0.22 0.04 0.47 0.04 0.74 h 10.64 c 1.69 0 3.2 0 3.65 0.58 c 0.44 0.57 0.27 1.44 -0.08 3.18 l -0.5 2.43 c -0.32 1.53 -0.47 2.3 -1.02 2.74 c -0.56 0.45 -1.34 0.45 -2.9 0.45 h -5.3 c -2.79 0 -4.18 0 -5.05 -0.91 c -0.87 -0.92 -0.93 -1.89 -0.93 -4.83 v -2.6 c 0 -0.74 0 -1.24 -0.04 -1.62 a 1.4 1.4 0 0 0 -0.2 -0.67 a 1.24 1.24 0 0 0 -0.53 -0.4 a 14.5 14.5 0 0 0 -1.43 -0.55 l -0.26 -0.1 a 0.75 0.75 0 0 1 -0.46 -0.95 Z m 5.42 15.25 a 1.5 1.5 0 1 1 0 3 a 1.5 1.5 0 0 1 0 -3 Z m 9 0 a 1.5 1.5 0 1 1 0 3 a 1.5 1.5 0 0 1 0 -3 Z" stroke-linecap="round" />
</g>
</svg>