<svg xmlns="http://www.w3.org/2000/svg" viewBox="0 0 85 81" xml:space="preserve"><path style="stroke:none;stroke-width:1;stroke-dasharray:none;stroke-linecap:butt;stroke-dashoffset:0;stroke-linejoin:miter;stroke-miterlimit:4;fill:#120d43;fill-rule:nonzero;opacity:1" transform="matrix(-3.98 0 0 3.98 89.73 -5.598)" d="M2.08 2.75c.14-.39.57-.6.96-.46l.3.1c.62.23 1.14.4 1.55.61.44.22.82.48 1.1.9.29.41.4.87.46 1.36.02.22.04.47.04.74h10.64c1.69 0 3.2 0 3.65.58.44.57.27 1.44-.08 3.18l-.5 2.43c-.32 1.53-.47 2.3-1.02 2.74-.56.45-1.34.45-2.9.45h-5.3c-2.79 0-4.18 0-5.05-.91-.87-.92-.93-1.89-.93-4.83v-2.6c0-.74 0-1.24-.04-1.62a1.4 1.4 0 0 0-.2-.67 1.24 1.24 0 0 0-.53-.4 14.5 14.5 0 0 0-1.43-.55l-.26-.1a.75.75 0 0 1-.46-.95Zm5.42 15.25a1.5 1.5 0 1 1 0 3 1.5 1.5 0 0 1 0-3Zm9 0a1.5 1.5 0 1 1 0 3 1.5 1.5 0 0 1 0-3Z"/></svg>
