<svg xmlns="http://www.w3.org/2000/svg" viewBox="0 0 512 512" xml:space="preserve"><path d="M510.75 110.36a67.19 67.19 0 0 0-18.47-34.47 67.46 67.46 0 0 0-47.53-19.7h-377.5c-17.96 0-34.84 7-47.55 19.7a66.39 66.39 0 0 0-18.4 34.5 64.96 64.96 0 0 0-1.3 13.05v265.13a66.6 66.6 0 0 0 5.59 26.75 66.35 66.35 0 0 0 14.11 20.79c1.52 1.5 3.02 2.9 4.63 4.25a67.41 67.41 0 0 0 42.91 15.45h377.51a66.9 66.9 0 0 0 42.97-15.56 66.86 66.86 0 0 0 18.34-24l.44-1.05a66.3 66.3 0 0 0 5.5-26.63v-265.13c0-4.38-.42-8.8-1.25-13.08zm-475.93-11.26a31.62 31.62 0 0 1 3.72-4.38 40.36 40.36 0 0 1 28.7-11.91h377.51a40.06 40.06 0 0 1 32.38 16.2l2.89 3.88-201.5 175.62a34.13 34.13 0 0 1-22.52 8.44 34.4 34.4 0 0 1-22.51-8.44l-201.3-175.57 2.63-3.84zm-8.07 291.81c-.1-.72-.13-1.52-.13-2.34v-259.64l156.37 136.4-154.8 134.97-1.44-9.39zm438.15 32.93a40.35 40.35 0 0 1-20.15 5.34h-377.5c-7.13 0-14.1-1.85-20.15-5.34l-6.33-3.67 159.94-139.38 17.53 15.25a57.63 57.63 0 0 0 37.76 14.16 57.69 57.69 0 0 0 37.83-14.16l17.52-15.25 159.88 139.39-6.33 3.66zm20.47-35.27c0 .8-.01 1.6-.11 2.3l-1.39 9.48-154.86-134.94 156.36-136.42v259.58z" style="fill:#000"/></svg>