<svg viewBox="0 0 539.2 85.6" xmlns="http://www.w3.org/2000/svg"><path d="m50.9 42.5 7.7-9.8q2.9-3.8 7.8-9a356.14 356.14 0 0 1 4.63-4.82q2.4-2.45 5.12-5.15a632.22 632.22 0 0 1 1.85-1.83q2.9-2.8 6.6-4.8 3.7-2 6.3-2 3.6 0 3.6 3.8 0 3.3-2.7 9a308.98 308.98 0 0 1-2.95 6.05q-1.34 2.67-2.85 5.58a564.83 564.83 0 0 1-3.2 6.07q-1.7 3.1-2.3 5.3a70.97 70.97 0 0 1-.21.76q-.43 1.5-.59 1.74a29.66 29.66 0 0 1 .2-.23q.47-.6 1.66-2a783.85 783.85 0 0 1 .09-.12q1.19-1.42 3.1-3.62a597.5 597.5 0 0 1 1.25-1.43q3.4-3.8 8.1-8.35 4.7-4.55 10.8-9.75l16-13.2a10.13 10.13 0 0 1 1.04-.77q1.28-.83 2.36-.83a1.91 1.91 0 0 1 1.6.82q.23.3.4.71a4.64 4.64 0 0 1 .05.12q.44 1.12.9 2.68a61.48 61.48 0 0 1 .45 1.57q.5 1.68-4.67 6.97a72.8 72.8 0 0 1-.13.13q-12.5 12.8-21.6 28.6a137.65 137.65 0 0 0-3.44 6.4q-4.86 9.72-4.86 14.7a6.63 6.63 0 0 0 .07.99q.19 1.26.93 1.69a1.77 1.77 0 0 0 .9.22 3.1 3.1 0 0 0 .64-.09q1.53-.34 5.36-2.01a126.55 126.55 0 0 1 1.7-.75q2.25-.98 3.35-1.32a6.4 6.4 0 0 1 .45-.13 1.6 1.6 0 0 1 .2.1q.2.11.27.26a.34.34 0 0 1 .03.14q0 1.23-3.54 3.25a41.07 41.07 0 0 1-1.76.95q-4.91 2.55-8.3 2.7a9.45 9.45 0 0 1-.4 0q-1.64 0-2.28-.75a1.56 1.56 0 0 1-.12-.15 10.01 10.01 0 0 1-1.63-4.15 13.37 13.37 0 0 1-.17-2.15 23.35 23.35 0 0 1 .73-5.43q1.34-5.57 5.17-13.16a134.12 134.12 0 0 1 3.3-6.11q4.52-7.73 12.79-19.57a680.98 680.98 0 0 1 5.41-7.63q-5.2 4.3-11.3 9.9-6.1 5.6-13.1 12.4-6.26 6.12-10.93 11.22a165.24 165.24 0 0 0-3.92 4.43q-4.74 5.56-7.27 9.53a37 37 0 0 0-.98 1.62 13.76 13.76 0 0 1-1.41 2.11q-.87 1.05-1.84 1.68a5.52 5.52 0 0 1-3.05.91 3.57 3.57 0 0 1-.6-.05q-1.07-.18-1.1-1.1a1.64 1.64 0 0 1 0-.05 1.16 1.16 0 0 1 .1-.47q.08-.17.2-.33 1.52-2.41 3.84-6.23a964.42 964.42 0 0 0 .56-.92 1264.06 1264.06 0 0 0 2.17-3.58l4.23-7.07a543.6 543.6 0 0 0 5.02-8.92q5.33-9.69 8.64-16.84a135.7 135.7 0 0 0 1.84-4.14 45.43 45.43 0 0 0 .74-1.94q.95-2.72.96-4.14a4.26 4.26 0 0 0 0-.02 3.44 3.44 0 0 0-.04-.56q-.17-1-1-1.04a1.45 1.45 0 0 0-.06 0q-1.4 0-4.25 2.33a33.48 33.48 0 0 0-.45.37 139.6 139.6 0 0 0-8.61 7.9q-4.28 4.26-8.9 9.42a311.6 311.6 0 0 0-7.39 8.58q-5.8 6.9-10.15 12.75-4.35 5.85-7.35 10.55-2.18 3.35-2.38 4.98a2.57 2.57 0 0 0-.02.32 1.24 1.24 0 0 0 .04.33.82.82 0 0 0 .41.52l.45.25q0 .09-1.37 1.16a108.58 108.58 0 0 1-.43.34 7.61 7.61 0 0 1-2.68.76 9.35 9.35 0 0 1-.92.04 13.52 13.52 0 0 1-1.12-.04q-2.73-.23-2.43-1.68a1.81 1.81 0 0 1 .05-.18q1.22-3.9 7.33-13.32a262.1 262.1 0 0 1 1.97-2.98 978.36 978.36 0 0 0 4.16-6.23q5.62-8.49 8.25-12.95a73.32 73.32 0 0 0 .99-1.72q5.6-10.1 6.52-16.8a18.38 18.38 0 0 0 .18-2.5 15.1 15.1 0 0 0-.2-2.55q-.52-3.03-2.4-4.55-1.87-1.5-5.13-1.93a21.5 21.5 0 0 0-2.77-.17 30.72 30.72 0 0 0-11.85 2.5q-4.18 1.74-8.45 4.68a63.45 63.45 0 0 0-3.9 2.92q-5.4 4.4-10.1 9.95a56.67 56.67 0 0 0-5.99 8.49 50.08 50.08 0 0 0-1.61 3.06 30.08 30.08 0 0 0-2.25 6.27 24.34 24.34 0 0 0-.65 5.53 15.95 15.95 0 0 0 .46 4.04q1.36 5.15 6.63 6.13a14.8 14.8 0 0 0 2.71.23 25.41 25.41 0 0 0 7.82-1.14 19.99 19.99 0 0 0 9.98-7.16 15.85 15.85 0 0 0 1.32-2.12q.6-1.2.87-2.34a7.63 7.63 0 0 0 .21-1.74 4.48 4.48 0 0 0-.07-.81q-.08-.44-.26-.78a1.8 1.8 0 0 0-.67-.71q-.08-.08-.1-.23a.7.7 0 0 1 0-.07.37.37 0 0 1 .06-.21q.13-.19.54-.19 2.28 0 2.56 2.62a7.38 7.38 0 0 1 .04.78 6.49 6.49 0 0 1-.2 1.54q-.35 1.4-1.28 3.17a24.4 24.4 0 0 1-.32.59q-2.3 4-6.9 6.8-5.8 3.6-12.8 3.6a17.4 17.4 0 0 1-4.9-.66 13.3 13.3 0 0 1-6-3.64 14.57 14.57 0 0 1-3.8-7.72 20.6 20.6 0 0 1-.3-3.58 28.02 28.02 0 0 1 3.53-13.2q4.68-8.83 15.57-17.87a109.09 109.09 0 0 1 1.5-1.23 33.92 33.92 0 0 1 5.02-3.26 43.27 43.27 0 0 1 4.03-1.89q5.25-2.15 10.85-3.3t10.3-1.15q6.8 0 10.35 2.25a7.18 7.18 0 0 1 3.05 4.12q.4 1.27.48 2.83a16.42 16.42 0 0 1 .02.9 23.83 23.83 0 0 1-.54 4.79q-1 4.8-3.8 11.14a103.98 103.98 0 0 1-1.36 2.97 43.52 43.52 0 0 1-1.1 2.07q-2.18 3.93-7 11.43Zm424.9 5 6.4-10.4a79.34 79.34 0 0 0-7.62 6.42 103.38 103.38 0 0 0-5.88 6.08 131.28 131.28 0 0 0-1.66 1.88l-1.77 2.08a229.44 229.44 0 0 0-.62.74 176.76 176.76 0 0 0-2.2 2.7q-1.31 1.64-2.75 3.5-3.6 4.7-4.3 4.7-1.4 0-2.3-1.25a6.53 6.53 0 0 1-.47-.74q-.2-.4-.31-.76a2.64 2.64 0 0 1-.12-.75q0-.74.43-2.64a49.98 49.98 0 0 1 .07-.31 26.31 26.31 0 0 1 .48-1.78q.27-.9.6-1.68a15.6 15.6 0 0 1 .12-.29q.7-1.7 1.45-3.35.75-1.65 1.45-3.25l-6 6.3-1.2 1.2a7.43 7.43 0 0 1-.42.39q-.69.6-1.15.61a.74.74 0 0 1-.03 0q-.5 0-.5-.7a.75.75 0 0 1 .01-.14q.03-.13.1-.3a3.26 3.26 0 0 1 .04-.11 1.54 1.54 0 0 1 .13-.23q.15-.23.41-.5a6.5 6.5 0 0 1 .11-.12q1.5-1.5 3.1-3.2 1.6-1.7 3.3-3.9a182.75 182.75 0 0 0 .5-.62l2.2-2.72a1292.29 1292.29 0 0 0 0-.01q1.8-2.25 3.95-4.85 2.15-2.6 4.05-4.8.41-.58.9-.85a1.94 1.94 0 0 1 .2-.1 8.59 8.59 0 0 1 .24-.1q.4-.15.56-.15a5.1 5.1 0 0 1 .99.09q1.71.34 1.71 2.01a2.55 2.55 0 0 1-.18.92 3.14 3.14 0 0 1-.12.28q-9 12.4-10.8 18.9 9.56-9.56 16.03-15.22a134.78 134.78 0 0 1 2.62-2.23 68.1 68.1 0 0 1 2.84-2.24q4.86-3.61 7.21-3.61a8.23 8.23 0 0 1 .9.05q.94.1 1.53.44a2.41 2.41 0 0 1 .02.01 1.59 1.59 0 0 1 .7.88q.15.43.15 1.02 0 .33-.04.57a1.64 1.64 0 0 1-.06.23q-.25.6-3.04 4.23a326.24 326.24 0 0 1-1.06 1.37 209.63 209.63 0 0 0-2.1 2.6q-.98 1.23-1.84 2.35a125.27 125.27 0 0 0-.11.15q-1.75 2.3-2.85 4-1.64 2.55-2.54 4.82a19.43 19.43 0 0 0-.16.43 19.02 19.02 0 0 0-.5 1.56q-.2.73-.3 1.38a8.02 8.02 0 0 0-.1 1.21q0 .7.2 1.7.18.88.97.98a1.73 1.73 0 0 0 .23.02 4.21 4.21 0 0 0 1.36-.27q1.99-.69 5.15-3.18a50.87 50.87 0 0 0 .69-.55q2.3-2 4.3-4.05a139.74 139.74 0 0 0 3.35-3.55 127.17 127.17 0 0 0 .45-.5 6.1 6.1 0 0 0 .23-.24q.37-.42 1-1.23a60.17 60.17 0 0 0 .07-.08 21.14 21.14 0 0 1 .29-.36q.53-.65.74-.77a.16.16 0 0 1 .07-.02q.4 0 .4.8 0 .37-.39 1.22a12 12 0 0 1-.06.13q-.32.67-.66 1.12a3.38 3.38 0 0 1-.29.33q-.84 1-2.3 2.58a199.33 199.33 0 0 1-.95 1.02 75.41 75.41 0 0 1-2.88 2.91 91.2 91.2 0 0 1-1.92 1.79q-2.65 2.4-5.15 4.1a13.77 13.77 0 0 1-1.43.86q-1.63.84-2.97.84-2.7 0-3.8-1.55-1.1-1.55-1.1-3.85a19.45 19.45 0 0 1 .97-5.9q.75-2.36 2.08-4.84a37.03 37.03 0 0 1 .95-1.66Zm-68.1 5.5 13.8-16.2a10.7 10.7 0 0 1 1.74-1.63q1.3-.96 2.72-1.25a6.2 6.2 0 0 1 1.24-.12 4.31 4.31 0 0 1 .84.08q1.32.26 1.45 1.45a2.51 2.51 0 0 1 .01.27 1.65 1.65 0 0 1-.28.91 2.42 2.42 0 0 1-.32.39 35.97 35.97 0 0 0-1.27 1.27q-1.39 1.46-3.13 3.53a116.88 116.88 0 0 0-.25.3 92.73 92.73 0 0 0-4.7 6.16 103.02 103.02 0 0 0-.65.94q-2.6 3.8-4.35 7.25a25.16 25.16 0 0 0-.85 1.83q-.9 2.21-.9 3.72a4 4 0 0 0 .05.63q.19 1.17 1.15 1.17.7 0 2.2-.55 1.5-.55 4-2.3 2.5-1.75 6-5.45a12.16 12.16 0 0 0 .3-.3q.73-.8 2.57-2.92a482.72 482.72 0 0 0 .33-.38q2-2.3 5.04-6.12a452.34 452.34 0 0 0 1.96-2.48q7.42-9.23 9.95-9.68a1.41 1.41 0 0 1 .25-.02 5.98 5.98 0 0 1 1.3.13q1.86.41 2.24 2.17a4.08 4.08 0 0 1 .06.4.4.4 0 0 1 0 .09q0 .92-3.36 4.84a103.21 103.21 0 0 1-.84.97 435.48 435.48 0 0 0-2.63 3.2q-3.22 3.98-4.81 6.2a44.38 44.38 0 0 0-.36.5 41.51 41.51 0 0 0-1.7 2.7q-1.52 2.62-1.99 4.58a7 7 0 0 0-.21 1.62 4.78 4.78 0 0 0 .06.78q.23 1.42 1.44 1.42 1.5 0 3.85-1.45t4.95-3.7q2.6-2.25 5.05-4.7a97.2 97.2 0 0 0 2.22-2.3q1.03-1.1 1.91-2.11a58.26 58.26 0 0 0 .12-.14 2.93 2.93 0 0 1 .33-.33q.2-.16.38-.25a1.13 1.13 0 0 1 .49-.12.86.86 0 0 1 .24.03q.36.1.36.57a1.19 1.19 0 0 1 0 .13l-.06.3a5.83 5.83 0 0 1-.04.17 1.22 1.22 0 0 1-.12.29q-.15.28-.48.61-1.6 1.8-4.1 4.45a89.02 89.02 0 0 1-4.68 4.6 98.46 98.46 0 0 1-.72.65q-2.9 2.6-5.6 4.3a16.23 16.23 0 0 1-1.45.82q-1.63.8-2.9.87a4.43 4.43 0 0 1-.25.01q-2.3 0-4-1.25a3.97 3.97 0 0 1-1.67-2.88 5.24 5.24 0 0 1-.03-.57 14.76 14.76 0 0 1 .57-4.01 16.73 16.73 0 0 1 .13-.44 99.83 99.83 0 0 0 .48-1.6q.19-.62.34-1.19a49.45 49.45 0 0 0 .28-1.06 107.07 107.07 0 0 1-2.82 3.18q-1.5 1.61-2.85 2.92a42.98 42.98 0 0 1-2.58 2.3 48.16 48.16 0 0 1-2.06 1.6q-2.22 1.62-3.89 2.35-2.08.9-3.4 1.03a4.31 4.31 0 0 1-.4.02q-4.5 0-4.5-5.7a9 9 0 0 1 .19-1.77q.32-1.57 1.16-3.48 1.26-2.85 3.53-6.01a48.45 48.45 0 0 1 .32-.44l-1.8 1.7a48.86 48.86 0 0 0-1.42 1.4q-1.24 1.27-2.68 2.9-.4.4-1 .4a.45.45 0 0 1-.18-.03q-.22-.1-.22-.47a.94.94 0 0 1 .06-.29q.14-.44.67-1.18a13.43 13.43 0 0 1 .17-.23Zm-235.1 7.5 5-9.9-7.5 7.6a67.4 67.4 0 0 1-2.1 2.01q-2.13 1.96-3.84 3.11a19.73 19.73 0 0 1-.11.08 19.04 19.04 0 0 1-1.2.74q-1.17.66-2.03.87a3.12 3.12 0 0 1-.72.09 7.14 7.14 0 0 1-2.9-.64 10.26 10.26 0 0 1-1.9-1.11 8.42 8.42 0 0 1-1.35-1.2q-1.15-1.3-1.35-2.85a10.37 10.37 0 0 1-.09-1.34q0-6.2 7.13-14.17a63.85 63.85 0 0 1 2.66-2.79 60.68 60.68 0 0 1 5.2-4.6q7.6-5.9 13.9-5.9 2.3 0 3.6 1.1a2.88 2.88 0 0 1 .6.72q.27.46.45 1.08a12.57 12.57 0 0 0 .12.38q.22.68.37.8a.1.1 0 0 0 .06.02q.4 0 .7-.15a1.4 1.4 0 0 1 .4-.13 1.86 1.86 0 0 1 .3-.02 3.08 3.08 0 0 1 1.12.2 2.8 2.8 0 0 1 1.03.7 2.95 2.95 0 0 1 .33.42q.3.45.3.91a1.48 1.48 0 0 1-.08.47 2.02 2.02 0 0 1-.13.46q-.4 1.05-2.01 3.7a118.72 118.72 0 0 1-.76 1.24 140.25 140.25 0 0 0-1.42 2.43l-1.3 2.29a263.44 263.44 0 0 0-1.38 2.53q-2.3 4.25-4.85 8.8-2.55 4.55-4.95 8.5a108.85 108.85 0 0 1-1.71 2.73q-1.4 2.15-2.59 3.72a54.83 54.83 0 0 1-4.4 5.2q-5.12 5.26-9.94 6.57a12.02 12.02 0 0 1-3.16.43 6.3 6.3 0 0 1-4.7-2.05 8.77 8.77 0 0 1-.4-.45 9.9 9.9 0 0 1-1.53-2.42 8.12 8.12 0 0 1-.67-2.98q.2-.78.52-1.05a.58.58 0 0 1 .38-.15.46.46 0 0 1 .38.22q.23.33.3 1.15a7.38 7.38 0 0 1 .02.18 3.84 3.84 0 0 0 .47 1.58q.29.53.75 1.06a8 8 0 0 0 .38.41q1.5 1.5 2.9 1.5a10.59 10.59 0 0 0 4.72-1.19q3.27-1.62 6.72-5.44a41.67 41.67 0 0 0 .76-.87q2.3-2.7 4.75-6.35a67.62 67.62 0 0 0 2.7-4.4 85.56 85.56 0 0 0 2.05-3.85Zm-39-6.1-6.2 6a35.1 35.1 0 0 1-1.7 1.6q-1.8 1.58-3.35 2.4a15.77 15.77 0 0 1-1.2.58q-1.44.62-2.45.62a7.33 7.33 0 0 1-2.92-.63 10.35 10.35 0 0 1-1.88-1.07 8.15 8.15 0 0 1-1.35-1.18q-.84-.94-1.18-2.02a4.86 4.86 0 0 1-.17-.8 10.37 10.37 0 0 1-.09-1.34q0-6.2 7.13-14.17a63.85 63.85 0 0 1 2.66-2.79 59.43 59.43 0 0 1 5.17-4.64q6.08-4.8 11.39-5.73a14.59 14.59 0 0 1 2.54-.23q2.3 0 3.6 1.1.7.7 1.05 1.9a12.57 12.57 0 0 0 .12.38q.22.68.37.8a.1.1 0 0 0 .06.02q.4 0 .7-.15a1.4 1.4 0 0 1 .4-.13 1.86 1.86 0 0 1 .3-.02 2.86 2.86 0 0 1 2.04.84 3.76 3.76 0 0 1 .06.06 6.08 6.08 0 0 1 .42.46q.4.5.53.94a1.45 1.45 0 0 1 .05.2q.1.2-6.4 9.9-6.5 9.5-5.9 12.9a5.04 5.04 0 0 0 .28.9q.2.47.48.78a1.85 1.85 0 0 0 1.44.62 6.08 6.08 0 0 0 2.8-.88q5.34-2.92 15.5-15.45a231.99 231.99 0 0 0 .7-.87q.27-.36.54-.4a.45.45 0 0 1 .06 0q.5 0 .5.7a1.44 1.44 0 0 1 0 .02q-.01.8-.9 1.98-12.7 17.1-19.5 17.1a4.8 4.8 0 0 1-1.7-.3 4.4 4.4 0 0 1 0 0 7.42 7.42 0 0 1-2.41-1.46q-1.52-1.41-1.88-3.68a9.4 9.4 0 0 1-.11-1.46q0-1.7.4-3.4Zm120.9 0-6.2 6a35.1 35.1 0 0 1-1.7 1.6q-1.8 1.58-3.35 2.4a15.77 15.77 0 0 1-1.2.58q-1.44.62-2.45.62a7.33 7.33 0 0 1-2.92-.63 10.35 10.35 0 0 1-1.88-1.07 8.15 8.15 0 0 1-1.35-1.18q-.84-.94-1.18-2.02a4.86 4.86 0 0 1-.17-.8 10.37 10.37 0 0 1-.09-1.34q0-6.2 7.13-14.17a63.85 63.85 0 0 1 2.66-2.79 59.43 59.43 0 0 1 5.17-4.64q6.07-4.8 11.39-5.73a14.59 14.59 0 0 1 2.54-.23q2.3 0 3.6 1.1.7.7 1.05 1.9a12.57 12.57 0 0 0 .12.38q.22.68.37.8a.1.1 0 0 0 .06.02q.4 0 .7-.15a1.4 1.4 0 0 1 .4-.13 1.86 1.86 0 0 1 .3-.02 2.86 2.86 0 0 1 2.04.84 3.76 3.76 0 0 1 .06.06 6.08 6.08 0 0 1 .42.46q.4.5.54.94a1.45 1.45 0 0 1 .04.2q.1.2-6.4 9.9-6.5 9.5-5.9 12.9a5.04 5.04 0 0 0 .28.9q.2.47.48.78a1.85 1.85 0 0 0 1.44.62 6.08 6.08 0 0 0 2.8-.88q5.34-2.92 15.5-15.45a231.99 231.99 0 0 0 .7-.87q.27-.36.54-.4a.45.45 0 0 1 .06 0q.5 0 .5.7a1.44 1.44 0 0 1 0 .02q-.01.8-.9 1.98-12.7 17.1-19.5 17.1a4.8 4.8 0 0 1-1.7-.3 4.4 4.4 0 0 1 0 0 7.42 7.42 0 0 1-2.41-1.46q-1.52-1.41-1.88-3.68a9.4 9.4 0 0 1-.11-1.46q0-1.7.4-3.4Zm96.9 0-6.2 6a35.1 35.1 0 0 1-1.7 1.6q-1.8 1.58-3.35 2.4a15.77 15.77 0 0 1-1.2.58q-1.44.62-2.45.62a7.33 7.33 0 0 1-2.93-.63 10.35 10.35 0 0 1-1.87-1.07 8.15 8.15 0 0 1-1.35-1.18q-.84-.94-1.18-2.02a4.86 4.86 0 0 1-.17-.8 10.37 10.37 0 0 1-.08-1.34q0-6.2 7.12-14.17a63.85 63.85 0 0 1 2.66-2.79 59.43 59.43 0 0 1 5.17-4.64q6.07-4.8 11.39-5.73a14.59 14.59 0 0 1 2.54-.23q2.3 0 3.6 1.1.7.7 1.05 1.9a12.57 12.57 0 0 0 .12.38q.22.68.37.8a.1.1 0 0 0 .06.02q.4 0 .7-.15a1.4 1.4 0 0 1 .4-.13 1.86 1.86 0 0 1 .3-.02 2.86 2.86 0 0 1 2.04.84 3.76 3.76 0 0 1 .06.06 6.08 6.08 0 0 1 .42.46q.4.5.53.94a1.45 1.45 0 0 1 .05.2q.1.2-6.4 9.9-6.5 9.5-5.9 12.9a5.04 5.04 0 0 0 .28.9q.2.47.48.78a1.85 1.85 0 0 0 1.44.62 6.08 6.08 0 0 0 2.8-.88q5.34-2.92 15.5-15.45a231.99 231.99 0 0 0 .7-.87q.27-.36.54-.4a.45.45 0 0 1 .06 0q.5 0 .5.7a1.44 1.44 0 0 1 0 .02q-.01.8-.9 1.98-12.7 17.1-19.5 17.1a4.8 4.8 0 0 1-1.7-.3 4.4 4.4 0 0 1 0 0 7.42 7.42 0 0 1-2.41-1.46q-1.52-1.41-1.88-3.68a9.4 9.4 0 0 1-.11-1.46q0-1.7.4-3.4Zm161.7 0-6.2 6a35.1 35.1 0 0 1-1.7 1.6q-1.8 1.58-3.35 2.4a15.77 15.77 0 0 1-1.2.58q-1.44.62-2.45.62a7.33 7.33 0 0 1-2.93-.63 10.35 10.35 0 0 1-1.87-1.07 8.15 8.15 0 0 1-1.35-1.18q-.84-.94-1.18-2.02a4.86 4.86 0 0 1-.17-.8 10.37 10.37 0 0 1-.08-1.34q0-6.2 7.12-14.17a63.85 63.85 0 0 1 2.66-2.79 59.43 59.43 0 0 1 5.17-4.64q6.07-4.8 11.39-5.73a14.59 14.59 0 0 1 2.54-.23q2.3 0 3.6 1.1.7.7 1.05 1.9a12.57 12.57 0 0 0 .12.38q.22.68.37.8a.1.1 0 0 0 .06.02q.4 0 .7-.15a1.4 1.4 0 0 1 .4-.13 1.86 1.86 0 0 1 .3-.02 2.86 2.86 0 0 1 2.04.84 3.76 3.76 0 0 1 .06.06 6.08 6.08 0 0 1 .42.46q.4.5.53.94a1.45 1.45 0 0 1 .05.2q.1.2-6.4 9.9-6.5 9.5-5.9 12.9a5.04 5.04 0 0 0 .28.9q.2.47.48.78a1.85 1.85 0 0 0 1.44.62 6.08 6.08 0 0 0 2.8-.88q5.34-2.92 15.5-15.45a231.99 231.99 0 0 0 .7-.87q.27-.36.54-.4a.45.45 0 0 1 .06 0q.5 0 .5.7a1.44 1.44 0 0 1 0 .02q-.01.8-.9 1.98-12.7 17.1-19.5 17.1a4.8 4.8 0 0 1-1.7-.3 4.4 4.4 0 0 1 0 0 7.42 7.42 0 0 1-2.41-1.46q-1.52-1.41-1.88-3.68a9.4 9.4 0 0 1-.11-1.46q0-1.7.4-3.4Zm-291.8-13.3 3.3-3.5a8.87 8.87 0 0 1 1.25-1q.77-.5 1.55-.73a4.36 4.36 0 0 1 1.2-.17 4.87 4.87 0 0 1 .99.1q1.49.3 1.68 1.67a3.08 3.08 0 0 1 .03.43.67.67 0 0 1-.06.2q-.32.83-2.6 4.91a426.88 426.88 0 0 1-.84 1.49l-4.4 7.6a427.6 427.6 0 0 1-3.63 6.8q-3.44 6.28-6 10.3a66.79 66.79 0 0 1-2.27 3.4q-9.1 13-17.1 13-3 0-5.5-1.9-2.45-1.89-2.6-3.77a3.08 3.08 0 0 1 0-.23 6.06 6.06 0 0 1 .03-.62q.06-.62.27-.94a.68.68 0 0 1 .6-.34.13.13 0 0 1 .05.04q.25.23 1.5 1.86a203.83 203.83 0 0 1 .45.6q1.6 2.07 3.56 2.5a4.93 4.93 0 0 0 1.04.1q8 0 18.2-18.1a217.33 217.33 0 0 0 2.7-5.02q1.4-2.71 2.55-5.13 1.73-3.66 2.84-6.7a52.53 52.53 0 0 0 .51-1.45q-.69.77-1.85 1.91a105.71 105.71 0 0 1-.75.74q-1.7 1.65-3.25 2.9a14.07 14.07 0 0 1-.64.49q-1.06.76-1.61.76a.43.43 0 0 1-.12-.02q-.13-.03-.17-.17a.44.44 0 0 1-.01-.11q0-.9 1.3-2.1a14.9 14.9 0 0 0 1.22-1.17q1.26-1.34 2.78-3.42a60.08 60.08 0 0 0 .5-.71 444.17 444.17 0 0 1 .69-.97q2.15-3.03 2.57-3.49a1.18 1.18 0 0 1 .04-.04Zm139.7 34.2a18.26 18.26 0 0 0 .02.86q.27 5.7 4.18 7.84a1.09 1.09 0 0 0 .1.05q.34.17.72.02a1.35 1.35 0 0 0 .23-.12q.19-.12.31-.26a.86.86 0 0 0 .24-.59l-.05-.05a.15.15 0 0 1-.03-.04l-.02-.05a.32.32 0 0 1 0-.06q-.6-1-1.25-2.15-.4-.7-.55-1.58a7.36 7.36 0 0 1-.1-1.27q0-1.12.32-2.58a22.85 22.85 0 0 1 .43-1.62q.75-2.5 1.9-5.05a49.39 49.39 0 0 1 .73-1.55 42.02 42.02 0 0 1 1.72-3.15q.9-1.48 1.7-2.37a6.53 6.53 0 0 1 .7-.68 17.83 17.83 0 0 0 1.42 1.53q.8.76 1.59 1.27a7.08 7.08 0 0 0 1.89.9 5.33 5.33 0 0 0 .12.03q1.74.47 6.08.47a13.66 13.66 0 0 0 .57-.01q6.6-.28 15.03-6.89 9.7-7.6 9.7-15.7a8.83 8.83 0 0 0 0-.11q-.04-3.42-2.75-5.54-2.52-1.97-6.16-1.97a14.12 14.12 0 0 0-.69.02 8.76 8.76 0 0 0-.03 0q-.67.08-1.85.32a63.16 63.16 0 0 0-.87.18q-1.85.4-3.6 1.05a15.27 15.27 0 0 0-.43.17q-.91.37-1.49.75a3.5 3.5 0 0 0-.53.43 12.65 12.65 0 0 0-.04-1.06q-.1-1.22-.47-1.88a1.3 1.3 0 0 0-1.19-.76q-.3 0-.6.05t-.7.15a3.3 3.3 0 0 0-.09.03q-4.22 1.44-14.91 17.37-8.52 12.59-10.62 19.61a14.23 14.23 0 0 0-.68 3.99Zm-57.5-33.6 12.6-11.8q2.6-2.5 4.15-3.8a14.15 14.15 0 0 1 .64-.5q.93-.7 1.47-.79a.9.9 0 0 1 .14-.01 6.27 6.27 0 0 1 1.16.1q1.92.36 2.03 2.09a3.37 3.37 0 0 1 .01.21 2.79 2.79 0 0 1-.17.91q-.27.78-.97 1.69a10.65 10.65 0 0 1-.16.2q-1 1.2-1.45 1.85a38.76 38.76 0 0 1-.16.23l-.36.5a.54.54 0 0 1-.03.02q-1.37 2.35-2.56 7.53a88.77 88.77 0 0 0-.74 3.57q-1.05 5.6-1.82 9.32a225.72 225.72 0 0 1-.08.38q-.77 3.66-1.26 5.37a22 22 0 0 1-.04.13 15.62 15.62 0 0 0 5.99-1.38 19.92 19.92 0 0 0 2.31-1.22q4.1-2.5 8.8-8.2l.6-.6q.27-.27.53-.36a.84.84 0 0 1 .27-.04 1.05 1.05 0 0 1 .22.02q.32.07.37.37a.7.7 0 0 1 .01.11 1.79 1.79 0 0 1-.14.68 2.35 2.35 0 0 1-.16.32q-.3.5-.6.9a70.34 70.34 0 0 1-2.45 2.78q-1.75 1.88-3.35 3.27a23.95 23.95 0 0 1-4.13 2.91 21.32 21.32 0 0 1-1.57.79q-2.78 1.25-6.5 2.11a50.83 50.83 0 0 1-.6.14l-3.2 2.1a7.98 7.98 0 0 1-1.82.93 10.2 10.2 0 0 1-1.28.37 17.07 17.07 0 0 1-3.06.39 19.45 19.45 0 0 1-.74.01 11.28 11.28 0 0 1-2.7-.3 7.2 7.2 0 0 1-4.25-2.8 17.42 17.42 0 0 1-1.57-2.66q-.68-1.4-1.25-3.11a38.95 38.95 0 0 1-.83-2.83q-1.46 1.46-2.2 1.73a.88.88 0 0 1-.3.07q-.48 0-.5-.73a2.4 2.4 0 0 1 0-.07 1.42 1.42 0 0 1 .27-.83 2.02 2.02 0 0 1 .23-.27l2.55-3.1a40.28 40.28 0 0 1 1.5-1.7q1.76-1.92 4.45-4.48a202.43 202.43 0 0 1 2.7-2.52Zm-111.57 24.2a5.47 5.47 0 0 0 1.87.3q4 0 7.4-1.95 3.4-1.95 6.3-4.75t5.3-5.2a54.81 54.81 0 0 0 1.18-1.21q.55-.59 1.01-1.12a24.9 24.9 0 0 0 .96-1.17q.9-1.17 1.1-1.73a.83.83 0 0 0 .05-.27q0-.41-.19-.54a.37.37 0 0 0-.21-.06q-.2 0-.95.5-.54.36-1.2 1.13a15.07 15.07 0 0 0-.55.67q-1 1.25-2.37 2.66a58.12 58.12 0 0 1-1.78 1.74q-2.55 2.4-5.35 4.5a47.7 47.7 0 0 1-2.57 1.8 35.7 35.7 0 0 1-2.78 1.65q-1.75.93-3.06 1.22a5.06 5.06 0 0 1-1.09.13q-2.5 0-2.5-3.2a6.02 6.02 0 0 1 .15-1.26q.7-3.28 4.8-9.1a96.7 96.7 0 0 1 2.55-3.44l7.6-9.8a1.23 1.23 0 0 0-.02-.2q-.09-.57-.73-1.08a4.46 4.46 0 0 0-.55-.37 9.72 9.72 0 0 0-.1-.06q-.79-.44-1.42-.6a2.79 2.79 0 0 0-.68-.09q-2.87.08-7 5.88a58.45 58.45 0 0 0-2.2 3.32q-1.4 2.2-2.85 5a46.1 46.1 0 0 0-.53 1.05 40.73 40.73 0 0 0-1.87 4.5q-.55 1.59-.78 2.96a11.37 11.37 0 0 0-.17 1.89 17.2 17.2 0 0 0 .02.73q.07 1.87.57 3.09a4.02 4.02 0 0 0 .86 1.33 4.8 4.8 0 0 0 1.78 1.14Zm-16.93-15.8 10.6-14.6q-.6-1.39-2.47-1.4a5.11 5.11 0 0 0-.03 0 11.11 11.11 0 0 0-3.94.82q-5.27 2.01-12.66 8.98a65.39 65.39 0 0 0-3.82 3.9q-5.98 6.68-5.98 11.4a6.95 6.95 0 0 0 .1 1.2 4.85 4.85 0 0 0 .3.97q.62 1.4 2.04 1.43a2.96 2.96 0 0 0 .06 0 7.89 7.89 0 0 0 3.49-.95q4.55-2.28 10.92-10.02a105.47 105.47 0 0 0 1.39-1.73Zm-41.4.6 10.6-14.6a2.63 2.63 0 0 0-1.88-1.34 3.91 3.91 0 0 0-.72-.06 10.89 10.89 0 0 0-3.89.82q-5.2 2-12.57 8.95a98.79 98.79 0 0 0-.04.03 62.26 62.26 0 0 0-3.82 3.83q-5.98 6.6-5.98 11.44a7.37 7.37 0 0 0 .1 1.23 4.85 4.85 0 0 0 .3.97q.62 1.4 2.04 1.43a2.96 2.96 0 0 0 .06 0 7.89 7.89 0 0 0 3.49-.95q4.55-2.28 10.92-10.02a105.47 105.47 0 0 0 1.39-1.73Zm120.9 0 10.6-14.6a2.63 2.63 0 0 0-1.89-1.34 3.91 3.91 0 0 0-.71-.06 10.89 10.89 0 0 0-3.89.82q-5.2 2-12.57 8.95a98.79 98.79 0 0 0-.04.03 62.26 62.26 0 0 0-3.82 3.83q-5.98 6.6-5.98 11.44a7.37 7.37 0 0 0 .1 1.23 4.85 4.85 0 0 0 .3.97q.62 1.4 2.04 1.43a2.96 2.96 0 0 0 .06 0 7.89 7.89 0 0 0 3.49-.95q4.55-2.28 10.92-10.02a105.47 105.47 0 0 0 1.39-1.73Zm96.9 0 10.6-14.6a2.63 2.63 0 0 0-1.88-1.34 3.91 3.91 0 0 0-.72-.06 10.89 10.89 0 0 0-3.89.82q-5.2 2-12.57 8.95a98.79 98.79 0 0 0-.04.03 62.26 62.26 0 0 0-3.82 3.83q-5.98 6.6-5.98 11.44a7.37 7.37 0 0 0 .1 1.23 4.85 4.85 0 0 0 .3.97q.62 1.4 2.04 1.43a2.96 2.96 0 0 0 .06 0 7.89 7.89 0 0 0 3.49-.95q4.55-2.28 10.92-10.02a105.47 105.47 0 0 0 1.39-1.73Zm161.7 0 10.6-14.6a2.63 2.63 0 0 0-1.88-1.34 3.91 3.91 0 0 0-.72-.06 10.89 10.89 0 0 0-3.89.82q-5.2 2-12.57 8.95a98.79 98.79 0 0 0-.04.03 62.26 62.26 0 0 0-3.82 3.83q-5.98 6.6-5.98 11.44a7.37 7.37 0 0 0 .1 1.23 4.85 4.85 0 0 0 .3.97q.62 1.4 2.04 1.43a2.96 2.96 0 0 0 .06 0 7.89 7.89 0 0 0 3.49-.95q4.55-2.28 10.92-10.02a105.47 105.47 0 0 0 1.39-1.73Zm-131 11.6a13.7 13.7 0 0 0 4.44-.8q3.9-1.34 8.46-4.9a29.13 29.13 0 0 0 4.44-4.28q2.44-2.96 3.45-6.16a15.42 15.42 0 0 0 .71-4.66 4.34 4.34 0 0 0-.3-1.66q-.88-2.14-4.4-2.14-4.3 0-8 1.9a3.35 3.35 0 0 0-.54.29q-.82.52-2.16 1.78a41.98 41.98 0 0 0-.55.53q-2.25 2.2-5.95 6-7.9 8.2-7.9 10.5 0 1.57 2.51 2.61a12.05 12.05 0 0 0 .79.29q2.2.7 5 .7Zm-65.4-26.7.4-3.4a44.3 44.3 0 0 0-1.56 1.2q-1.83 1.5-4.24 3.7-3.5 3.2-6.9 6.7a87.2 87.2 0 0 0-1.5 1.59q-2.04 2.2-2.83 3.44a7.34 7.34 0 0 0-.07.12q-1 1.64-1.1 2.44a1.67 1.67 0 0 0 0 .01 11.53 11.53 0 0 0-.06.96q-.02 1.46.36 2.68a6.76 6.76 0 0 0 1.65 2.76 7.72 7.72 0 0 0 5.6 2.4 9.53 9.53 0 0 0 .15 0 7.92 7.92 0 0 0 1.67-.17q1.22-.26 2.13-.93a2.38 2.38 0 0 0 .62-.5q.78-.87 1.53-2.85.72-1.89 1.42-4.42a83.35 83.35 0 0 0 .63-2.43 76.83 76.83 0 0 0 1.2-6.43 70.28 70.28 0 0 0 .05-.42l.85-6.45Zm-83.1-5.1q-1.7 0-2.95-1.05a3.98 3.98 0 0 1-.74-.8 2.87 2.87 0 0 1-.51-1.65q0-2.55 2.93-2.86a8.27 8.27 0 0 1 .87-.04 4.25 4.25 0 0 1 1.7.37 6.03 6.03 0 0 1 1.1.63 4.1 4.1 0 0 1 .74.66 2.6 2.6 0 0 1 .66 1.74 2.16 2.16 0 0 1-.5 1.38q-.31.38-.8.72-1.04.72-2.01.86a3.31 3.31 0 0 1-.49.04Zm-21.3.2q-1.7 0-2.95-1.1a4.23 4.23 0 0 1-.73-.82 2.97 2.97 0 0 1-.52-1.68 2.88 2.88 0 0 1 .28-1.31q.6-1.2 2.54-1.44a8.35 8.35 0 0 1 .98-.05 4.46 4.46 0 0 1 1.77.38 6.17 6.17 0 0 1 1.03.57 3.89 3.89 0 0 1 .74.64 2.52 2.52 0 0 1 .66 1.71 2.22 2.22 0 0 1-.47 1.35q-.23.32-.58.6a4.92 4.92 0 0 1-.25.2 5.96 5.96 0 0 1-.9.55q-.54.26-1.06.35a3.16 3.16 0 0 1-.54.05Z" vector-effect="non-scaling-stroke" stroke-linecap="round" fill-rule="evenodd" font-size="12" stroke="#000" stroke-width=".945" style="stroke:#000;stroke-width:.25mm;fill:#000"/></svg>