<svg viewBox="0 0 591.5 94.914" xmlns="http://www.w3.org/2000/svg"><path d="M112.15 88.65a19.07 19.07 0 0 0 .17.07q2.75 1.18 5.18 1.18 1.17 0 2.1-.26a4.82 4.82 0 0 0 1.7-.84q.5-.5.2-1t-.8-.5q-.08 0-.36.13a7.07 7.07 0 0 0-.14.07q-1.3 1.1-2.8 1.1a2.45 2.45 0 0 1-1.5-.52 3.82 3.82 0 0 1-.65-.63 2.86 2.86 0 0 1-.31-.47q-.64-1.18-.64-3.48v-1q0-.5.1-1a18.29 18.29 0 0 1 .13-1.07q.63-4.1 3.27-10.43 2.06-4.95 5.7-11.63a250.3 250.3 0 0 1 3.65-6.42q6.35-10.85 16.55-25.95a65.94 65.94 0 0 0 1.56-2.44q.7-1.16 1.25-2.2a28.07 28.07 0 0 0 .99-2.06 25.34 25.34 0 0 0 .11-.26q1.09-2.62 1.09-4.34 0-.77-.17-1.39a3 3 0 0 0-1.13-1.66q-.85-.62-2.1-.84a8.27 8.27 0 0 0-1.4-.11q-2.49 0-5.7 1.04a36.82 36.82 0 0 0-3.3 1.26q-5.3 2.3-10.1 5.8a124.02 124.02 0 0 0-4.53 3.55 155.17 155.17 0 0 0-6.82 5.95 285.94 285.94 0 0 0-.73.68 261.26 261.26 0 0 0-10.32 10.12 164.6 164.6 0 0 0 1.2-2.06 141.6 141.6 0 0 0 2.8-5.09 102.62 102.62 0 0 0 .68-1.32q.71-1.42 1.3-2.7a55.69 55.69 0 0 0 .92-2.13q.82-2.03 1.25-3.93a17.7 17.7 0 0 0 .45-3.87 11.92 11.92 0 0 0-.2-2.25 8.63 8.63 0 0 0-1.45-3.45q-1.65-2.3-5.45-2.3-1.78 0-4.07.63a29.08 29.08 0 0 0-2.48.82q-3.85 1.45-8.95 4.75a77.67 77.67 0 0 0-2.27 1.56q-1.94 1.38-4.07 3.06a151.26 151.26 0 0 0-4.26 3.48 221.69 221.69 0 0 0-4.48 3.9 267.9 267.9 0 0 0-7.72 7.2q-6.3 6.1-12.4 12.5 4.2-5.2 8.55-10.3a1150.8 1150.8 0 0 0 .43-.5q4.06-4.77 6.72-8 3.1-3.8 5.65-8.6 1.2-2.25 1.83-4.39a16.52 16.52 0 0 0 .72-4.71q0-3.2-1.8-5.8-1.2-1.75-3.52-3a17.74 17.74 0 0 0-2.53-1.1 16.83 16.83 0 0 0-.2-.07q-2.88-.97-7.13-1.28a59.44 59.44 0 0 0-4.32-.15q-5.6 0-12.15.85-6.55.85-13.25 2.5t-13 4a89.49 89.49 0 0 0-4.56 1.84 72.85 72.85 0 0 0-6.84 3.41 22.77 22.77 0 0 0-.28.16q-3.79 2.15-5.62 5.14-1.9 3.1-1.9 5.9a8.95 8.95 0 0 0 .07 1.14 6.41 6.41 0 0 0 2.83 4.66 2.35 2.35 0 0 0 .32.16 1.79 1.79 0 0 0 .68.14 2.3 2.3 0 0 0 .06 0q.25 0 .36-.07a.14.14 0 0 0 .08-.13.3.3 0 0 0-.1-.23.43.43 0 0 0-.1-.07 10.96 10.96 0 0 1-.12-.08q-2.18-1.57-2.18-3.22 0-1.3 1.14-2.59a8.63 8.63 0 0 1 1.01-.96q1.38-1.12 3.4-2.22a39.65 39.65 0 0 1 2.45-1.23 75.48 75.48 0 0 1 2.87-1.25 92.14 92.14 0 0 1 5.23-1.95q2.7-.9 7.1-2.25 4.4-1.35 9.65-2.6t10.6-2.1a73.36 73.36 0 0 1 3.96-.52 59.23 59.23 0 0 1 6.09-.33q5.9 0 9.75 1.8 3.85 1.8 3.85 6.5a9.57 9.57 0 0 1 0 .16q-.04 2.37-1.24 5.45a33.22 33.22 0 0 1-1.36 2.99 57.14 57.14 0 0 1-.57 1.09q-2.49 4.63-6.38 9.91a237.28 237.28 0 0 1-.14.19 257.53 257.53 0 0 1-9.16 11.66q-4.95 5.95-9.25 11.25a122.8 122.8 0 0 0-.14.18q-4.2 5.28-5.1 7.64a3.15 3.15 0 0 0-.26 1.08q0 .8 1.45-.29a13 13 0 0 0 .4-.31q1.4-1.14 3.92-4.23a111.7 111.7 0 0 0 1.73-2.17.94.94 0 0 0 .4-.08 1.04 1.04 0 0 0 .3-.22 318.17 318.17 0 0 1 3-3.35 370.5 370.5 0 0 1 8.25-8.8q6.05-6.25 12.2-12.2a266.5 266.5 0 0 1 4.56-4.3 219.86 219.86 0 0 1 7.34-6.5 152.46 152.46 0 0 1 2.63-2.17q2.14-1.73 4.1-3.17a79.65 79.65 0 0 1 3.62-2.51 45.5 45.5 0 0 1 1.42-.86q.89-.51 1.68-.91a20.67 20.67 0 0 1 1.6-.73 18.97 18.97 0 0 1 .08-.03q1.27-.5 2.25-.68a5.58 5.58 0 0 1 .97-.09q.63 0 1.13.13a2.61 2.61 0 0 1 1.67 1.22q.53.89.7 2.14a9.91 9.91 0 0 1 .1 1.41q0 2.2-.6 4.8a16.03 16.03 0 0 1-.2.75q-.57 1.86-1.85 4.75-1.55 3.5-3.65 7.65-2.1 4.15-4.35 8.35-2.25 4.2-4.2 7.7-1.95 3.5-3.15 5.6l-1.2 2.1q-.5.9.16 1.57a2.23 2.23 0 0 0 .34.28 4.3 4.3 0 0 0 .7.39 4.44 4.44 0 0 0 1.8.36 4.47 4.47 0 0 0 .66-.05 5.34 5.34 0 0 0 .99-.25 2.85 2.85 0 0 0 .28-.11 2.15 2.15 0 0 0 .97-.89 194.76 194.76 0 0 0 .22-.32l3.98-5.93q2.9-4.35 6.2-9.65a305.19 305.19 0 0 1 2.3-2.5 355.37 355.37 0 0 1 6.3-6.6q4.6-4.7 9.5-9.15a144.03 144.03 0 0 1 3.65-3.2 120.02 120.02 0 0 1 5.95-4.75q2.5-1.9 5.25-3.1a19.14 19.14 0 0 1 1.45-.57q1.85-.63 3.3-.63a4.63 4.63 0 0 1 .98.1 3.23 3.23 0 0 1 1.32.6 2.05 2.05 0 0 1 .53.62q.2.36.3.83a4.47 4.47 0 0 1 .07.85q0 1.37-.78 3.48a26.68 26.68 0 0 1-.72 1.72 22.54 22.54 0 0 1-.23.49q-1.02 2.12-2.88 4.92a88.83 88.83 0 0 1-2.09 2.99q-7.7 10.8-12.65 18a409.58 409.58 0 0 0-.22.32q-3.26 4.75-5.55 8.38a128.79 128.79 0 0 0-1.93 3.15q-1.9 3.2-3.07 5.57a39.68 39.68 0 0 0-.93 1.98q-.8 1.86-1.23 3.37a14.93 14.93 0 0 0-.37 1.58q-.35 2.05-.45 4.15-.05.84.02 1.62a8.26 8.26 0 0 0 1.63 4.33q1.85 2.45 4.7 3.7Zm55.04 4.87a44 44 0 0 0 4.11.18q6.6 0 12.15-3a39.02 39.02 0 0 0 .04-.02 41.1 41.1 0 0 0 10.11-7.78q4.6-4.8 8.35-10.35a239.47 239.47 0 0 0 2.28-3.43 202.5 202.5 0 0 0 4.52-7.27 264.88 264.88 0 0 1 1.85-3.08q.9-1.48 1.75-2.81a152.11 152.11 0 0 1 1.95-3.01 31.82 31.82 0 0 1 .8-1.14q2.02-2.77 3.7-3.61a5.15 5.15 0 0 0 .02-.01q.78-.5.78-.89 0-.6-.62-1.17a4.17 4.17 0 0 0-.48-.38 12.8 12.8 0 0 0-.14-.1 13.84 13.84 0 0 0-2.26-1.2 16.84 16.84 0 0 0-.04-.02q-1.27-.53-1.86-.53-.4-1.3-1.25-2.25-.58-.65-1.62-1.38a19.75 19.75 0 0 0-1.03-.67 8.68 8.68 0 0 0-.54-.3 9.46 9.46 0 0 0-2.36-.85q-1.6-.35-3.3-.35a21.04 21.04 0 0 0-5.17.67 28.46 28.46 0 0 0-4.73 1.68 30.57 30.57 0 0 0-2.2 1.1 25.57 25.57 0 0 0-6.5 5.05 36.9 36.9 0 0 0-.66.72q-1.39 1.55-2.43 3.08a20.95 20.95 0 0 0-1.86 3.3 23.47 23.47 0 0 0-.38.92q-.54 1.36-.83 2.63a12.8 12.8 0 0 0-.34 2.85 9.58 9.58 0 0 0 .17 1.83 6.76 6.76 0 0 0 1.53 3.22 5.46 5.46 0 0 0 2.83 1.72 7.92 7.92 0 0 0 1.97.23 8.79 8.79 0 0 0 .28 0q.78-.03 1.63-.19a15 15 0 0 0 1.64-.41 14.13 14.13 0 0 0 .13-.04q.97-.31 2.01-.8a23.44 23.44 0 0 0 2.01-1.06 12.57 12.57 0 0 0 .2-.12q1.25-.8 3.1-2.38 2-1.7 4.2-3.8 2.2-2.1 4.15-4.15 1.95-2.05 3.25-3.45a69.85 69.85 0 0 0-2.88 4.13 92.09 92.09 0 0 0-3.22 5.37q-3 5.4-6.3 11t-7.25 10.35a38.57 38.57 0 0 1-.5.59 34.03 34.03 0 0 1-8.45 7.11 20.68 20.68 0 0 1-4.1 1.86 23.05 23.05 0 0 1-7.2 1.09q-2.98 0-5.33-.57a13.39 13.39 0 0 1-3.27-1.23 21.27 21.27 0 0 1-.4-.22q-1.35-.78-2.42-1.66a12.1 12.1 0 0 1-2.18-2.32q-1.7-2.4-2.35-4.4a78.07 78.07 0 0 1-.18-.56q-.37-1.16-.45-1.57a.99.99 0 0 1-.02-.17q-.13-.54-.5-.71a.91.91 0 0 0-.4-.09q-.25 0-.29.47a2.46 2.46 0 0 0-.01.23q0 1.31.67 3.02a17.81 17.81 0 0 0 .73 1.63 27.5 27.5 0 0 0 .39.73q.58 1.07 1.2 1.96a15.19 15.19 0 0 0 1.41 1.76 12.62 12.62 0 0 0 .17.17q1.3 1.25 3.06 2.23a20.45 20.45 0 0 0 3.17 1.4q2.56.9 5.99 1.22Zm334-26.08a5.57 5.57 0 0 0 .81.06q1.53 0 3.1-1.32a11.04 11.04 0 0 0 1.2-1.18q4-4.4 7.1-9.4 3.1-5 7.2-9.3a39.19 39.19 0 0 1 1.64-1.6q1.94-1.8 3.61-2.75a19.68 19.68 0 0 1 1.03-.55q1.6-.8 2.52-.8a2.63 2.63 0 0 1 .3.02q.9.1.9.88 0 .75-.73 1.73a8.46 8.46 0 0 1-.57.67q-1.5 1.7-3.55 4.15t-3.9 5.15a28.37 28.37 0 0 0-1.17 1.86 23.27 23.27 0 0 0-1.68 3.54q-.49 1.34-.68 2.46a8.01 8.01 0 0 0-.12 1.34 7.31 7.31 0 0 0 0 .11q.01.73.17 1.34a3.7 3.7 0 0 0 1.13 1.9q.83.74 2.04 1a6.81 6.81 0 0 0 1.46.15 9.5 9.5 0 0 0 .9-.04q2.23-.22 4.8-1.46a31.7 31.7 0 0 0 3.9-2.22 43.05 43.05 0 0 0 3.85-2.88q3.95-3.3 6.95-6.1a2.02 2.02 0 0 0 .23-.27 1.42 1.42 0 0 0 .27-.83q0-.5-.4-.5a.5.5 0 0 0-.12.02q-.18.04-.39.2a2.37 2.37 0 0 0-.19.18q-1.2 1.1-3.15 2.75t-3.9 3.2q-1.22.97-2.26 1.68a23.49 23.49 0 0 1-1.19.77 19.8 19.8 0 0 1-.93.52q-1.17.63-2.05.85a3.73 3.73 0 0 1-.92.13 2.37 2.37 0 0 1-.03 0q-.82-.01-1.01-.59a1.3 1.3 0 0 1-.06-.41 2.2 2.2 0 0 1 0-.17q.04-.46.26-1.07a9.11 9.11 0 0 1 .24-.61 5.82 5.82 0 0 1 .03-.07q.34-.76 1.04-1.72a20.63 20.63 0 0 1 .73-.96q1.1-1.5 2.4-3.4 1.3-1.9 2.4-3.55a32.4 32.4 0 0 0 .5-.76q.67-1.09.9-1.69a10.4 10.4 0 0 0 .59-1.42 7.95 7.95 0 0 0 .41-2.48 6.78 6.78 0 0 0-.02-.51 4.99 4.99 0 0 0-1.58-3.39 5.34 5.34 0 0 0-2.34-1.27 7.33 7.33 0 0 0-1.86-.23q-1.4 0-3.04.55a15.97 15.97 0 0 0-1.91.8q-1.68.82-3.33 2.3a23.7 23.7 0 0 0-2.12 2.15q-1.3 1.5-2.85 3.4t-3.05 3.9a40.49 40.49 0 0 0 .27-.72q.39-1.06.66-2.03a22.08 22.08 0 0 0 .47-1.9q.23-1.15.32-2.16a15.37 15.37 0 0 0 .08-1.49 15.45 15.45 0 0 0 0-.1q-.01-1.69-.4-2.85a4.54 4.54 0 0 0-.6-1.25 8.64 8.64 0 0 0-.43-.55q-.36-.43-.74-.75a4.08 4.08 0 0 0-.93-.6q-.3-.2-.8-.2a1.33 1.33 0 0 0-.33.04q-.41.1-.52.5a1.3 1.3 0 0 0-.05.36 1.23 1.23 0 0 0 0 .03q0 .25.12.45a1 1 0 0 0 .28.32q.4.23.48 1.08a5.2 5.2 0 0 1 .02.52 4.17 4.17 0 0 1 0 .26q-.04.48-.18 1a7.37 7.37 0 0 1-.32.94q-.9 1.91-2.39 3.78a27.51 27.51 0 0 1-2.66 2.87q-1.83 1.73-3.48 3.24a266.13 266.13 0 0 1-2.77 2.51q-.54.48-.72.86a.83.83 0 0 0-.08.34.59.59 0 0 0 .02.15q.04.18.22.23a.58.58 0 0 0 .16.02 1.16 1.16 0 0 0 .56-.14 1.47 1.47 0 0 0 .34-.26 50.86 50.86 0 0 0 .71-.57 57.16 57.16 0 0 0 3.09-2.73q1.9-1.8 3.5-3.4-2 3.1-4.3 6.2t-4.35 5.65q-2.05 2.55-3.15 4.05a11.8 11.8 0 0 0 .09.07q1.35 1.14 2.71 1.58.88.28 1.6.39Zm-15.97 2.76a5.92 5.92 0 0 0 1.28.7q.17.08.48.06a2.3 2.3 0 0 0 .12-.01.7.7 0 0 0 0 0q.36-.05.07-.37a1.6 1.6 0 0 0-.07-.08q-.8-.8-.8-2.2a7.32 7.32 0 0 1 .13-1.31q.14-.78.44-1.66a16.88 16.88 0 0 1 .73-1.73 35.88 35.88 0 0 1 .02-.04q.65-1.35 1.5-2.8a58.63 58.63 0 0 1 1.83-2.96q2.05-3.1 4.3-6.05 2.25-2.95 4.2-5.4 1.95-2.45 2.95-3.85-1.4-1.3-2.85-1.75a13 13 0 0 0-.51-.15q-1.14-.3-2.04-.3a4.03 4.03 0 0 0-1 .18q-.76.24-1.49.79a7.7 7.7 0 0 0-1.11 1.03q-.9 1-1.65 1.9a40.33 40.33 0 0 0-.38.47q-.68.83-1.67 2.13a76.96 76.96 0 0 1-.11.15q-1.66 2.24-3.89 4.9-2.3 2.75-4.6 5.15l-1.25 1.25q-.85.85-1.95 1.85a25.44 25.44 0 0 1-1.48 1.2 18.97 18.97 0 0 1-1.62 1.1 12 12 0 0 1-.65.36q-.65.34-1.14.47a2.07 2.07 0 0 1-.51.07 1.18 1.18 0 0 1-.3-.03q-.5-.14-.5-.77 0-.6.6-1.8a12.4 12.4 0 0 1 .1-.18q.6-1.16 1.8-2.92 1.7-2.3 3.55-4.75a28.19 28.19 0 0 0 1.08-1.54 23.52 23.52 0 0 0 1.87-3.41 11.22 11.22 0 0 0 .68-1.8 8.16 8.16 0 0 0 .32-2.2 6.7 6.7 0 0 0-.1-1.15 4.58 4.58 0 0 0-1.5-2.75 5.45 5.45 0 0 0-2.05-1.13 6.77 6.77 0 0 0-1.95-.27 8.05 8.05 0 0 0-1.47.14 10.75 10.75 0 0 0-1.53.41 9.33 9.33 0 0 0-1.3.57 11.26 11.26 0 0 0-1.8 1.18q-2.8 2.2-5.7 5.35-1.81 1.97-4.21 4.2a118.5 118.5 0 0 1-3.09 2.75 7.63 7.63 0 0 0-.03.02q-.87.79-.87 1.28a1.3 1.3 0 0 0 0 .08q.03.38.28.48a.59.59 0 0 0 .22.04.63.63 0 0 0 .2-.03q.2-.07.4-.27a37.26 37.26 0 0 0 1.13-.95q.6-.53 1.27-1.16a89.99 89.99 0 0 0 1.5-1.44q2.3-2.25 4.9-4.7a74.33 74.33 0 0 1 .17-.15q1.23-1.16 2.4-2.14a45.8 45.8 0 0 1 2.33-1.86 16.56 16.56 0 0 1 .98-.67q.95-.59 1.67-.8a2.62 2.62 0 0 1 .75-.13 2.37 2.37 0 0 1 .03 0q.82.01 1.01.59a1.3 1.3 0 0 1 .06.41 1.5 1.5 0 0 1-.06.41q-.14.48-.57 1.09a8.82 8.82 0 0 1-.47.6q-1.6 1.8-3.75 4.35a69.38 69.38 0 0 0 0 0 68.37 68.37 0 0 0-3.95 5.15 28.83 28.83 0 0 0-.76 1.15q-1.2 1.92-1.74 3.55-.7 2.1-.7 3.9 0 1.02.24 1.82a3.78 3.78 0 0 0 1.21 1.88 5.04 5.04 0 0 0 1.94 1 6.63 6.63 0 0 0 1.71.2q2.6 0 5.65-2.05 3.05-2.05 6.1-5.25t5.65-6.5q-1.4 2.9-2.3 5.85a22.25 22.25 0 0 0-.51 2 18.06 18.06 0 0 0-.39 3.65q0 2.05.51 3.32a3.65 3.65 0 0 0 .74 1.18 10.56 10.56 0 0 0 .24.24q.5.5 1.03.86Zm-144.56-2.48a17.52 17.52 0 0 0 3.74.38q4.3 0 8.4-1.65 4.1-1.65 7.95-4.25 3.85-2.6 7.15-5.55 3.3-2.95 6-5.55a1.99 1.99 0 0 0 .13-.14q.27-.33.27-.66 0-.39-.3-.47a.72.72 0 0 0-.2-.03.84.84 0 0 0-.26.04q-.27.1-.54.36-3.1 3.2-6.7 5.85-1.91 1.4-3.66 2.58a70.15 70.15 0 0 1-2.94 1.87q-2.25 1.35-3.6 1.97a10.14 10.14 0 0 1-.8.33q2.9-3.2 4.45-7.3a99.45 99.45 0 0 0 .1-.26 91.36 91.36 0 0 0 2.55-7.84 73.52 73.52 0 0 1 .15-.53q.51-1.82 1.07-3.44a43.9 43.9 0 0 1 1.18-3.03 11.85 11.85 0 0 1 .21-.47q1.27-2.61 3.39-3.53a.42.42 0 0 0 .02-.01q.36-.2-.57-.69-.95-.5-2.05-.6a3.57 3.57 0 0 0-.34-.07 2.79 2.79 0 0 0-.41-.03h-.75a12.4 12.4 0 0 0-3.31.45 14.9 14.9 0 0 0-3.59 1.55 34.84 34.84 0 0 0-2.59 1.69 42.32 42.32 0 0 0-4.11 3.36q-3.3 3.05-6.5 6.3a122.99 122.99 0 0 1-2.4 2.37 99.97 99.97 0 0 1-3.8 3.48 2.02 2.02 0 0 0-.23.27 1.42 1.42 0 0 0-.27.83.59.59 0 0 0 .02.15q.04.18.22.23a.58.58 0 0 0 .16.02q.4 0 1.2-.7 1.4-1.3 3.75-3.55t5.2-4.9q2.85-2.65 5.9-5.05a40.8 40.8 0 0 1 2.33-1.7 32.7 32.7 0 0 1 3.72-2.2 18.82 18.82 0 0 1 .8-.38q2.53-1.12 4.7-1.12a5.05 5.05 0 0 1 .24 0q.34.02.63.09a2.64 2.64 0 0 1 .63.21 6.68 6.68 0 0 0-.18.05q-1.68.53-3.6 2.07a23.57 23.57 0 0 0-1.77 1.58q-3.05 3-5.25 6.7a43.96 43.96 0 0 0-.4.64q-.6.97-1.22 2.1a79.12 79.12 0 0 0-1.33 2.51q-1.55 3.05-3.5 5.95a23.45 23.45 0 0 1-1.2 1.63 19.34 19.34 0 0 1-3.2 3.17q-2.45 1.9-5.65 1.9-1.9 0-3.5-.9a4.85 4.85 0 0 1-.59-.39q-.67-.52-1.21-1.3a8.79 8.79 0 0 1-.8-1.41 1.41 1.41 0 0 0 0 0q-.1-.45-.39-.41a.45.45 0 0 0-.06.01.51.51 0 0 0-.1.04q-.23.12-.15.46a15.63 15.63 0 0 0 .19.52q1.4 3.78 4.26 5.23a13.74 13.74 0 0 0 3.31 1.17Zm63.86 26.19a15 15 0 0 0 .58.89.46.46 0 0 0 .08.06q.17.11.37-.01a.3.3 0 0 0 .03-.02q.17-.13-.01-.43a1.39 1.39 0 0 0-.07-.1q-.16-.16-.2-.68a4.97 4.97 0 0 1 0-.32 5.13 5.13 0 0 1 .07-.82q.25-1.52 1.33-3.98a59.05 59.05 0 0 1 .7-1.56q1.25-2.62 3.05-5.84a174.78 174.78 0 0 1 1.84-3.2 210.1 210.1 0 0 1 3.41-5.6q2.9-4.6 5.95-9 3.05-4.4 5.75-7.8a27.58 27.58 0 0 0-.02.05q-.64 1.71-.99 3.3a16.87 16.87 0 0 0-.39 3.55 10.92 10.92 0 0 0 .03.8q.18 2.51 1.57 3.9a5.28 5.28 0 0 0 2.58 1.4 7.9 7.9 0 0 0 1.82.2q3.9 0 8.65-2.9t8.65-7.5a40.61 40.61 0 0 0 1.6-2.04 34.37 34.37 0 0 0 3.5-5.81q1-2.15 1.48-4.12a14.24 14.24 0 0 0 .42-3.33 9.14 9.14 0 0 0-.14-1.65 6.44 6.44 0 0 0-1.66-3.35 5.83 5.83 0 0 0-2.65-1.61 7.66 7.66 0 0 0-2.15-.29q-3.3 0-7.1 2.1a25.77 25.77 0 0 0-3.14 2.03 18.88 18.88 0 0 0-2.96 2.77q1.6-2.2 3.4-4.6 1.35-1.8 2.3-2.98a43.13 43.13 0 0 1 .6-.72 8.92 8.92 0 0 0-1.17-1.06 6.42 6.42 0 0 0-1.58-.89 11 11 0 0 0-.63-.22q-.5-.16-.97-.24a5.39 5.39 0 0 0-.95-.09 3.22 3.22 0 0 0-.83.1 3.58 3.58 0 0 0-1.07.5 8.9 8.9 0 0 0-.45.32q-.36.28-.75.63a18.98 18.98 0 0 0-.8.75 13.41 13.41 0 0 0-.4.43q-.92 1-2.3 2.82-.96 1.27-2.1 2.74a352.27 352.27 0 0 1-1.9 2.41q-3 3.8-5.8 6.75t-4.8 4.65a4.94 4.94 0 0 0-.21.19q-.44.4-.64.81a6.48 6.48 0 0 0-.03.07q-.16.33-.2.52a.54.54 0 0 0-.02.11.88.88 0 0 0 0 .1q.03.2.16.27a.32.32 0 0 0 .14.03.29.29 0 0 0 .02 0q.15-.01.42-.18a3.3 3.3 0 0 0 .16-.12 33.4 33.4 0 0 0 .62-.48 37.1 37.1 0 0 0 3.28-2.92q-3.1 4.8-6.15 10.15a209.18 209.18 0 0 0-1.67 2.98 179.99 179.99 0 0 0-3.83 7.37q-1.38 2.81-2.46 5.3a84.47 84.47 0 0 0-1.49 3.65 41.45 41.45 0 0 0-.48 1.33q-.67 1.97-.9 3.4a8.43 8.43 0 0 0-.12 1.32q0 2.6.75 4.1a29.06 29.06 0 0 0 .28.54q.3.57.6 1.06Zm-209.42-14.31v-.2a1.33 1.33 0 0 1 .02-.21q.06-.37.35-.39a.5.5 0 0 1 .03 0 .44.44 0 0 1 .33.16q.14.14.23.43a2.48 2.48 0 0 1 .04.11q1.1 5.6 5.4 9.1 4.3 3.5 9.9 3.5a14.8 14.8 0 0 0 3.44-.43q2.03-.48 4.26-1.52a38.52 38.52 0 0 0 4.76-2.65 49.75 49.75 0 0 0 3.74-2.7 79.53 79.53 0 0 0 6.86-6.12 89.99 89.99 0 0 0 1.54-1.58q4.1-4.3 7.5-9 .92-1.22 2.37-3.36a217.6 217.6 0 0 0 .93-1.39q2.1-3.15 4.35-6.95 2.25-3.8 3.75-7.2-.5.5-1.6 1.55a129.83 129.83 0 0 0-1.6 1.55 116.36 116.36 0 0 0-.5.5 47.51 47.51 0 0 1-.47.47q-.52.5-.9.84a11.68 11.68 0 0 1-.23.19.88.88 0 0 1-.04.04q-.07.06-.11.06h-.05q-.5 0-.5-.7a1 1 0 0 1 .2-.6q.1-.14.26-.26a2.03 2.03 0 0 1 .04-.04q.74-.64 2.28-2.18a161.76 161.76 0 0 0 .27-.27q1.75-1.75 3.25-3.95a11.35 11.35 0 0 0 .8-1.34q.36-.73.53-1.42a4.96 4.96 0 0 0 .17-1.24q0-1.2-1.2-1.7a.43.43 0 0 1-.1-.07.3.3 0 0 1-.1-.23q0-.7.8-.7a4.4 4.4 0 0 1 1.37.2 3.5 3.5 0 0 1 1.73 1.25 5 5 0 0 1 .8 1.65q.2.7.27 1.52a10.27 10.27 0 0 1 .03.78 16.3 16.3 0 0 1-.18 2.35q-.18 1.2-.52 2.56a34.63 34.63 0 0 1-.5 1.74 56.27 56.27 0 0 1-1.79 4.89 69.75 69.75 0 0 1-1.41 3.16q-2 4.2-4.3 8.2-2.3 4-4.45 7.15-2.05 3-3.6 4.7a19.16 19.16 0 0 1-.15.15 45.16 45.16 0 0 1-5.29 4.75 54.7 54.7 0 0 1-3.01 2.15q-4.8 3.2-10.15 5.1a32.28 32.28 0 0 1-8.58 1.83 29.71 29.71 0 0 1-2.07.07q-4.8 0-9.2-1.4-4.4-1.4-7.2-4.55a10.76 10.76 0 0 1-2.44-4.88 15.78 15.78 0 0 1-.36-3.47Zm-39.6-22.4.7-1.7q-2.6 3.2-5.2 5.35-2.6 2.15-5.2 3.75a23.44 23.44 0 0 1-2 1.07q-1.05.48-2.02.79a14.13 14.13 0 0 1-.13.04 15 15 0 0 1-1.64.41q-.85.16-1.63.19a8.79 8.79 0 0 1-.28 0 7.92 7.92 0 0 1-1.97-.23 5.46 5.46 0 0 1-2.83-1.72 6.76 6.76 0 0 1-1.53-3.22 9.58 9.58 0 0 1-.17-1.83 12.8 12.8 0 0 1 .34-2.85q.29-1.27.83-2.63a23.47 23.47 0 0 1 .38-.92 20.95 20.95 0 0 1 1.86-3.3q1.04-1.53 2.43-3.08a36.9 36.9 0 0 1 .66-.72 25.57 25.57 0 0 1 6.5-5.05 30.57 30.57 0 0 1 2.2-1.1 28.46 28.46 0 0 1 4.73-1.68 21.04 21.04 0 0 1 5.17-.67 14.64 14.64 0 0 1 3.11.32 10.87 10.87 0 0 1 3.39 1.33 9.9 9.9 0 0 1 1.9 1.48 7.29 7.29 0 0 1 1.7 2.67 5.22 5.22 0 0 1 .82.07q.84.14 1.92.53a16 16 0 0 1 .01 0q1.61.59 1.65 2.13a3.04 3.04 0 0 1 0 .07 2.71 2.71 0 0 1-.16.9q-.26.72-.9 1.55a9.2 9.2 0 0 1-.04.05q-.53.75-1.65 2.08a87.04 87.04 0 0 1-.8.92q-1.75 2-3.25 4.3a29.05 29.05 0 0 0-.95 1.53q-.56.95-.95 1.82-.7 1.55-.7 2.65 0 1.5 1.5 1.5a4.58 4.58 0 0 0 1.06-.14q1.57-.38 4.04-1.76 3.7-2.1 7.1-4.8 3.4-2.7 5.3-4.3a5.26 5.26 0 0 1 .18-.14q.36-.26.52-.26a.45.45 0 0 1 .18.03q.22.1.22.47a1.42 1.42 0 0 1-.27.83 2.02 2.02 0 0 1-.23.27 62.02 62.02 0 0 1-.52.45l-2.1 1.8a659.85 659.85 0 0 1-.88.75q-2.6 2.2-5.95 4.6a46.2 46.2 0 0 1-3.72 2.42 36.67 36.67 0 0 1-2.83 1.48 23.78 23.78 0 0 1-1.44.58q-.8.28-1.51.47-1.24.32-2.27.35a7.1 7.1 0 0 1-.18 0q-2.7 0-4.1-1.55a5.3 5.3 0 0 1-1.26-2.58 7.54 7.54 0 0 1-.14-1.47 7.46 7.46 0 0 1 .13-1.35 9.14 9.14 0 0 1 .17-.75q.3-1.1.7-2.2Zm131.8 0 .7-1.7q-2.6 3.2-5.2 5.35-2.6 2.15-5.2 3.75a23.44 23.44 0 0 1-2 1.07q-1.05.48-2.02.79a14.13 14.13 0 0 1-.13.04 15 15 0 0 1-1.64.41q-.85.16-1.63.19a8.79 8.79 0 0 1-.28 0 7.92 7.92 0 0 1-1.97-.23 5.46 5.46 0 0 1-2.83-1.72 6.76 6.76 0 0 1-1.53-3.22 9.58 9.58 0 0 1-.17-1.83 12.8 12.8 0 0 1 .34-2.85q.29-1.27.83-2.63a23.47 23.47 0 0 1 .38-.92 20.95 20.95 0 0 1 1.86-3.3q1.04-1.53 2.43-3.08a36.9 36.9 0 0 1 .66-.72 25.57 25.57 0 0 1 6.5-5.05 30.57 30.57 0 0 1 2.2-1.1 28.46 28.46 0 0 1 4.73-1.68 21.04 21.04 0 0 1 5.17-.67 14.64 14.64 0 0 1 3.11.32 10.87 10.87 0 0 1 3.39 1.33 9.9 9.9 0 0 1 1.9 1.48 7.29 7.29 0 0 1 1.7 2.67 5.22 5.22 0 0 1 .82.07q.84.14 1.92.53a16 16 0 0 1 .01 0q1.61.59 1.65 2.13a3.04 3.04 0 0 1 0 .07 2.71 2.71 0 0 1-.16.9q-.26.72-.9 1.55a9.2 9.2 0 0 1-.04.05q-.53.75-1.65 2.08a87.04 87.04 0 0 1-.8.92q-1.75 2-3.25 4.3a29.05 29.05 0 0 0-.95 1.53q-.56.95-.95 1.82-.7 1.55-.7 2.65 0 1.5 1.5 1.5a4.58 4.58 0 0 0 1.06-.14q1.57-.38 4.04-1.76 3.7-2.1 7.1-4.8 3.4-2.7 5.3-4.3a5.26 5.26 0 0 1 .18-.14q.36-.26.52-.26a.45.45 0 0 1 .18.03q.22.1.22.47a1.42 1.42 0 0 1-.27.83 2.02 2.02 0 0 1-.23.27 62.02 62.02 0 0 1-.51.45l-2.11 1.8a659.85 659.85 0 0 1-.88.75q-2.6 2.2-5.95 4.6a46.2 46.2 0 0 1-3.72 2.42 36.67 36.67 0 0 1-2.83 1.48 23.78 23.78 0 0 1-1.44.58q-.8.28-1.51.47-1.24.32-2.27.35a7.1 7.1 0 0 1-.18 0q-2.7 0-4.1-1.55a5.3 5.3 0 0 1-1.26-2.58 7.54 7.54 0 0 1-.14-1.47 7.46 7.46 0 0 1 .13-1.35 9.14 9.14 0 0 1 .17-.75q.3-1.1.7-2.2Zm105 0 .7-1.7q-2.6 3.2-5.2 5.35-2.6 2.15-5.2 3.75a23.44 23.44 0 0 1-2 1.07q-1.05.48-2.02.79a14.13 14.13 0 0 1-.13.04 15 15 0 0 1-1.64.41q-.85.16-1.63.19a8.79 8.79 0 0 1-.28 0 7.92 7.92 0 0 1-1.97-.23 5.46 5.46 0 0 1-2.83-1.72 6.76 6.76 0 0 1-1.53-3.22 9.58 9.58 0 0 1-.17-1.83 12.8 12.8 0 0 1 .34-2.85q.29-1.27.83-2.63a23.47 23.47 0 0 1 .38-.92 20.95 20.95 0 0 1 1.86-3.3q1.04-1.53 2.43-3.08a36.9 36.9 0 0 1 .66-.72 25.57 25.57 0 0 1 6.5-5.05 30.57 30.57 0 0 1 2.2-1.1 28.46 28.46 0 0 1 4.73-1.68 21.04 21.04 0 0 1 5.17-.67 14.64 14.64 0 0 1 3.11.32 10.87 10.87 0 0 1 3.39 1.33 9.9 9.9 0 0 1 1.9 1.48 7.29 7.29 0 0 1 1.7 2.67 5.22 5.22 0 0 1 .82.07q.84.14 1.92.53a16 16 0 0 1 .01 0q1.61.59 1.65 2.13a3.04 3.04 0 0 1 0 .07 2.71 2.71 0 0 1-.16.9q-.26.72-.9 1.55a9.2 9.2 0 0 1-.04.05q-.53.75-1.65 2.08a87.04 87.04 0 0 1-.8.92q-1.75 2-3.25 4.3a29.05 29.05 0 0 0-.95 1.53q-.56.95-.95 1.82-.7 1.55-.7 2.65 0 1.5 1.5 1.5a4.58 4.58 0 0 0 1.06-.14q1.57-.38 4.04-1.76 3.7-2.1 7.1-4.8 3.4-2.7 5.3-4.3a5.26 5.26 0 0 1 .18-.14q.36-.26.52-.26a.45.45 0 0 1 .18.03q.22.1.22.47a1.42 1.42 0 0 1-.27.83 2.02 2.02 0 0 1-.23.27 62.02 62.02 0 0 1-.51.45l-2.11 1.8a659.85 659.85 0 0 1-.88.75q-2.6 2.2-5.95 4.6a46.2 46.2 0 0 1-3.72 2.42 36.67 36.67 0 0 1-2.83 1.48 23.78 23.78 0 0 1-1.44.58q-.8.28-1.51.47-1.24.32-2.27.35a7.1 7.1 0 0 1-.18 0q-2.7 0-4.1-1.55a5.3 5.3 0 0 1-1.26-2.58 7.54 7.54 0 0 1-.14-1.47 7.46 7.46 0 0 1 .13-1.35 9.14 9.14 0 0 1 .17-.75q.3-1.1.7-2.2Zm172.8 0 .7-1.7q-2.6 3.2-5.2 5.35-2.6 2.15-5.2 3.75a23.44 23.44 0 0 1-2 1.07q-1.04.48-2.02.79a14.13 14.13 0 0 1-.13.04 15 15 0 0 1-1.64.41q-.85.16-1.63.19a8.79 8.79 0 0 1-.28 0 7.92 7.92 0 0 1-1.97-.23 5.46 5.46 0 0 1-2.83-1.72 6.76 6.76 0 0 1-1.53-3.22 9.58 9.58 0 0 1-.17-1.83 12.8 12.8 0 0 1 .34-2.85q.29-1.27.83-2.63a23.47 23.47 0 0 1 .38-.92 20.95 20.95 0 0 1 1.86-3.3q1.04-1.53 2.43-3.08a36.9 36.9 0 0 1 .66-.72 25.57 25.57 0 0 1 6.5-5.05 30.57 30.57 0 0 1 2.2-1.1 28.46 28.46 0 0 1 4.73-1.68 21.04 21.04 0 0 1 5.17-.67 14.64 14.64 0 0 1 3.11.32 10.87 10.87 0 0 1 3.39 1.33 9.9 9.9 0 0 1 1.9 1.48 7.29 7.29 0 0 1 1.7 2.67 5.22 5.22 0 0 1 .82.07q.84.14 1.92.53a16 16 0 0 1 .01 0q1.61.59 1.65 2.13a3.04 3.04 0 0 1 0 .07 2.71 2.71 0 0 1-.16.9q-.26.72-.9 1.55a9.2 9.2 0 0 1-.04.05q-.53.75-1.65 2.08a87.04 87.04 0 0 1-.8.92q-1.75 2-3.25 4.3a29.05 29.05 0 0 0-.95 1.53q-.56.95-.95 1.82-.7 1.55-.7 2.65 0 1.5 1.5 1.5a4.58 4.58 0 0 0 1.06-.14q1.57-.38 4.04-1.76 3.7-2.1 7.1-4.8 3.4-2.7 5.3-4.3a5.26 5.26 0 0 1 .18-.14q.36-.26.52-.26a.45.45 0 0 1 .17.03q.23.1.23.47a1.42 1.42 0 0 1-.27.83 2.02 2.02 0 0 1-.23.27 62.02 62.02 0 0 1-.51.45l-2.11 1.8a659.85 659.85 0 0 1-.88.75q-2.6 2.2-5.95 4.6a46.2 46.2 0 0 1-3.72 2.42 36.67 36.67 0 0 1-2.83 1.48 23.78 23.78 0 0 1-1.45.58q-.78.28-1.5.47-1.24.32-2.27.35a7.1 7.1 0 0 1-.18 0q-2.7 0-4.1-1.55a5.3 5.3 0 0 1-1.26-2.58 7.54 7.54 0 0 1-.14-1.47 7.46 7.46 0 0 1 .13-1.35 9.14 9.14 0 0 1 .17-.75q.3-1.1.7-2.2Zm-337.1 9.9q-4.1 0-5.55-1.75-1.45-1.75-1.45-3.95 0-1.8.6-3.45.45-1.24.8-1.95a6.48 6.48 0 0 1 .2-.4 14.75 14.75 0 0 1 .51-.8q.48-.69 1.14-1.5 1.05-1.3 2.35-2.8a144.48 144.48 0 0 0-2.75 2.4 123.9 123.9 0 0 0-1 .9q-1.75 1.6-2.85 2.4-.2.2-.4.27a.63.63 0 0 1-.2.03.45.45 0 0 1-.18-.03q-.22-.1-.22-.47a1.33 1.33 0 0 1 .2-.67q.24-.43.8-.85a5.46 5.46 0 0 1 .1-.08q2.6-2.2 5.05-4.8 2.45-2.6 4.65-4.85a27.6 27.6 0 0 1 1.33-1.27q1.35-1.22 2.49-1.83a7.88 7.88 0 0 1 .08-.05q1.8-1 2.9-1.3 1.1-.3 1.8-.3 1.1 0 1.6.35a1.17 1.17 0 0 1 .14.11q.3.3.08.62a.78.78 0 0 1-.02.02 19.46 19.46 0 0 0-1.48 1.67q-.7.9-1.4 1.95a33.94 33.94 0 0 0-.47.73q-1.65 2.65-3.05 5.55a49.66 49.66 0 0 0-1.4 3.17 38.85 38.85 0 0 0-.85 2.33q-.59 1.8-.77 3.22a9.36 9.36 0 0 0-.08 1.18 4.59 4.59 0 0 0 .08.91q.29 1.41 1.57 1.57a2.8 2.8 0 0 0 .35.02q1.7 0 4.3-1.39a23.95 23.95 0 0 0 .65-.36q3.05-1.75 6.4-4.45a162.97 162.97 0 0 0 4.58-3.83 140.22 140.22 0 0 0 1.67-1.47q.32-.32.58-.38a.5.5 0 0 1 .12-.02q.5 0 .55.5.05.5-.25.7a118.48 118.48 0 0 1-3.98 3.57 151.32 151.32 0 0 1-3.47 2.88q-4.15 3.35-8.3 5.65-4.15 2.3-7.55 2.3Zm-86.8-2.6a4.44 4.44 0 0 0 1.14-.17q1.15-.3 2.71-1.18a27.51 27.51 0 0 0 1.35-.8 30.35 30.35 0 0 0 2.47-1.76q1.24-.97 2.6-2.19a75.41 75.41 0 0 0 2.83-2.7q.5-.5 1.7-1.63a325.6 325.6 0 0 1 .55-.52q1.65-1.55 3.55-3.5a33.2 33.2 0 0 0 2.06-2.31 27 27 0 0 0 1.19-1.59 12.06 12.06 0 0 0 .64-1.02q.58-1.05.69-1.88a2.78 2.78 0 0 0 .02-.35 1.57 1.57 0 0 0-.96-1.5q-.82-.4-2.34-.4-2.9 0-6.95 2.25-4.05 2.25-7.75 6.65a75.73 75.73 0 0 0-2.17 2.7q-2.16 2.8-3.36 5.02a22.7 22.7 0 0 0-.02.03q-1.75 3.25-1.75 4.95a2.9 2.9 0 0 0 .09.74q.25.94 1.22 1.12a2.75 2.75 0 0 0 .49.04Zm131.8 0a4.44 4.44 0 0 0 1.14-.17q1.15-.3 2.71-1.18a27.51 27.51 0 0 0 1.35-.8 30.35 30.35 0 0 0 2.47-1.76q1.24-.97 2.6-2.19a75.41 75.41 0 0 0 2.83-2.7q.5-.5 1.7-1.63a325.6 325.6 0 0 1 .55-.52q1.65-1.55 3.55-3.5a33.2 33.2 0 0 0 2.06-2.31 27 27 0 0 0 1.19-1.59 12.06 12.06 0 0 0 .64-1.02q.58-1.05.69-1.88a2.78 2.78 0 0 0 .02-.35 1.57 1.57 0 0 0-.96-1.5q-.82-.4-2.34-.4-2.9 0-6.95 2.25-4.05 2.25-7.75 6.65a75.73 75.73 0 0 0-2.18 2.7q-2.15 2.8-3.35 5.02a22.7 22.7 0 0 0-.02.03q-1.75 3.25-1.75 4.95a2.9 2.9 0 0 0 .09.74q.25.94 1.22 1.12a2.75 2.75 0 0 0 .49.04Zm105 0a4.44 4.44 0 0 0 1.14-.17q1.15-.3 2.71-1.18a27.51 27.51 0 0 0 1.35-.8 30.35 30.35 0 0 0 2.47-1.76q1.24-.97 2.6-2.19a75.41 75.41 0 0 0 2.83-2.7q.5-.5 1.7-1.63a325.6 325.6 0 0 1 .55-.52q1.65-1.55 3.55-3.5a33.2 33.2 0 0 0 2.06-2.31 27 27 0 0 0 1.19-1.59 12.06 12.06 0 0 0 .64-1.02q.58-1.05.69-1.88a2.78 2.78 0 0 0 .02-.35 1.57 1.57 0 0 0-.96-1.5q-.82-.4-2.34-.4-2.9 0-6.95 2.25-4.05 2.25-7.75 6.65a75.73 75.73 0 0 0-2.18 2.7q-2.15 2.8-3.35 5.02a22.7 22.7 0 0 0-.02.03q-1.75 3.25-1.75 4.95a2.9 2.9 0 0 0 .09.74q.25.94 1.22 1.12a2.75 2.75 0 0 0 .49.04Zm172.8 0a4.44 4.44 0 0 0 1.14-.17q1.15-.3 2.71-1.18a27.51 27.51 0 0 0 1.35-.8 30.35 30.35 0 0 0 2.47-1.76q1.24-.97 2.6-2.19a75.41 75.41 0 0 0 2.83-2.7q.5-.5 1.7-1.63a325.6 325.6 0 0 1 .55-.52q1.65-1.55 3.55-3.5a33.2 33.2 0 0 0 2.06-2.31 27 27 0 0 0 1.19-1.59 12.06 12.06 0 0 0 .64-1.02q.58-1.05.69-1.88a2.78 2.78 0 0 0 .02-.35 1.57 1.57 0 0 0-.96-1.5q-.82-.4-2.34-.4-2.9 0-6.95 2.25-4.05 2.25-7.75 6.65a75.73 75.73 0 0 0-2.17 2.7q-2.16 2.8-3.36 5.02a22.7 22.7 0 0 0-.02.03q-1.75 3.25-1.75 4.95a2.9 2.9 0 0 0 .09.74q.25.94 1.22 1.12a2.75 2.75 0 0 0 .49.04Zm-362.5 0a5.2 5.2 0 0 0 1.48-.24q1.52-.45 3.42-1.76 1.9-1.29 4.08-3.13a73.72 73.72 0 0 0 .72-.62q2.6-2.25 5.1-4.75 2.15-2.15 3.78-4a59.76 59.76 0 0 0 .52-.6q2.51-2.9 3.11-4.97a4.44 4.44 0 0 0 .19-1.23q0-1.86-2.07-1.99a5.17 5.17 0 0 0-.33-.01 7.04 7.04 0 0 0-1.58.2q-2.07.48-5.02 2.1a21.84 21.84 0 0 0-2.16 1.35q-1.06.75-2.19 1.7a39.62 39.62 0 0 0-.75.65q-2.7 2.4-5.05 5.2a48.06 48.06 0 0 0-1.86 2.35q-.82 1.12-1.47 2.16a26.55 26.55 0 0 0-.42.69q-1.4 2.54-1.58 4.23a4.55 4.55 0 0 0-.02.47 3.33 3.33 0 0 0 .1.86q.36 1.34 2 1.34Zm243.2 3.1q2.9 0 5.75-1.85t5.15-4.85q2.3-3 3.7-6.4a20.04 20.04 0 0 0 1-3.07 14.63 14.63 0 0 0 .4-3.33 9.4 9.4 0 0 0-.13-1.64q-.17-.91-.52-1.63a4.64 4.64 0 0 0-.6-.93 4.09 4.09 0 0 0-2.79-1.46 5.85 5.85 0 0 0-.66-.04q-2.6 0-5.9 2.25a18.9 18.9 0 0 0-3.33 2.94q-1.4 1.54-2.67 3.51a22.15 22.15 0 0 0-1.89 3.28 18.03 18.03 0 0 0-.96 2.57 24.9 24.9 0 0 0-.55 2.29q-.22 1.15-.28 2.17a13.37 13.37 0 0 0-.02.79q0 2.7 1.04 3.97a3.06 3.06 0 0 0 .16.18 4.01 4.01 0 0 0 2.7 1.23 5.45 5.45 0 0 0 .4.02Zm-170.14-31.3a3.45 3.45 0 0 0 .84.1 5.02 5.02 0 0 0 2.68-.78 7.2 7.2 0 0 0 1.37-1.12 9.45 9.45 0 0 0 .1-.1q1.75-1.85 1.75-3.9a2.81 2.81 0 0 0-.2-1.06 3.51 3.51 0 0 0-.5-.84 2.23 2.23 0 0 0-1.26-.8 3.45 3.45 0 0 0-.84-.1q-2.1 0-4 1.95-.9.91-1.36 1.84a4.6 4.6 0 0 0-.54 2.11 2.81 2.81 0 0 0 .2 1.06 3.51 3.51 0 0 0 .5.84 2.23 2.23 0 0 0 1.26.8Zm-18.9 0a3.45 3.45 0 0 0 .84.1 5.02 5.02 0 0 0 2.67-.78 7.2 7.2 0 0 0 1.38-1.12 9.45 9.45 0 0 0 .1-.1q1.75-1.85 1.75-3.9a2.81 2.81 0 0 0-.2-1.06 3.51 3.51 0 0 0-.5-.84 2.23 2.23 0 0 0-1.26-.8 3.45 3.45 0 0 0-.84-.1q-2.1 0-4 1.95-.9.91-1.36 1.84a4.6 4.6 0 0 0-.54 2.11 2.81 2.81 0 0 0 .2 1.06 3.51 3.51 0 0 0 .5.84 2.23 2.23 0 0 0 1.26.8Z" vector-effect="non-scaling-stroke" stroke-linecap="round" fill-rule="evenodd" font-size="12" stroke="#000" stroke-width=".945" style="stroke:#000;stroke-width:.25mm;fill:#000"/></svg>