<svg width="591.5" height="94.914" viewBox="0 0 591.5 94.914" xmlns="http://www.w3.org/2000/svg"><g id="svgGroup" stroke-linecap="round" fill-rule="evenodd" font-size="9pt" stroke="#000" stroke-width="0.25mm" fill="black" style="stroke:#000;stroke-width:0.25mm;fill:black">
<path d="M 112.15 88.65 A 19.069 19.069 0 0 0 112.317 88.722 Q 115.073 89.9 117.5 89.9 Q 118.672 89.9 119.605 89.638 A 4.817 4.817 0 0 0 121.3 88.8 Q 121.8 88.3 121.5 87.8 Q 121.2 87.3 120.7 87.3 Q 120.619 87.3 120.339 87.432 A 7.069 7.069 0 0 0 120.2 87.5 Q 118.9 88.6 117.4 88.6 A 2.452 2.452 0 0 1 115.9 88.081 A 3.823 3.823 0 0 1 115.25 87.45 A 2.86 2.86 0 0 1 114.939 86.982 Q 114.3 85.796 114.3 83.5 L 114.3 82.5 Q 114.3 82 114.4 81.5 A 18.287 18.287 0 0 1 114.533 80.426 Q 115.16 76.336 117.8 70 Q 119.863 65.05 123.508 58.375 A 250.294 250.294 0 0 1 127.15 51.95 Q 133.5 41.1 143.7 26 A 65.944 65.944 0 0 0 145.256 23.559 Q 145.958 22.398 146.51 21.355 A 28.065 28.065 0 0 0 147.5 19.3 A 25.343 25.343 0 0 0 147.61 19.04 Q 148.7 16.416 148.7 14.7 Q 148.7 13.929 148.525 13.313 A 3.008 3.008 0 0 0 147.4 11.65 Q 146.547 11.027 145.306 10.812 A 8.271 8.271 0 0 0 143.9 10.7 Q 141.414 10.7 138.206 11.738 A 36.817 36.817 0 0 0 134.9 13 Q 129.6 15.3 124.8 18.8 A 124.02 124.02 0 0 0 120.274 22.346 A 155.174 155.174 0 0 0 113.45 28.3 A 285.943 285.943 0 0 0 112.721 28.975 A 261.261 261.261 0 0 0 102.4 39.1 A 164.595 164.595 0 0 0 103.606 37.039 A 141.604 141.604 0 0 0 106.4 31.95 A 102.616 102.616 0 0 0 107.076 30.631 Q 107.791 29.212 108.377 27.931 A 55.687 55.687 0 0 0 109.3 25.8 Q 110.123 23.766 110.548 21.872 A 17.694 17.694 0 0 0 111 18 A 11.918 11.918 0 0 0 110.796 15.746 A 8.625 8.625 0 0 0 109.35 12.3 Q 107.7 10 103.9 10 Q 102.118 10 99.834 10.632 A 29.081 29.081 0 0 0 97.35 11.45 Q 93.5 12.9 88.4 16.2 A 77.667 77.667 0 0 0 86.131 17.758 Q 84.185 19.143 82.056 20.817 A 151.257 151.257 0 0 0 77.8 24.3 A 221.685 221.685 0 0 0 73.319 28.205 A 267.904 267.904 0 0 0 65.6 35.4 Q 59.3 41.5 53.2 47.9 Q 57.4 42.7 61.75 37.6 A 1150.805 1150.805 0 0 0 62.179 37.096 Q 66.239 32.331 68.9 29.1 Q 72 25.3 74.55 20.5 Q 75.745 18.25 76.38 16.11 A 16.523 16.523 0 0 0 77.1 11.4 Q 77.1 8.2 75.3 5.6 Q 74.091 3.853 71.775 2.603 A 17.737 17.737 0 0 0 69.25 1.5 A 16.826 16.826 0 0 0 69.042 1.428 Q 66.173 0.458 61.917 0.147 A 59.441 59.441 0 0 0 57.6 0 Q 52 0 45.45 0.85 Q 38.9 1.7 32.2 3.35 Q 25.5 5 19.2 7.35 A 89.49 89.49 0 0 0 14.644 9.19 A 72.854 72.854 0 0 0 7.8 12.6 A 22.772 22.772 0 0 0 7.519 12.757 Q 3.733 14.91 1.9 17.9 Q 0 21 0 23.8 A 8.951 8.951 0 0 0 0.071 24.944 A 6.413 6.413 0 0 0 2.9 29.6 A 2.346 2.346 0 0 0 3.216 29.76 A 1.789 1.789 0 0 0 3.9 29.9 A 2.293 2.293 0 0 0 3.955 29.9 Q 4.212 29.893 4.321 29.828 A 0.144 0.144 0 0 0 4.4 29.7 A 0.301 0.301 0 0 0 4.303 29.47 A 0.432 0.432 0 0 0 4.2 29.4 A 10.961 10.961 0 0 1 4.08 29.316 Q 1.9 27.755 1.9 26.1 Q 1.9 24.792 3.035 23.511 A 8.626 8.626 0 0 1 4.05 22.55 Q 5.427 21.429 7.441 20.329 A 39.647 39.647 0 0 1 9.9 19.1 A 75.484 75.484 0 0 1 12.773 17.853 A 92.143 92.143 0 0 1 18 15.9 Q 20.7 15 25.1 13.65 Q 29.5 12.3 34.75 11.05 Q 40 9.8 45.35 8.95 A 73.36 73.36 0 0 1 49.311 8.428 A 59.232 59.232 0 0 1 55.4 8.1 Q 61.3 8.1 65.15 9.9 Q 69 11.7 69 16.4 A 9.573 9.573 0 0 1 68.999 16.562 Q 68.959 18.926 67.757 22.005 A 33.217 33.217 0 0 1 66.4 25 A 57.136 57.136 0 0 1 65.832 26.085 Q 63.341 30.722 59.45 36 A 237.277 237.277 0 0 1 59.314 36.185 A 257.53 257.53 0 0 1 50.15 47.85 Q 45.2 53.8 40.9 59.1 A 122.798 122.798 0 0 0 40.757 59.279 Q 36.566 64.558 35.654 66.915 A 3.151 3.151 0 0 0 35.4 68 Q 35.4 68.797 36.85 67.713 A 12.999 12.999 0 0 0 37.25 67.4 Q 38.652 66.263 41.174 63.174 A 111.7 111.7 0 0 0 42.9 61 A 0.94 0.94 0 0 0 43.291 60.918 A 1.045 1.045 0 0 0 43.6 60.7 A 318.166 318.166 0 0 1 46.592 57.354 A 370.497 370.497 0 0 1 54.85 48.55 Q 60.9 42.3 67.05 36.35 A 266.5 266.5 0 0 1 71.606 32.042 A 219.86 219.86 0 0 1 78.95 25.55 A 152.459 152.459 0 0 1 81.582 23.378 Q 83.723 21.653 85.688 20.21 A 79.653 79.653 0 0 1 89.3 17.7 A 45.494 45.494 0 0 1 90.724 16.838 Q 91.606 16.327 92.402 15.927 A 20.67 20.67 0 0 1 94 15.2 A 18.972 18.972 0 0 1 94.083 15.167 Q 95.347 14.669 96.327 14.494 A 5.582 5.582 0 0 1 97.3 14.4 Q 97.925 14.4 98.433 14.532 A 2.614 2.614 0 0 1 100.1 15.75 Q 100.625 16.636 100.805 17.888 A 9.914 9.914 0 0 1 100.9 19.3 Q 100.9 21.5 100.3 24.1 A 16.031 16.031 0 0 1 100.092 24.85 Q 99.528 26.715 98.25 29.6 Q 96.7 33.1 94.6 37.25 Q 92.5 41.4 90.25 45.6 Q 88 49.8 86.05 53.3 Q 84.1 56.8 82.9 58.9 L 81.7 61 Q 81.209 61.9 81.856 62.566 A 2.226 2.226 0 0 0 82.2 62.85 A 4.294 4.294 0 0 0 82.898 63.238 A 4.444 4.444 0 0 0 84.7 63.6 A 4.475 4.475 0 0 0 85.358 63.551 A 5.336 5.336 0 0 0 86.35 63.3 A 2.847 2.847 0 0 0 86.629 63.185 A 2.153 2.153 0 0 0 87.6 62.3 A 194.761 194.761 0 0 0 87.816 61.984 Q 89.129 60.056 91.8 56.05 Q 94.7 51.7 98 46.4 A 305.187 305.187 0 0 1 100.297 43.901 A 355.369 355.369 0 0 1 106.6 37.3 Q 111.2 32.6 116.1 28.15 A 144.029 144.029 0 0 1 119.747 24.946 A 120.015 120.015 0 0 1 125.7 20.2 Q 128.2 18.3 130.95 17.1 A 19.141 19.141 0 0 1 132.398 16.534 Q 134.247 15.9 135.7 15.9 A 4.627 4.627 0 0 1 136.68 15.999 A 3.231 3.231 0 0 1 138 16.6 A 2.049 2.049 0 0 1 138.529 17.217 Q 138.733 17.578 138.825 18.05 A 4.466 4.466 0 0 1 138.9 18.9 Q 138.9 20.273 138.117 22.377 A 26.68 26.68 0 0 1 137.4 24.1 A 22.537 22.537 0 0 1 137.17 24.59 Q 136.146 26.706 134.286 29.506 A 88.833 88.833 0 0 1 132.2 32.5 Q 124.5 43.3 119.55 50.5 A 409.577 409.577 0 0 0 119.332 50.818 Q 116.071 55.571 113.784 59.195 A 128.79 128.79 0 0 0 111.85 62.35 Q 109.959 65.547 108.778 67.917 A 39.68 39.68 0 0 0 107.85 69.9 Q 107.049 71.758 106.618 73.267 A 14.932 14.932 0 0 0 106.25 74.85 Q 105.9 76.9 105.8 79 Q 105.752 79.838 105.822 80.616 A 8.26 8.26 0 0 0 107.45 84.95 Q 109.3 87.4 112.15 88.65 Z M 167.187 93.519 A 43.996 43.996 0 0 0 171.3 93.7 Q 177.9 93.7 183.45 90.7 A 39.024 39.024 0 0 0 183.493 90.677 A 41.095 41.095 0 0 0 193.6 82.9 Q 198.2 78.1 201.95 72.55 A 239.47 239.47 0 0 0 204.225 69.12 A 202.504 202.504 0 0 0 208.75 61.85 A 264.879 264.879 0 0 1 210.603 58.768 Q 211.502 57.295 212.348 55.96 A 152.11 152.11 0 0 1 214.3 52.95 A 31.822 31.822 0 0 1 215.092 51.815 Q 217.122 49.039 218.8 48.2 A 5.152 5.152 0 0 0 218.822 48.186 Q 219.6 47.695 219.6 47.3 Q 219.6 46.7 218.981 46.128 A 4.166 4.166 0 0 0 218.5 45.75 A 12.805 12.805 0 0 0 218.362 45.657 A 13.844 13.844 0 0 0 216.1 44.45 A 16.843 16.843 0 0 0 216.057 44.432 Q 214.79 43.9 214.2 43.9 Q 213.8 42.6 212.95 41.65 Q 212.366 40.997 211.332 40.273 A 19.755 19.755 0 0 0 210.3 39.6 A 8.675 8.675 0 0 0 209.76 39.294 A 9.461 9.461 0 0 0 207.4 38.45 Q 205.8 38.1 204.1 38.1 A 21.044 21.044 0 0 0 198.926 38.773 A 28.458 28.458 0 0 0 194.2 40.45 A 30.567 30.567 0 0 0 192.006 41.548 A 25.568 25.568 0 0 0 185.5 46.6 A 36.896 36.896 0 0 0 184.841 47.316 Q 183.453 48.866 182.41 50.397 A 20.946 20.946 0 0 0 180.55 53.7 A 23.474 23.474 0 0 0 180.166 54.619 Q 179.63 55.982 179.341 57.25 A 12.806 12.806 0 0 0 179 60.1 A 9.582 9.582 0 0 0 179.167 61.928 A 6.765 6.765 0 0 0 180.7 65.15 A 5.459 5.459 0 0 0 183.534 66.87 A 7.916 7.916 0 0 0 185.5 67.1 A 8.786 8.786 0 0 0 185.784 67.096 Q 186.558 67.071 187.411 66.91 A 15.006 15.006 0 0 0 189.05 66.5 A 14.134 14.134 0 0 0 189.18 66.46 Q 190.155 66.149 191.192 65.665 A 23.444 23.444 0 0 0 193.2 64.6 A 12.57 12.57 0 0 0 193.392 64.479 Q 194.645 63.677 196.5 62.1 Q 198.5 60.4 200.7 58.3 Q 202.9 56.2 204.85 54.15 Q 206.8 52.1 208.1 50.7 A 69.851 69.851 0 0 0 205.216 54.83 A 92.088 92.088 0 0 0 202 60.2 Q 199 65.6 195.7 71.2 Q 192.4 76.8 188.45 81.55 A 38.566 38.566 0 0 1 187.952 82.137 A 34.031 34.031 0 0 1 179.5 89.25 A 20.683 20.683 0 0 1 175.395 91.105 A 23.054 23.054 0 0 1 168.2 92.2 Q 165.217 92.2 162.868 91.63 A 13.39 13.39 0 0 1 159.6 90.4 A 21.268 21.268 0 0 1 159.2 90.177 Q 157.846 89.4 156.779 88.516 A 12.101 12.101 0 0 1 154.6 86.2 Q 152.9 83.8 152.25 81.8 A 78.068 78.068 0 0 1 152.071 81.243 Q 151.704 80.083 151.623 79.672 A 0.99 0.99 0 0 1 151.6 79.5 Q 151.466 78.963 151.106 78.786 A 0.911 0.911 0 0 0 150.7 78.7 Q 150.454 78.7 150.41 79.171 A 2.465 2.465 0 0 0 150.4 79.4 Q 150.4 80.71 151.066 82.424 A 17.813 17.813 0 0 0 151.8 84.05 A 27.499 27.499 0 0 0 152.187 84.783 Q 152.772 85.852 153.391 86.744 A 15.189 15.189 0 0 0 154.8 88.5 A 12.617 12.617 0 0 0 154.972 88.669 Q 156.276 89.924 158.032 90.898 A 20.455 20.455 0 0 0 161.2 92.3 Q 163.763 93.197 167.187 93.519 Z M 501.194 67.437 A 5.572 5.572 0 0 0 502 67.5 Q 503.526 67.5 505.104 66.18 A 11.043 11.043 0 0 0 506.3 65 Q 510.3 60.6 513.4 55.6 Q 516.5 50.6 520.6 46.3 A 39.186 39.186 0 0 1 522.237 44.698 Q 524.182 42.908 525.85 41.95 A 19.683 19.683 0 0 1 526.876 41.398 Q 528.478 40.6 529.4 40.6 A 2.625 2.625 0 0 1 529.692 40.615 Q 530.6 40.717 530.6 41.5 Q 530.6 42.25 529.869 43.225 A 8.456 8.456 0 0 1 529.3 43.9 Q 527.8 45.6 525.75 48.05 Q 523.7 50.5 521.85 53.2 A 28.367 28.367 0 0 0 520.679 55.056 A 23.27 23.27 0 0 0 519 58.6 Q 518.513 59.941 518.322 61.059 A 8.013 8.013 0 0 0 518.2 62.4 A 7.313 7.313 0 0 0 518.201 62.511 Q 518.212 63.237 518.368 63.846 A 3.699 3.699 0 0 0 519.5 65.75 Q 520.333 66.487 521.537 66.752 A 6.812 6.812 0 0 0 523 66.9 A 9.505 9.505 0 0 0 523.906 66.856 Q 526.131 66.643 528.7 65.4 A 31.704 31.704 0 0 0 532.598 63.185 A 43.047 43.047 0 0 0 536.45 60.3 Q 540.4 57 543.4 54.2 A 2.025 2.025 0 0 0 543.63 53.927 A 1.42 1.42 0 0 0 543.9 53.1 Q 543.9 52.6 543.5 52.6 A 0.508 0.508 0 0 0 543.381 52.615 Q 543.203 52.658 542.994 52.825 A 2.371 2.371 0 0 0 542.8 53 Q 541.6 54.1 539.65 55.75 Q 537.7 57.4 535.75 58.95 Q 534.531 59.919 533.488 60.634 A 23.488 23.488 0 0 1 532.3 61.4 A 19.805 19.805 0 0 1 531.374 61.924 Q 530.199 62.546 529.315 62.771 A 3.733 3.733 0 0 1 528.4 62.9 A 2.37 2.37 0 0 1 528.369 62.9 Q 527.554 62.889 527.36 62.313 A 1.297 1.297 0 0 1 527.3 61.9 A 2.201 2.201 0 0 1 527.307 61.726 Q 527.343 61.274 527.558 60.661 A 9.11 9.11 0 0 1 527.8 60.05 A 5.82 5.82 0 0 1 527.829 59.984 Q 528.174 59.218 528.866 58.256 A 20.632 20.632 0 0 1 529.6 57.3 Q 530.7 55.8 532 53.9 Q 533.3 52 534.4 50.35 A 32.398 32.398 0 0 0 534.893 49.59 Q 535.574 48.503 535.8 47.9 A 10.4 10.4 0 0 0 536.39 46.476 A 7.953 7.953 0 0 0 536.8 44 A 6.782 6.782 0 0 0 536.781 43.486 A 4.989 4.989 0 0 0 535.2 40.1 A 5.337 5.337 0 0 0 532.861 38.825 A 7.327 7.327 0 0 0 531 38.6 Q 529.591 38.6 527.956 39.154 A 15.972 15.972 0 0 0 526.05 39.95 Q 524.374 40.773 522.717 42.245 A 23.693 23.693 0 0 0 520.6 44.4 Q 519.3 45.9 517.75 47.8 Q 516.2 49.7 514.7 51.7 A 40.489 40.489 0 0 0 514.969 50.98 Q 515.356 49.916 515.635 48.949 A 22.076 22.076 0 0 0 516.1 47.05 Q 516.325 45.897 516.423 44.886 A 15.367 15.367 0 0 0 516.5 43.4 A 15.446 15.446 0 0 0 516.5 43.291 Q 516.488 41.613 516.109 40.447 A 4.545 4.545 0 0 0 515.5 39.2 A 8.64 8.64 0 0 0 515.071 38.646 Q 514.709 38.218 514.335 37.903 A 4.075 4.075 0 0 0 513.4 37.3 Q 513.1 37.1 512.6 37.1 A 1.326 1.326 0 0 0 512.267 37.139 Q 511.859 37.245 511.745 37.644 A 1.296 1.296 0 0 0 511.7 38 A 1.225 1.225 0 0 0 511.7 38.034 Q 511.707 38.283 511.816 38.481 A 1.004 1.004 0 0 0 512.1 38.8 Q 512.491 39.035 512.576 39.881 A 5.209 5.209 0 0 1 512.6 40.4 A 4.165 4.165 0 0 1 512.592 40.663 Q 512.561 41.139 512.424 41.658 A 7.372 7.372 0 0 1 512.1 42.6 Q 511.2 44.513 509.715 46.378 A 27.512 27.512 0 0 1 507.05 49.25 Q 505.217 50.977 503.568 52.492 A 266.129 266.129 0 0 1 500.8 55 Q 500.256 55.476 500.082 55.859 A 0.826 0.826 0 0 0 500 56.2 A 0.589 0.589 0 0 0 500.017 56.348 Q 500.064 56.53 500.242 56.58 A 0.576 0.576 0 0 0 500.4 56.6 A 1.16 1.16 0 0 0 500.959 56.459 A 1.474 1.474 0 0 0 501.3 56.2 A 50.864 50.864 0 0 0 502.013 55.627 A 57.162 57.162 0 0 0 505.1 52.9 Q 507 51.1 508.6 49.5 Q 506.6 52.6 504.3 55.7 Q 502 58.8 499.95 61.35 Q 497.9 63.9 496.8 65.4 A 11.797 11.797 0 0 0 496.886 65.473 Q 498.243 66.614 499.6 67.05 Q 500.475 67.331 501.194 67.437 Z M 485.218 70.204 A 5.924 5.924 0 0 0 486.5 70.9 Q 486.669 70.985 486.98 70.962 A 2.305 2.305 0 0 0 487.1 70.95 A 0.705 0.705 0 0 0 487.103 70.95 Q 487.458 70.904 487.173 70.578 A 1.602 1.602 0 0 0 487.1 70.5 Q 486.3 69.7 486.3 68.3 A 7.323 7.323 0 0 1 486.426 66.987 Q 486.569 66.205 486.873 65.335 A 16.876 16.876 0 0 1 487.6 63.6 A 35.885 35.885 0 0 1 487.621 63.557 Q 488.274 62.206 489.114 60.755 A 58.628 58.628 0 0 1 490.95 57.8 Q 493 54.7 495.25 51.75 Q 497.5 48.8 499.45 46.35 Q 501.4 43.9 502.4 42.5 Q 501 41.2 499.55 40.75 A 12.998 12.998 0 0 0 499.038 40.602 Q 497.901 40.3 497 40.3 A 4.029 4.029 0 0 0 495.995 40.483 Q 495.236 40.723 494.51 41.268 A 7.708 7.708 0 0 0 493.4 42.3 Q 492.5 43.3 491.75 44.2 A 40.325 40.325 0 0 0 491.368 44.666 Q 490.695 45.499 489.7 46.8 A 76.961 76.961 0 0 1 489.59 46.949 Q 487.926 49.189 485.7 51.85 Q 483.4 54.6 481.1 57 L 479.85 58.25 Q 479 59.1 477.9 60.1 A 25.44 25.44 0 0 1 476.422 61.303 A 18.973 18.973 0 0 1 474.8 62.4 A 11.996 11.996 0 0 1 474.154 62.763 Q 473.495 63.105 473.005 63.229 A 2.074 2.074 0 0 1 472.5 63.3 A 1.179 1.179 0 0 1 472.204 63.266 Q 471.7 63.135 471.7 62.5 Q 471.7 61.9 472.3 60.7 A 12.397 12.397 0 0 1 472.391 60.522 Q 472.994 59.362 474.2 57.6 Q 475.9 55.3 477.75 52.85 A 28.187 28.187 0 0 0 478.833 51.314 A 23.515 23.515 0 0 0 480.7 47.9 A 11.216 11.216 0 0 0 481.384 46.101 A 8.159 8.159 0 0 0 481.7 43.9 A 6.704 6.704 0 0 0 481.606 42.754 A 4.577 4.577 0 0 0 480.1 40 A 5.451 5.451 0 0 0 478.047 38.868 A 6.774 6.774 0 0 0 476.1 38.6 A 8.055 8.055 0 0 0 474.627 38.742 A 10.752 10.752 0 0 0 473.1 39.15 A 9.327 9.327 0 0 0 471.792 39.717 A 11.259 11.259 0 0 0 470 40.9 Q 467.2 43.1 464.3 46.25 Q 462.488 48.219 460.089 50.442 A 118.505 118.505 0 0 1 457 53.2 A 7.632 7.632 0 0 0 456.974 53.224 Q 456.1 54.008 456.1 54.5 A 1.292 1.292 0 0 0 456.103 54.584 Q 456.127 54.963 456.384 55.064 A 0.589 0.589 0 0 0 456.6 55.1 A 0.629 0.629 0 0 0 456.799 55.067 Q 456.999 55.001 457.2 54.8 A 37.259 37.259 0 0 0 458.325 53.845 Q 458.926 53.316 459.601 52.685 A 89.988 89.988 0 0 0 461.1 51.25 Q 463.4 49 466 46.55 A 74.334 74.334 0 0 1 466.165 46.395 Q 467.398 45.24 468.563 44.255 A 45.809 45.809 0 0 1 470.9 42.4 A 16.556 16.556 0 0 1 471.882 41.734 Q 472.831 41.144 473.546 40.927 A 2.62 2.62 0 0 1 474.3 40.8 A 2.37 2.37 0 0 1 474.331 40.8 Q 475.146 40.811 475.34 41.387 A 1.297 1.297 0 0 1 475.4 41.8 A 1.501 1.501 0 0 1 475.337 42.212 Q 475.2 42.689 474.768 43.3 A 8.817 8.817 0 0 1 474.3 43.9 Q 472.7 45.7 470.55 48.25 A 69.382 69.382 0 0 0 470.546 48.255 A 68.373 68.373 0 0 0 466.6 53.4 A 28.834 28.834 0 0 0 465.844 54.548 Q 464.642 56.474 464.1 58.1 Q 463.4 60.2 463.4 62 Q 463.4 63.016 463.639 63.817 A 3.78 3.78 0 0 0 464.85 65.7 A 5.035 5.035 0 0 0 466.792 66.691 A 6.631 6.631 0 0 0 468.5 66.9 Q 471.1 66.9 474.15 64.85 Q 477.2 62.8 480.25 59.6 Q 483.3 56.4 485.9 53.1 Q 484.5 56 483.6 58.95 A 22.254 22.254 0 0 0 483.088 60.949 A 18.062 18.062 0 0 0 482.7 64.6 Q 482.7 66.65 483.213 67.92 A 3.651 3.651 0 0 0 483.95 69.1 A 10.559 10.559 0 0 0 484.186 69.338 Q 484.697 69.837 485.218 70.204 Z M 340.665 67.719 A 17.516 17.516 0 0 0 344.4 68.1 Q 348.7 68.1 352.8 66.45 Q 356.9 64.8 360.75 62.2 Q 364.6 59.6 367.9 56.65 Q 371.2 53.7 373.9 51.1 A 1.99 1.99 0 0 0 374.026 50.963 Q 374.3 50.631 374.3 50.3 Q 374.3 49.912 373.998 49.825 A 0.72 0.72 0 0 0 373.8 49.8 A 0.838 0.838 0 0 0 373.535 49.844 Q 373.267 49.933 373 50.2 Q 369.9 53.4 366.3 56.05 Q 364.388 57.458 362.644 58.626 A 70.153 70.153 0 0 1 359.7 60.5 Q 357.45 61.85 356.1 62.469 A 10.136 10.136 0 0 1 355.3 62.8 Q 358.2 59.6 359.75 55.5 A 99.448 99.448 0 0 0 359.846 55.244 A 91.363 91.363 0 0 0 362.4 47.4 A 73.518 73.518 0 0 1 362.547 46.873 Q 363.064 45.045 363.625 43.432 A 43.907 43.907 0 0 1 364.8 40.4 A 11.846 11.846 0 0 1 365.014 39.934 Q 366.284 37.32 368.4 36.4 A 0.42 0.42 0 0 0 368.419 36.39 Q 368.777 36.188 367.85 35.7 Q 366.9 35.2 365.8 35.1 A 3.572 3.572 0 0 0 365.46 35.032 A 2.785 2.785 0 0 0 365.05 35 L 364.3 35 A 12.398 12.398 0 0 0 360.987 35.454 A 14.892 14.892 0 0 0 357.4 37 A 34.842 34.842 0 0 0 354.812 38.685 A 42.324 42.324 0 0 0 350.7 42.05 Q 347.4 45.1 344.2 48.35 A 122.986 122.986 0 0 1 341.804 50.72 A 99.969 99.969 0 0 1 338 54.2 A 2.025 2.025 0 0 0 337.77 54.473 A 1.42 1.42 0 0 0 337.5 55.3 A 0.589 0.589 0 0 0 337.517 55.448 Q 337.564 55.63 337.742 55.68 A 0.576 0.576 0 0 0 337.9 55.7 Q 338.3 55.7 339.1 55 Q 340.5 53.7 342.85 51.45 Q 345.2 49.2 348.05 46.55 Q 350.9 43.9 353.95 41.5 A 40.804 40.804 0 0 1 356.278 39.795 A 32.699 32.699 0 0 1 360 37.6 A 18.822 18.822 0 0 1 360.794 37.225 Q 363.335 36.1 365.5 36.1 A 5.051 5.051 0 0 1 365.736 36.106 Q 366.077 36.122 366.372 36.185 A 2.643 2.643 0 0 1 367 36.4 A 6.683 6.683 0 0 0 366.819 36.454 Q 365.138 36.976 363.212 38.522 A 23.573 23.573 0 0 0 361.45 40.1 Q 358.4 43.1 356.2 46.8 A 43.957 43.957 0 0 0 355.803 47.436 Q 355.204 48.414 354.578 49.544 A 79.124 79.124 0 0 0 353.25 52.05 Q 351.7 55.1 349.75 58 A 23.454 23.454 0 0 1 348.548 59.634 A 19.338 19.338 0 0 1 345.35 62.8 Q 342.9 64.7 339.7 64.7 Q 337.8 64.7 336.2 63.8 A 4.852 4.852 0 0 1 335.613 63.411 Q 334.944 62.894 334.396 62.114 A 8.785 8.785 0 0 1 333.6 60.7 A 1.41 1.41 0 0 0 333.599 60.695 Q 333.507 60.246 333.212 60.287 A 0.449 0.449 0 0 0 333.15 60.3 A 0.514 0.514 0 0 0 333.05 60.34 Q 332.816 60.464 332.9 60.8 A 15.628 15.628 0 0 0 333.085 61.324 Q 334.494 65.099 337.35 66.55 A 13.74 13.74 0 0 0 340.665 67.719 Z M 404.523 93.905 A 14.996 14.996 0 0 0 405.1 94.8 A 0.458 0.458 0 0 0 405.181 94.865 Q 405.349 94.971 405.55 94.85 A 0.308 0.308 0 0 0 405.578 94.831 Q 405.753 94.698 405.57 94.401 A 1.389 1.389 0 0 0 405.5 94.3 Q 405.343 94.143 405.309 93.616 A 4.973 4.973 0 0 1 405.3 93.3 A 5.129 5.129 0 0 1 405.375 92.477 Q 405.623 90.962 406.7 88.5 A 59.047 59.047 0 0 1 407.408 86.945 Q 408.651 84.316 410.45 81.1 A 174.781 174.781 0 0 1 412.29 77.894 A 210.103 210.103 0 0 1 415.7 72.3 Q 418.6 67.7 421.65 63.3 Q 424.7 58.9 427.4 55.5 A 27.584 27.584 0 0 0 427.38 55.554 Q 426.738 57.26 426.395 58.859 A 16.872 16.872 0 0 0 426 62.4 A 10.92 10.92 0 0 0 426.028 63.192 Q 426.211 65.711 427.6 67.1 A 5.282 5.282 0 0 0 430.18 68.502 A 7.903 7.903 0 0 0 432 68.7 Q 435.9 68.7 440.65 65.8 Q 445.4 62.9 449.3 58.3 A 40.612 40.612 0 0 0 450.908 56.264 A 34.371 34.371 0 0 0 454.4 50.45 Q 455.409 48.299 455.883 46.33 A 14.245 14.245 0 0 0 456.3 43 A 9.142 9.142 0 0 0 456.158 41.351 A 6.442 6.442 0 0 0 454.5 38 A 5.833 5.833 0 0 0 451.851 36.387 A 7.662 7.662 0 0 0 449.7 36.1 Q 446.4 36.1 442.6 38.2 A 25.77 25.77 0 0 0 439.464 40.226 A 18.875 18.875 0 0 0 436.5 43 Q 438.1 40.8 439.9 38.4 Q 441.25 36.6 442.206 35.419 A 43.135 43.135 0 0 1 442.8 34.7 A 8.923 8.923 0 0 0 441.634 33.638 A 6.421 6.421 0 0 0 440.05 32.75 A 11.007 11.007 0 0 0 439.422 32.533 Q 438.913 32.374 438.452 32.291 A 5.386 5.386 0 0 0 437.5 32.2 A 3.219 3.219 0 0 0 436.674 32.307 A 3.583 3.583 0 0 0 435.6 32.8 A 8.892 8.892 0 0 0 435.149 33.123 Q 434.787 33.398 434.397 33.745 A 18.978 18.978 0 0 0 433.6 34.5 A 13.413 13.413 0 0 0 433.194 34.926 Q 432.276 35.929 430.9 37.75 Q 429.944 39.016 428.798 40.487 A 352.269 352.269 0 0 1 426.9 42.9 Q 423.9 46.7 421.1 49.65 Q 418.3 52.6 416.3 54.3 A 4.941 4.941 0 0 0 416.088 54.487 Q 415.653 54.894 415.45 55.3 A 6.477 6.477 0 0 0 415.415 55.372 Q 415.256 55.699 415.215 55.886 A 0.539 0.539 0 0 0 415.2 56 A 0.875 0.875 0 0 0 415.205 56.098 Q 415.229 56.308 415.362 56.372 A 0.315 0.315 0 0 0 415.5 56.4 A 0.287 0.287 0 0 0 415.52 56.399 Q 415.673 56.389 415.935 56.217 A 3.304 3.304 0 0 0 416.1 56.1 A 33.399 33.399 0 0 0 416.723 55.622 A 37.102 37.102 0 0 0 420 52.7 Q 416.9 57.5 413.85 62.85 A 209.179 209.179 0 0 0 412.182 65.832 A 179.985 179.985 0 0 0 408.35 73.2 Q 406.972 76.013 405.894 78.493 A 84.468 84.468 0 0 0 404.4 82.15 A 41.45 41.45 0 0 0 403.92 83.479 Q 403.248 85.449 403.019 86.873 A 8.432 8.432 0 0 0 402.9 88.2 Q 402.9 90.8 403.65 92.3 A 29.057 29.057 0 0 0 403.927 92.84 Q 404.229 93.414 404.523 93.905 Z M 195.1 79.6 L 195.1 79.4 A 1.331 1.331 0 0 1 195.115 79.189 Q 195.175 78.818 195.471 78.801 A 0.505 0.505 0 0 1 195.5 78.8 A 0.442 0.442 0 0 1 195.833 78.957 Q 195.969 79.103 196.065 79.388 A 2.475 2.475 0 0 1 196.1 79.5 Q 197.2 85.1 201.5 88.6 Q 205.8 92.1 211.4 92.1 A 14.791 14.791 0 0 0 214.835 91.672 Q 216.869 91.186 219.1 90.15 A 38.521 38.521 0 0 0 223.857 87.498 A 49.754 49.754 0 0 0 227.6 84.8 A 79.532 79.532 0 0 0 234.455 78.681 A 89.99 89.99 0 0 0 236 77.1 Q 240.1 72.8 243.5 68.1 Q 244.419 66.875 245.865 64.742 A 217.609 217.609 0 0 0 246.8 63.35 Q 248.9 60.2 251.15 56.4 Q 253.4 52.6 254.9 49.2 Q 254.4 49.7 253.3 50.75 A 129.827 129.827 0 0 0 251.706 52.297 A 116.364 116.364 0 0 0 251.2 52.8 A 47.513 47.513 0 0 1 250.725 53.269 Q 250.208 53.771 249.823 54.109 A 11.683 11.683 0 0 1 249.6 54.3 A 0.879 0.879 0 0 1 249.559 54.339 Q 249.489 54.4 249.45 54.4 L 249.4 54.4 Q 248.9 54.4 248.9 53.7 A 0.994 0.994 0 0 1 249.105 53.101 Q 249.206 52.964 249.356 52.836 A 2.03 2.03 0 0 1 249.4 52.8 Q 250.137 52.156 251.679 50.62 A 161.765 161.765 0 0 0 251.95 50.35 Q 253.7 48.6 255.2 46.4 A 11.354 11.354 0 0 0 255.991 45.064 Q 256.357 44.329 256.534 43.643 A 4.964 4.964 0 0 0 256.7 42.4 Q 256.7 41.2 255.5 40.7 A 0.432 0.432 0 0 1 255.397 40.63 A 0.301 0.301 0 0 1 255.3 40.4 Q 255.3 39.7 256.1 39.7 A 4.401 4.401 0 0 1 257.47 39.903 A 3.491 3.491 0 0 1 259.2 41.15 A 5.005 5.005 0 0 1 260.008 42.801 Q 260.209 43.496 260.271 44.322 A 10.27 10.27 0 0 1 260.3 45.1 A 16.3 16.3 0 0 1 260.117 47.448 Q 259.941 48.655 259.595 50.011 A 34.635 34.635 0 0 1 259.1 51.75 A 56.274 56.274 0 0 1 257.314 56.636 A 69.748 69.748 0 0 1 255.9 59.8 Q 253.9 64 251.6 68 Q 249.3 72 247.15 75.15 Q 245.098 78.156 243.547 79.842 A 19.155 19.155 0 0 1 243.4 80 A 45.158 45.158 0 0 1 238.11 84.746 A 54.706 54.706 0 0 1 235.1 86.9 Q 230.3 90.1 224.95 92 A 32.283 32.283 0 0 1 216.372 93.828 A 29.714 29.714 0 0 1 214.3 93.9 Q 209.5 93.9 205.1 92.5 Q 200.7 91.1 197.9 87.95 A 10.759 10.759 0 0 1 195.462 83.073 A 15.778 15.778 0 0 1 195.1 79.6 Z M 155.5 57.2 L 156.2 55.5 Q 153.6 58.7 151 60.85 Q 148.4 63 145.8 64.6 A 23.444 23.444 0 0 1 143.792 65.665 Q 142.755 66.149 141.78 66.46 A 14.134 14.134 0 0 1 141.65 66.5 A 15.006 15.006 0 0 1 140.011 66.91 Q 139.158 67.071 138.384 67.096 A 8.786 8.786 0 0 1 138.1 67.1 A 7.916 7.916 0 0 1 136.134 66.87 A 5.459 5.459 0 0 1 133.3 65.15 A 6.765 6.765 0 0 1 131.767 61.928 A 9.582 9.582 0 0 1 131.6 60.1 A 12.806 12.806 0 0 1 131.941 57.25 Q 132.23 55.982 132.766 54.619 A 23.474 23.474 0 0 1 133.15 53.7 A 20.946 20.946 0 0 1 135.01 50.397 Q 136.053 48.866 137.441 47.316 A 36.896 36.896 0 0 1 138.1 46.6 A 25.568 25.568 0 0 1 144.606 41.548 A 30.567 30.567 0 0 1 146.8 40.45 A 28.458 28.458 0 0 1 151.526 38.773 A 21.044 21.044 0 0 1 156.7 38.1 A 14.637 14.637 0 0 1 159.814 38.416 A 10.868 10.868 0 0 1 163.2 39.75 A 9.896 9.896 0 0 1 165.097 41.231 A 7.286 7.286 0 0 1 166.8 43.9 A 5.221 5.221 0 0 1 167.621 43.971 Q 168.464 44.106 169.542 44.497 A 15.995 15.995 0 0 1 169.55 44.5 Q 171.163 45.087 171.199 46.629 A 3.039 3.039 0 0 1 171.2 46.7 A 2.713 2.713 0 0 1 171.036 47.596 Q 170.783 48.318 170.142 49.147 A 9.198 9.198 0 0 1 170.1 49.2 Q 169.572 49.954 168.448 51.276 A 87.04 87.04 0 0 1 167.65 52.2 Q 165.9 54.2 164.4 56.5 A 29.045 29.045 0 0 0 163.446 58.027 Q 162.894 58.978 162.5 59.85 Q 161.8 61.4 161.8 62.5 Q 161.8 64 163.3 64 A 4.584 4.584 0 0 0 164.357 63.858 Q 165.93 63.481 168.4 62.1 Q 172.1 60 175.5 57.3 Q 178.9 54.6 180.8 53 A 5.26 5.26 0 0 1 180.977 52.864 Q 181.338 52.6 181.5 52.6 A 0.453 0.453 0 0 1 181.675 52.631 Q 181.9 52.725 181.9 53.1 A 1.42 1.42 0 0 1 181.63 53.927 A 2.025 2.025 0 0 1 181.4 54.2 A 62.023 62.023 0 0 1 180.885 54.652 Q 180.124 55.313 178.778 56.456 A 659.85 659.85 0 0 1 177.9 57.2 Q 175.3 59.4 171.95 61.8 A 46.199 46.199 0 0 1 168.229 64.215 A 36.671 36.671 0 0 1 165.4 65.7 A 23.782 23.782 0 0 1 163.955 66.28 Q 163.167 66.564 162.45 66.75 Q 161.207 67.072 160.176 67.098 A 7.104 7.104 0 0 1 160 67.1 Q 157.3 67.1 155.9 65.55 A 5.309 5.309 0 0 1 154.637 62.97 A 7.54 7.54 0 0 1 154.5 61.5 A 7.458 7.458 0 0 1 154.629 60.145 A 9.143 9.143 0 0 1 154.8 59.4 Q 155.1 58.3 155.5 57.2 Z M 287.3 57.2 L 288 55.5 Q 285.4 58.7 282.8 60.85 Q 280.2 63 277.6 64.6 A 23.444 23.444 0 0 1 275.592 65.665 Q 274.555 66.149 273.58 66.46 A 14.134 14.134 0 0 1 273.45 66.5 A 15.006 15.006 0 0 1 271.811 66.91 Q 270.958 67.071 270.184 67.096 A 8.786 8.786 0 0 1 269.9 67.1 A 7.916 7.916 0 0 1 267.934 66.87 A 5.459 5.459 0 0 1 265.1 65.15 A 6.765 6.765 0 0 1 263.567 61.928 A 9.582 9.582 0 0 1 263.4 60.1 A 12.806 12.806 0 0 1 263.741 57.25 Q 264.03 55.982 264.566 54.619 A 23.474 23.474 0 0 1 264.95 53.7 A 20.946 20.946 0 0 1 266.81 50.397 Q 267.853 48.866 269.241 47.316 A 36.896 36.896 0 0 1 269.9 46.6 A 25.568 25.568 0 0 1 276.406 41.548 A 30.567 30.567 0 0 1 278.6 40.45 A 28.458 28.458 0 0 1 283.326 38.773 A 21.044 21.044 0 0 1 288.5 38.1 A 14.637 14.637 0 0 1 291.614 38.416 A 10.868 10.868 0 0 1 295 39.75 A 9.896 9.896 0 0 1 296.897 41.231 A 7.286 7.286 0 0 1 298.6 43.9 A 5.221 5.221 0 0 1 299.421 43.971 Q 300.264 44.106 301.342 44.497 A 15.995 15.995 0 0 1 301.35 44.5 Q 302.963 45.087 302.999 46.629 A 3.039 3.039 0 0 1 303 46.7 A 2.713 2.713 0 0 1 302.836 47.596 Q 302.583 48.318 301.942 49.147 A 9.198 9.198 0 0 1 301.9 49.2 Q 301.372 49.954 300.248 51.276 A 87.04 87.04 0 0 1 299.45 52.2 Q 297.7 54.2 296.2 56.5 A 29.045 29.045 0 0 0 295.246 58.027 Q 294.694 58.978 294.3 59.85 Q 293.6 61.4 293.6 62.5 Q 293.6 64 295.1 64 A 4.584 4.584 0 0 0 296.157 63.858 Q 297.73 63.481 300.2 62.1 Q 303.9 60 307.3 57.3 Q 310.7 54.6 312.6 53 A 5.26 5.26 0 0 1 312.777 52.864 Q 313.138 52.6 313.3 52.6 A 0.453 0.453 0 0 1 313.475 52.631 Q 313.7 52.725 313.7 53.1 A 1.42 1.42 0 0 1 313.43 53.927 A 2.025 2.025 0 0 1 313.2 54.2 A 62.023 62.023 0 0 1 312.685 54.652 Q 311.924 55.313 310.578 56.456 A 659.85 659.85 0 0 1 309.7 57.2 Q 307.1 59.4 303.75 61.8 A 46.199 46.199 0 0 1 300.029 64.215 A 36.671 36.671 0 0 1 297.2 65.7 A 23.782 23.782 0 0 1 295.755 66.28 Q 294.967 66.564 294.25 66.75 Q 293.007 67.072 291.976 67.098 A 7.104 7.104 0 0 1 291.8 67.1 Q 289.1 67.1 287.7 65.55 A 5.309 5.309 0 0 1 286.437 62.97 A 7.54 7.54 0 0 1 286.3 61.5 A 7.458 7.458 0 0 1 286.429 60.145 A 9.143 9.143 0 0 1 286.6 59.4 Q 286.9 58.3 287.3 57.2 Z M 392.3 57.2 L 393 55.5 Q 390.4 58.7 387.8 60.85 Q 385.2 63 382.6 64.6 A 23.444 23.444 0 0 1 380.592 65.665 Q 379.555 66.149 378.58 66.46 A 14.134 14.134 0 0 1 378.45 66.5 A 15.006 15.006 0 0 1 376.811 66.91 Q 375.958 67.071 375.184 67.096 A 8.786 8.786 0 0 1 374.9 67.1 A 7.916 7.916 0 0 1 372.934 66.87 A 5.459 5.459 0 0 1 370.1 65.15 A 6.765 6.765 0 0 1 368.567 61.928 A 9.582 9.582 0 0 1 368.4 60.1 A 12.806 12.806 0 0 1 368.741 57.25 Q 369.03 55.982 369.566 54.619 A 23.474 23.474 0 0 1 369.95 53.7 A 20.946 20.946 0 0 1 371.81 50.397 Q 372.853 48.866 374.241 47.316 A 36.896 36.896 0 0 1 374.9 46.6 A 25.568 25.568 0 0 1 381.406 41.548 A 30.567 30.567 0 0 1 383.6 40.45 A 28.458 28.458 0 0 1 388.326 38.773 A 21.044 21.044 0 0 1 393.5 38.1 A 14.637 14.637 0 0 1 396.614 38.416 A 10.868 10.868 0 0 1 400 39.75 A 9.896 9.896 0 0 1 401.897 41.231 A 7.286 7.286 0 0 1 403.6 43.9 A 5.221 5.221 0 0 1 404.421 43.971 Q 405.264 44.106 406.342 44.497 A 15.995 15.995 0 0 1 406.35 44.5 Q 407.963 45.087 407.999 46.629 A 3.039 3.039 0 0 1 408 46.7 A 2.713 2.713 0 0 1 407.836 47.596 Q 407.583 48.318 406.942 49.147 A 9.198 9.198 0 0 1 406.9 49.2 Q 406.372 49.954 405.248 51.276 A 87.04 87.04 0 0 1 404.45 52.2 Q 402.7 54.2 401.2 56.5 A 29.045 29.045 0 0 0 400.246 58.027 Q 399.694 58.978 399.3 59.85 Q 398.6 61.4 398.6 62.5 Q 398.6 64 400.1 64 A 4.584 4.584 0 0 0 401.157 63.858 Q 402.73 63.481 405.2 62.1 Q 408.9 60 412.3 57.3 Q 415.7 54.6 417.6 53 A 5.26 5.26 0 0 1 417.777 52.864 Q 418.138 52.6 418.3 52.6 A 0.453 0.453 0 0 1 418.475 52.631 Q 418.7 52.725 418.7 53.1 A 1.42 1.42 0 0 1 418.43 53.927 A 2.025 2.025 0 0 1 418.2 54.2 A 62.023 62.023 0 0 1 417.685 54.652 Q 416.924 55.313 415.578 56.456 A 659.85 659.85 0 0 1 414.7 57.2 Q 412.1 59.4 408.75 61.8 A 46.199 46.199 0 0 1 405.029 64.215 A 36.671 36.671 0 0 1 402.2 65.7 A 23.782 23.782 0 0 1 400.755 66.28 Q 399.967 66.564 399.25 66.75 Q 398.007 67.072 396.976 67.098 A 7.104 7.104 0 0 1 396.8 67.1 Q 394.1 67.1 392.7 65.55 A 5.309 5.309 0 0 1 391.437 62.97 A 7.54 7.54 0 0 1 391.3 61.5 A 7.458 7.458 0 0 1 391.429 60.145 A 9.143 9.143 0 0 1 391.6 59.4 Q 391.9 58.3 392.3 57.2 Z M 565.1 57.2 L 565.8 55.5 Q 563.2 58.7 560.6 60.85 Q 558 63 555.4 64.6 A 23.444 23.444 0 0 1 553.392 65.665 Q 552.355 66.149 551.38 66.46 A 14.134 14.134 0 0 1 551.25 66.5 A 15.006 15.006 0 0 1 549.611 66.91 Q 548.758 67.071 547.984 67.096 A 8.786 8.786 0 0 1 547.7 67.1 A 7.916 7.916 0 0 1 545.734 66.87 A 5.459 5.459 0 0 1 542.9 65.15 A 6.765 6.765 0 0 1 541.367 61.928 A 9.582 9.582 0 0 1 541.2 60.1 A 12.806 12.806 0 0 1 541.541 57.25 Q 541.83 55.982 542.366 54.619 A 23.474 23.474 0 0 1 542.75 53.7 A 20.946 20.946 0 0 1 544.61 50.397 Q 545.653 48.866 547.041 47.316 A 36.896 36.896 0 0 1 547.7 46.6 A 25.568 25.568 0 0 1 554.206 41.548 A 30.567 30.567 0 0 1 556.4 40.45 A 28.458 28.458 0 0 1 561.126 38.773 A 21.044 21.044 0 0 1 566.3 38.1 A 14.637 14.637 0 0 1 569.414 38.416 A 10.868 10.868 0 0 1 572.8 39.75 A 9.896 9.896 0 0 1 574.697 41.231 A 7.286 7.286 0 0 1 576.4 43.9 A 5.221 5.221 0 0 1 577.221 43.971 Q 578.064 44.106 579.142 44.497 A 15.995 15.995 0 0 1 579.15 44.5 Q 580.763 45.087 580.799 46.629 A 3.039 3.039 0 0 1 580.8 46.7 A 2.713 2.713 0 0 1 580.636 47.596 Q 580.383 48.318 579.742 49.147 A 9.198 9.198 0 0 1 579.7 49.2 Q 579.172 49.954 578.048 51.276 A 87.04 87.04 0 0 1 577.25 52.2 Q 575.5 54.2 574 56.5 A 29.045 29.045 0 0 0 573.046 58.027 Q 572.494 58.978 572.1 59.85 Q 571.4 61.4 571.4 62.5 Q 571.4 64 572.9 64 A 4.584 4.584 0 0 0 573.957 63.858 Q 575.53 63.481 578 62.1 Q 581.7 60 585.1 57.3 Q 588.5 54.6 590.4 53 A 5.26 5.26 0 0 1 590.577 52.864 Q 590.938 52.6 591.1 52.6 A 0.453 0.453 0 0 1 591.275 52.631 Q 591.5 52.725 591.5 53.1 A 1.42 1.42 0 0 1 591.23 53.927 A 2.025 2.025 0 0 1 591 54.2 A 62.023 62.023 0 0 1 590.485 54.652 Q 589.724 55.313 588.378 56.456 A 659.85 659.85 0 0 1 587.5 57.2 Q 584.9 59.4 581.55 61.8 A 46.199 46.199 0 0 1 577.829 64.215 A 36.671 36.671 0 0 1 575 65.7 A 23.782 23.782 0 0 1 573.555 66.28 Q 572.767 66.564 572.05 66.75 Q 570.807 67.072 569.776 67.098 A 7.104 7.104 0 0 1 569.6 67.1 Q 566.9 67.1 565.5 65.55 A 5.309 5.309 0 0 1 564.237 62.97 A 7.54 7.54 0 0 1 564.1 61.5 A 7.458 7.458 0 0 1 564.229 60.145 A 9.143 9.143 0 0 1 564.4 59.4 Q 564.7 58.3 565.1 57.2 Z M 228 67.1 Q 223.9 67.1 222.45 65.35 Q 221 63.6 221 61.4 Q 221 59.6 221.6 57.95 Q 222.052 56.706 222.391 56.002 A 6.48 6.48 0 0 1 222.6 55.6 A 14.751 14.751 0 0 1 223.113 54.808 Q 223.594 54.113 224.25 53.3 Q 225.3 52 226.6 50.5 A 144.479 144.479 0 0 0 223.854 52.892 A 123.899 123.899 0 0 0 222.85 53.8 Q 221.1 55.4 220 56.2 Q 219.799 56.401 219.599 56.467 A 0.629 0.629 0 0 1 219.4 56.5 A 0.453 0.453 0 0 1 219.225 56.469 Q 219 56.375 219 56 A 1.332 1.332 0 0 1 219.192 55.331 Q 219.438 54.903 219.999 54.475 A 5.461 5.461 0 0 1 220.1 54.4 Q 222.7 52.2 225.15 49.6 Q 227.6 47 229.8 44.75 A 27.601 27.601 0 0 1 231.126 43.476 Q 232.482 42.263 233.617 41.645 A 7.877 7.877 0 0 1 233.7 41.6 Q 235.5 40.6 236.6 40.3 Q 237.7 40 238.4 40 Q 239.5 40 240 40.35 A 1.168 1.168 0 0 1 240.137 40.461 Q 240.441 40.751 240.218 41.075 A 0.78 0.78 0 0 1 240.2 41.1 A 19.463 19.463 0 0 0 238.722 42.77 Q 238.014 43.662 237.315 44.724 A 33.942 33.942 0 0 0 236.85 45.45 Q 235.2 48.1 233.8 51 A 49.661 49.661 0 0 0 232.399 54.168 A 38.852 38.852 0 0 0 231.55 56.5 Q 230.961 58.3 230.78 59.717 A 9.359 9.359 0 0 0 230.7 60.9 A 4.587 4.587 0 0 0 230.783 61.813 Q 231.07 63.22 232.355 63.38 A 2.801 2.801 0 0 0 232.7 63.4 Q 234.393 63.4 236.999 62.011 A 23.951 23.951 0 0 0 237.65 61.65 Q 240.7 59.9 244.05 57.2 A 162.967 162.967 0 0 0 248.633 53.371 A 140.222 140.222 0 0 0 250.3 51.9 Q 250.623 51.577 250.881 51.515 A 0.508 0.508 0 0 1 251 51.5 Q 251.5 51.5 251.55 52 Q 251.6 52.5 251.3 52.7 A 118.476 118.476 0 0 1 247.319 56.267 A 151.323 151.323 0 0 1 243.85 59.15 Q 239.7 62.5 235.55 64.8 Q 231.4 67.1 228 67.1 Z M 141.2 64.5 A 4.436 4.436 0 0 0 142.339 64.33 Q 143.487 64.022 145.051 63.154 A 27.514 27.514 0 0 0 146.4 62.35 A 30.35 30.35 0 0 0 148.868 60.594 Q 150.107 59.624 151.465 58.4 A 75.412 75.412 0 0 0 154.3 55.7 Q 154.793 55.207 155.997 54.071 A 325.593 325.593 0 0 1 156.55 53.55 Q 158.2 52 160.1 50.05 A 33.207 33.207 0 0 0 162.162 47.735 A 26.995 26.995 0 0 0 163.35 46.15 A 12.056 12.056 0 0 0 163.987 45.132 Q 164.571 44.078 164.677 43.253 A 2.779 2.779 0 0 0 164.7 42.9 A 1.567 1.567 0 0 0 163.741 41.404 Q 162.921 41 161.4 41 Q 158.5 41 154.45 43.25 Q 150.4 45.5 146.7 49.9 A 75.728 75.728 0 0 0 144.525 52.591 Q 142.37 55.393 141.169 57.615 A 22.694 22.694 0 0 0 141.15 57.65 Q 139.4 60.9 139.4 62.6 A 2.897 2.897 0 0 0 139.486 63.339 Q 139.735 64.283 140.712 64.459 A 2.745 2.745 0 0 0 141.2 64.5 Z M 273 64.5 A 4.436 4.436 0 0 0 274.139 64.33 Q 275.287 64.022 276.851 63.154 A 27.514 27.514 0 0 0 278.2 62.35 A 30.35 30.35 0 0 0 280.668 60.594 Q 281.907 59.624 283.265 58.4 A 75.412 75.412 0 0 0 286.1 55.7 Q 286.593 55.207 287.797 54.071 A 325.593 325.593 0 0 1 288.35 53.55 Q 290 52 291.9 50.05 A 33.207 33.207 0 0 0 293.962 47.735 A 26.995 26.995 0 0 0 295.15 46.15 A 12.056 12.056 0 0 0 295.787 45.132 Q 296.371 44.078 296.477 43.253 A 2.779 2.779 0 0 0 296.5 42.9 A 1.567 1.567 0 0 0 295.541 41.404 Q 294.721 41 293.2 41 Q 290.3 41 286.25 43.25 Q 282.2 45.5 278.5 49.9 A 75.728 75.728 0 0 0 276.325 52.591 Q 274.17 55.393 272.969 57.615 A 22.694 22.694 0 0 0 272.95 57.65 Q 271.2 60.9 271.2 62.6 A 2.897 2.897 0 0 0 271.286 63.339 Q 271.535 64.283 272.512 64.459 A 2.745 2.745 0 0 0 273 64.5 Z M 378 64.5 A 4.436 4.436 0 0 0 379.139 64.33 Q 380.287 64.022 381.851 63.154 A 27.514 27.514 0 0 0 383.2 62.35 A 30.35 30.35 0 0 0 385.668 60.594 Q 386.907 59.624 388.265 58.4 A 75.412 75.412 0 0 0 391.1 55.7 Q 391.593 55.207 392.797 54.071 A 325.593 325.593 0 0 1 393.35 53.55 Q 395 52 396.9 50.05 A 33.207 33.207 0 0 0 398.962 47.735 A 26.995 26.995 0 0 0 400.15 46.15 A 12.056 12.056 0 0 0 400.787 45.132 Q 401.371 44.078 401.477 43.253 A 2.779 2.779 0 0 0 401.5 42.9 A 1.567 1.567 0 0 0 400.541 41.404 Q 399.721 41 398.2 41 Q 395.3 41 391.25 43.25 Q 387.2 45.5 383.5 49.9 A 75.728 75.728 0 0 0 381.325 52.591 Q 379.17 55.393 377.969 57.615 A 22.694 22.694 0 0 0 377.95 57.65 Q 376.2 60.9 376.2 62.6 A 2.897 2.897 0 0 0 376.286 63.339 Q 376.535 64.283 377.512 64.459 A 2.745 2.745 0 0 0 378 64.5 Z M 550.8 64.5 A 4.436 4.436 0 0 0 551.939 64.33 Q 553.087 64.022 554.651 63.154 A 27.514 27.514 0 0 0 556 62.35 A 30.35 30.35 0 0 0 558.468 60.594 Q 559.707 59.624 561.065 58.4 A 75.412 75.412 0 0 0 563.9 55.7 Q 564.393 55.207 565.597 54.071 A 325.593 325.593 0 0 1 566.15 53.55 Q 567.8 52 569.7 50.05 A 33.207 33.207 0 0 0 571.762 47.735 A 26.995 26.995 0 0 0 572.95 46.15 A 12.056 12.056 0 0 0 573.587 45.132 Q 574.171 44.078 574.277 43.253 A 2.779 2.779 0 0 0 574.3 42.9 A 1.567 1.567 0 0 0 573.341 41.404 Q 572.521 41 571 41 Q 568.1 41 564.05 43.25 Q 560 45.5 556.3 49.9 A 75.728 75.728 0 0 0 554.125 52.591 Q 551.97 55.393 550.769 57.615 A 22.694 22.694 0 0 0 550.75 57.65 Q 549 60.9 549 62.6 A 2.897 2.897 0 0 0 549.086 63.339 Q 549.335 64.283 550.312 64.459 A 2.745 2.745 0 0 0 550.8 64.5 Z M 188.3 64.5 A 5.209 5.209 0 0 0 189.781 64.264 Q 191.297 63.813 193.2 62.5 Q 195.091 61.211 197.277 59.368 A 73.72 73.72 0 0 0 198 58.75 Q 200.6 56.5 203.1 54 Q 205.248 51.852 206.88 49.999 A 59.755 59.755 0 0 0 207.4 49.4 Q 209.912 46.507 210.512 44.426 A 4.437 4.437 0 0 0 210.7 43.2 Q 210.7 41.344 208.634 41.211 A 5.166 5.166 0 0 0 208.3 41.2 A 7.044 7.044 0 0 0 206.716 41.403 Q 204.653 41.883 201.7 43.5 A 21.842 21.842 0 0 0 199.543 44.848 Q 198.475 45.6 197.353 46.547 A 39.619 39.619 0 0 0 196.6 47.2 Q 193.9 49.6 191.55 52.4 A 48.061 48.061 0 0 0 189.691 54.753 Q 188.867 55.869 188.216 56.912 A 26.555 26.555 0 0 0 187.8 57.6 Q 186.4 60.137 186.225 61.832 A 4.553 4.553 0 0 0 186.2 62.3 A 3.328 3.328 0 0 0 186.301 63.157 Q 186.659 64.5 188.3 64.5 Z M 431.5 67.6 Q 434.4 67.6 437.25 65.75 Q 440.1 63.9 442.4 60.9 Q 444.7 57.9 446.1 54.5 A 20.039 20.039 0 0 0 447.099 51.426 A 14.635 14.635 0 0 0 447.5 48.1 A 9.394 9.394 0 0 0 447.365 46.457 Q 447.204 45.55 446.849 44.828 A 4.644 4.644 0 0 0 446.25 43.9 A 4.086 4.086 0 0 0 443.464 42.437 A 5.852 5.852 0 0 0 442.8 42.4 Q 440.2 42.4 436.9 44.65 A 18.897 18.897 0 0 0 433.566 47.588 Q 432.167 49.129 430.9 51.1 A 22.154 22.154 0 0 0 429.014 54.378 A 18.027 18.027 0 0 0 428.05 56.95 A 24.898 24.898 0 0 0 427.5 59.24 Q 427.284 60.386 427.224 61.414 A 13.368 13.368 0 0 0 427.2 62.2 Q 427.2 64.905 428.244 66.174 A 3.061 3.061 0 0 0 428.4 66.35 A 4.015 4.015 0 0 0 431.093 67.585 A 5.446 5.446 0 0 0 431.5 67.6 Z M 261.361 36.304 A 3.449 3.449 0 0 0 262.2 36.4 A 5.019 5.019 0 0 0 264.875 35.62 A 7.207 7.207 0 0 0 266.25 34.5 A 9.448 9.448 0 0 0 266.342 34.404 Q 268.1 32.547 268.1 30.5 A 2.81 2.81 0 0 0 267.891 29.436 A 3.512 3.512 0 0 0 267.4 28.6 A 2.234 2.234 0 0 0 266.139 27.796 A 3.449 3.449 0 0 0 265.3 27.7 Q 263.2 27.7 261.3 29.65 Q 260.409 30.564 259.936 31.489 A 4.595 4.595 0 0 0 259.4 33.6 A 2.81 2.81 0 0 0 259.609 34.664 A 3.512 3.512 0 0 0 260.1 35.5 A 2.234 2.234 0 0 0 261.361 36.304 Z M 242.461 36.304 A 3.449 3.449 0 0 0 243.3 36.4 A 5.019 5.019 0 0 0 245.975 35.62 A 7.207 7.207 0 0 0 247.35 34.5 A 9.448 9.448 0 0 0 247.442 34.404 Q 249.2 32.547 249.2 30.5 A 2.81 2.81 0 0 0 248.991 29.436 A 3.512 3.512 0 0 0 248.5 28.6 A 2.234 2.234 0 0 0 247.239 27.796 A 3.449 3.449 0 0 0 246.4 27.7 Q 244.3 27.7 242.4 29.65 Q 241.509 30.564 241.036 31.489 A 4.595 4.595 0 0 0 240.5 33.6 A 2.81 2.81 0 0 0 240.709 34.664 A 3.512 3.512 0 0 0 241.2 35.5 A 2.234 2.234 0 0 0 242.461 36.304 Z" vector-effect="non-scaling-stroke"/></g></svg>
