<svg width="762.3" height="93.439" viewBox="0 0 762.3 93.439" xmlns="http://www.w3.org/2000/svg"><g id="svgGroup" stroke-linecap="round" fill-rule="evenodd" font-size="9pt" stroke="#000" stroke-width="0.25mm" fill="black" style="stroke:#000;stroke-width:0.25mm;fill:black">
<path d="M 68.5 47.4 L 98.3 24.7 Q 105.8 19 112 14.4 Q 118.2 9.8 123.85 6.6 A 55.9 55.9 0 0 1 132.739 2.516 A 49.972 49.972 0 0 1 135.25 1.7 A 41.711 41.711 0 0 1 144.006 0.135 A 49.827 49.827 0 0 1 147.7 0 A 19.908 19.908 0 0 1 152.091 0.469 A 17.067 17.067 0 0 1 154.5 1.2 Q 156.097 1.789 156.352 3.367 A 3.979 3.979 0 0 1 156.4 4 A 4.32 4.32 0 0 1 156.365 4.578 Q 156.279 5.213 155.981 5.489 A 0.821 0.821 0 0 1 155.4 5.7 A 0.94 0.94 0 0 1 154.949 5.578 Q 154.799 5.497 154.649 5.362 A 2.543 2.543 0 0 1 154.4 5.1 A 2.24 2.24 0 0 0 153.642 4.573 Q 152.594 4.1 150.6 4.1 A 16.93 16.93 0 0 0 149.502 4.139 Q 148.275 4.22 146.635 4.465 A 55.354 55.354 0 0 0 146.4 4.5 A 76.747 76.747 0 0 0 144.295 4.856 Q 143.354 5.028 142.305 5.239 A 155.993 155.993 0 0 0 140.1 5.7 A 59.796 59.796 0 0 0 133.482 7.637 A 77.437 77.437 0 0 0 128.05 9.8 A 100.303 100.303 0 0 0 120.701 13.425 A 129.178 129.178 0 0 0 114.7 16.9 A 162.62 162.62 0 0 0 109.9 20.031 Q 104.538 23.654 97.473 28.898 A 640.294 640.294 0 0 0 90.7 34 Q 83.023 39.883 77.682 43.728 A 317.829 317.829 0 0 1 77.65 43.75 Q 73.554 46.698 70.894 48.502 A 112.33 112.33 0 0 1 69.4 49.5 A 81.01 81.01 0 0 0 72.521 55.367 A 98.928 98.928 0 0 0 74.75 59 Q 77.9 63.9 81.6 68.45 A 65.956 65.956 0 0 0 87.845 75.155 A 58.911 58.911 0 0 0 89.4 76.55 A 39.962 39.962 0 0 0 93.222 79.494 Q 95.341 80.921 97.434 81.87 A 24.835 24.835 0 0 0 97.5 81.9 A 22.943 22.943 0 0 0 100.327 82.997 Q 101.89 83.48 103.323 83.632 A 12.182 12.182 0 0 0 104.6 83.7 A 9.131 9.131 0 0 0 106.352 83.548 Q 109.149 82.998 109.379 80.47 A 5.177 5.177 0 0 0 109.4 80 L 109.4 79.5 A 1.494 1.494 0 0 0 109.386 79.289 Q 109.363 79.125 109.3 79 A 1.359 1.359 0 0 0 109.29 78.835 Q 109.278 78.735 109.25 78.65 A 1.304 1.304 0 0 1 109.224 78.561 Q 109.212 78.516 109.206 78.476 A 0.519 0.519 0 0 1 109.2 78.4 A 4.004 4.004 0 0 1 109.2 78.385 Q 109.202 77.859 109.343 77.402 A 2.879 2.879 0 0 1 109.7 76.65 Q 110.2 75.9 110.8 75.9 A 1.089 1.089 0 0 1 111.675 76.369 Q 112.256 77.105 112.5 79 A 0.881 0.881 0 0 1 112.572 79.21 Q 112.593 79.308 112.598 79.422 A 1.684 1.684 0 0 1 112.6 79.5 L 112.6 80 A 5.567 5.567 0 0 1 112.032 82.525 A 5.633 5.633 0 0 1 110.9 84.05 Q 109.2 85.7 106.6 86.5 A 18.448 18.448 0 0 1 101.551 87.295 A 20.775 20.775 0 0 1 101.1 87.3 A 18.484 18.484 0 0 1 97.452 86.956 A 14.349 14.349 0 0 1 94.2 85.9 A 34.153 34.153 0 0 1 89.129 82.825 A 43.819 43.819 0 0 1 85.7 80.05 A 70.878 70.878 0 0 1 78.656 72.76 A 79.236 79.236 0 0 1 77.7 71.6 Q 73.9 66.9 70.9 61.7 Q 67.9 56.5 65.9 51.6 A 42.241 42.241 0 0 1 62.957 53.171 Q 59.926 54.626 57.603 55.001 A 10.526 10.526 0 0 1 56.8 55.1 A 89.447 89.447 0 0 1 54.489 57.941 Q 53.176 59.494 51.633 61.199 A 173.813 173.813 0 0 1 49.7 63.3 A 96.609 96.609 0 0 1 41.767 70.849 A 108.382 108.382 0 0 1 40.15 72.2 Q 34.9 76.5 28.95 79.25 A 29.37 29.37 0 0 1 20.319 81.783 A 26.972 26.972 0 0 1 16.9 82 A 24.896 24.896 0 0 1 11.817 81.512 Q 8.715 80.865 6.318 79.36 A 14.262 14.262 0 0 1 4.55 78.05 A 12.183 12.183 0 0 1 1.033 72.668 Q 0.339 70.641 0.111 68.147 A 28.018 28.018 0 0 1 0 65.6 A 20.102 20.102 0 0 1 1.607 57.812 A 24.101 24.101 0 0 1 2.3 56.3 Q 4.6 51.7 8.5 48 A 28.505 28.505 0 0 1 14.675 43.5 A 25.849 25.849 0 0 1 17 42.4 Q 22.7 39.9 28.9 39.9 A 10.775 10.775 0 0 1 31.235 40.139 Q 32.915 40.512 34.155 41.466 A 6.734 6.734 0 0 1 34.5 41.75 A 5.989 5.989 0 0 1 36.591 46.12 A 7.732 7.732 0 0 1 36.6 46.5 A 6.677 6.677 0 0 1 36.581 47.026 Q 36.538 47.565 36.4 47.889 A 0.976 0.976 0 0 1 36.2 48.2 Q 36.117 48.283 35.966 48.297 A 0.703 0.703 0 0 1 35.9 48.3 A 0.341 0.341 0 0 1 35.727 48.244 Q 35.467 48.088 35.1 47.5 A 20.152 20.152 0 0 0 34.225 45.962 Q 33.284 44.476 32.343 43.717 A 4.537 4.537 0 0 0 31.9 43.4 A 5.712 5.712 0 0 0 30.452 42.772 Q 29.749 42.568 28.902 42.476 A 13.936 13.936 0 0 0 27.4 42.4 A 18.272 18.272 0 0 0 19.24 44.353 A 21.342 21.342 0 0 0 18.85 44.55 Q 14.7 46.7 11.35 50.3 Q 8 53.9 6 58.35 A 22.536 22.536 0 0 0 4.195 64.493 A 20.315 20.315 0 0 0 4 67.3 Q 4 78.1 16.2 79.5 Q 20.8 79.9 28.3 75.6 A 58.919 58.919 0 0 0 36.544 69.812 Q 40.539 66.509 44.708 62.14 A 144.77 144.77 0 0 0 52.2 53.6 Q 49.925 51.523 49.9 47.685 A 13.121 13.121 0 0 1 49.9 47.6 A 11.884 11.884 0 0 1 52.666 39.965 A 14.922 14.922 0 0 1 52.8 39.8 Q 56 36 61.3 36 A 13.297 13.297 0 0 1 63.097 36.117 A 11.173 11.173 0 0 1 64.1 36.3 Q 66.8 31.7 69.3 27 Q 71.8 22.3 74.1 17.5 Q 77.778 9.893 78.382 7.597 A 2.964 2.964 0 0 0 78.5 6.9 A 0.601 0.601 0 0 0 78.497 6.834 Q 78.489 6.767 78.465 6.733 A 0.076 0.076 0 0 0 78.4 6.7 Q 78.1 6.5 76 7.45 A 169.034 169.034 0 0 0 74.327 8.219 Q 73.588 8.563 72.782 8.946 A 303.172 303.172 0 0 0 71.1 9.75 A 133.52 133.52 0 0 0 67.756 11.418 A 109.748 109.748 0 0 0 65.9 12.4 A 119.225 119.225 0 0 0 64.81 12.998 Q 63.44 13.758 62.753 14.2 A 11.16 11.16 0 0 0 62.6 14.3 A 37.449 37.449 0 0 0 58.775 17.155 A 48.544 48.544 0 0 0 55.8 19.9 A 35.588 35.588 0 0 0 54.086 21.73 Q 51.651 24.536 51.423 26.34 A 2.884 2.884 0 0 0 51.4 26.7 A 2.038 2.038 0 0 0 52.112 28.272 A 2.964 2.964 0 0 0 52.4 28.5 A 6.909 6.909 0 0 0 54.323 29.436 Q 55.253 29.734 56.391 29.874 A 18.069 18.069 0 0 0 58.6 30 Q 59.025 30.17 59.089 30.34 A 0.17 0.17 0 0 1 59.1 30.4 Q 59.1 30.849 56.518 31.298 A 36.428 36.428 0 0 1 55.9 31.4 A 37.048 37.048 0 0 1 54.413 31.604 Q 52.615 31.81 51.372 31.739 A 8.82 8.82 0 0 1 50.9 31.7 Q 48.634 31.156 48.422 29.217 A 3.825 3.825 0 0 1 48.4 28.8 Q 48.4 25.712 51.748 21.534 A 33.094 33.094 0 0 1 52.7 20.4 A 37.341 37.341 0 0 1 58.313 15.152 A 31.64 31.64 0 0 1 62.1 12.7 Q 73.83 6.402 78.805 5.062 A 8.838 8.838 0 0 1 81 4.7 Q 82 4.7 82.7 5.1 Q 82.997 5.323 83.073 5.82 A 2.504 2.504 0 0 1 83.1 6.2 A 11.994 11.994 0 0 1 82.42 9.573 Q 79.918 17.47 68.209 37.807 A 671.12 671.12 0 0 1 66.3 41.1 A 23.162 23.162 0 0 0 66.56 42.049 Q 66.729 42.621 66.945 43.258 A 42.351 42.351 0 0 0 67.15 43.85 A 77.256 77.256 0 0 0 67.679 45.293 Q 67.957 46.03 68.28 46.847 A 135.773 135.773 0 0 0 68.5 47.4 Z M 454 73.2 A 1.393 1.393 0 0 0 454.365 74.192 Q 455.029 74.9 456.9 74.9 Q 457.306 74.9 458.109 73.976 A 12.65 12.65 0 0 0 458.5 73.5 A 43.759 43.759 0 0 0 459.032 72.808 Q 459.928 71.62 461 70.05 Q 462.4 68 463.7 66.2 A 84.723 84.723 0 0 1 470.087 59.316 A 68.298 68.298 0 0 1 486.9 47.3 L 483.9 52.1 Q 482.4 54.5 481 56.9 Q 477.4 63.2 477.4 67.1 Q 477.4 72.329 480.788 73.596 A 7.155 7.155 0 0 0 483.3 74 A 1.781 1.781 0 0 0 483.332 74 Q 484.247 73.984 485.87 73.033 A 20.418 20.418 0 0 0 486.95 72.35 Q 489.4 70.7 492.15 68.25 Q 494.9 65.8 497.25 63.4 A 110.322 110.322 0 0 0 497.694 62.945 Q 499.016 61.578 499.938 60.526 A 30.465 30.465 0 0 0 500.8 59.5 Q 501.313 58.796 501.497 58.214 A 2.037 2.037 0 0 0 501.6 57.6 A 0.589 0.589 0 0 0 501.583 57.452 Q 501.536 57.271 501.358 57.22 A 0.576 0.576 0 0 0 501.2 57.2 A 0.6 0.6 0 0 0 501.138 57.204 Q 500.645 57.255 499.8 58.1 A 53.35 53.35 0 0 1 499.279 58.715 Q 498.343 59.804 496.85 61.45 A 60.026 60.026 0 0 1 495.324 63.07 A 71.342 71.342 0 0 1 492.5 65.8 A 39.958 39.958 0 0 1 490.558 67.472 A 31.627 31.627 0 0 1 487.75 69.5 A 14.468 14.468 0 0 1 486.42 70.259 Q 484.873 71.03 483.6 71.1 Q 481.9 71.1 481.9 68.8 Q 481.9 65.363 485.928 59.24 A 72.687 72.687 0 0 1 488.5 55.6 A 3970.21 3970.21 0 0 1 488.634 55.42 Q 492.233 50.557 494 48.2 Q 495.8 45.8 495.8 45.1 Q 495.8 42.5 493 42.5 Q 492.9 42.5 492.6 42.55 A 4.728 4.728 0 0 1 492.418 42.577 Q 492.332 42.588 492.257 42.594 A 2.073 2.073 0 0 1 492.1 42.6 A 5.831 5.831 0 0 0 491.37 42.744 Q 489.89 43.126 487.6 44.35 Q 485.788 45.319 483.702 46.639 A 93.799 93.799 0 0 0 481.1 48.35 A 408.219 408.219 0 0 0 480.197 48.967 A 452.481 452.481 0 0 0 473.7 53.5 Q 469.9 56.2 466.6 58.6 A 7.031 7.031 0 0 1 466.638 58.495 Q 467.376 56.488 470.25 52.25 Q 473.2 47.9 478.5 41.2 A 426.192 426.192 0 0 0 481.288 37.546 Q 488.645 27.788 488.9 26 A 5.384 5.384 0 0 0 488.694 25.216 Q 488.56 24.835 488.378 24.565 A 1.361 1.361 0 0 0 487.2 23.9 A 0.408 0.408 0 0 0 487.113 23.91 A 0.482 0.482 0 0 0 487 23.95 Q 486.928 23.986 486.805 23.996 A 1.287 1.287 0 0 1 486.7 24 Q 482.719 25.3 474.116 38.153 A 239.855 239.855 0 0 0 469.9 44.7 A 197.964 197.964 0 0 0 468.067 47.641 Q 465.959 51.085 463.45 55.45 A 1157.701 1157.701 0 0 0 462.405 57.273 Q 459.153 62.953 455.2 70 A 25.389 25.389 0 0 0 455.122 70.145 Q 454.299 71.676 454.08 72.605 A 2.629 2.629 0 0 0 454 73.2 Z M 421.3 56.8 L 427.7 46.4 A 79.342 79.342 0 0 0 420.082 52.816 A 103.379 103.379 0 0 0 414.2 58.9 A 131.281 131.281 0 0 0 412.539 60.784 Q 411.696 61.757 410.774 62.855 A 229.439 229.439 0 0 0 410.15 63.6 A 176.764 176.764 0 0 0 407.942 66.307 Q 406.634 67.941 405.2 69.8 Q 401.6 74.5 400.9 74.5 Q 399.5 74.5 398.6 73.25 A 6.525 6.525 0 0 1 398.135 72.512 Q 397.924 72.116 397.816 71.749 A 2.637 2.637 0 0 1 397.7 71 Q 397.7 70.26 398.129 68.362 A 49.984 49.984 0 0 1 398.2 68.05 A 26.311 26.311 0 0 1 398.676 66.274 Q 398.955 65.368 399.279 64.586 A 15.603 15.603 0 0 1 399.4 64.3 Q 400.1 62.6 400.85 60.95 Q 401.6 59.3 402.3 57.7 L 396.3 64 L 395.1 65.2 A 7.429 7.429 0 0 1 394.682 65.59 Q 393.991 66.181 393.529 66.2 A 0.738 0.738 0 0 1 393.5 66.2 Q 393 66.2 393 65.5 A 0.749 0.749 0 0 1 393.014 65.364 Q 393.039 65.232 393.107 65.055 A 3.256 3.256 0 0 1 393.15 64.95 A 1.536 1.536 0 0 1 393.276 64.72 Q 393.425 64.49 393.692 64.211 A 6.493 6.493 0 0 1 393.8 64.1 Q 395.3 62.6 396.9 60.9 Q 398.5 59.2 400.2 57 A 182.751 182.751 0 0 0 400.706 56.378 Q 401.548 55.341 402.892 53.66 A 1292.286 1292.286 0 0 0 402.9 53.65 Q 404.7 51.4 406.85 48.8 Q 409 46.2 410.9 44 Q 411.311 43.424 411.791 43.153 A 1.936 1.936 0 0 1 412 43.05 A 8.589 8.589 0 0 1 412.243 42.953 Q 412.644 42.8 412.8 42.8 A 5.092 5.092 0 0 1 413.786 42.887 Q 415.5 43.227 415.5 44.9 A 2.554 2.554 0 0 1 415.324 45.819 A 3.136 3.136 0 0 1 415.2 46.1 Q 406.2 58.5 404.4 65 Q 413.961 55.439 420.431 49.785 A 134.781 134.781 0 0 1 423.05 47.55 A 68.093 68.093 0 0 1 425.892 45.307 Q 430.745 41.7 433.1 41.7 A 8.226 8.226 0 0 1 434.005 41.747 Q 434.943 41.851 435.53 42.189 A 2.412 2.412 0 0 1 435.55 42.2 A 1.589 1.589 0 0 1 436.248 43.077 Q 436.4 43.508 436.4 44.1 Q 436.4 44.426 436.358 44.666 A 1.641 1.641 0 0 1 436.3 44.9 Q 436.045 45.496 433.258 49.129 A 326.237 326.237 0 0 1 432.2 50.5 A 209.626 209.626 0 0 0 430.101 53.095 Q 429.118 54.332 428.263 55.451 A 125.271 125.271 0 0 0 428.15 55.6 Q 426.4 57.9 425.3 59.6 Q 423.658 62.154 422.765 64.417 A 19.434 19.434 0 0 0 422.6 64.85 A 19.015 19.015 0 0 0 422.097 66.412 Q 421.898 67.141 421.799 67.789 A 8.02 8.02 0 0 0 421.7 69 Q 421.7 69.7 421.9 70.7 Q 422.076 71.578 422.868 71.685 A 1.733 1.733 0 0 0 423.1 71.7 A 4.211 4.211 0 0 0 424.459 71.434 Q 426.45 70.743 429.61 68.254 A 50.87 50.87 0 0 0 430.3 67.7 Q 432.6 65.7 434.6 63.65 A 139.743 139.743 0 0 0 437.947 60.101 A 127.174 127.174 0 0 0 438.4 59.6 A 6.106 6.106 0 0 0 438.627 59.358 Q 439.004 58.937 439.639 58.129 A 60.175 60.175 0 0 0 439.7 58.05 A 21.143 21.143 0 0 1 439.989 57.689 Q 440.52 57.039 440.727 56.925 A 0.161 0.161 0 0 1 440.8 56.9 Q 441.2 56.9 441.2 57.7 Q 441.2 58.071 440.813 58.915 A 12.007 12.007 0 0 1 440.75 59.05 Q 440.432 59.723 440.088 60.17 A 3.378 3.378 0 0 1 439.8 60.5 Q 438.958 61.496 437.5 63.077 A 199.327 199.327 0 0 1 436.55 64.1 A 75.413 75.413 0 0 1 433.667 67.014 A 91.196 91.196 0 0 1 431.75 68.8 Q 429.1 71.2 426.6 72.9 A 13.765 13.765 0 0 1 425.169 73.76 Q 423.536 74.6 422.2 74.6 Q 419.5 74.6 418.4 73.05 Q 417.3 71.5 417.3 69.2 A 19.447 19.447 0 0 1 418.269 63.297 Q 419.019 60.938 420.349 58.463 A 37.027 37.027 0 0 1 421.3 56.8 Z M 698.9 56.8 L 705.3 46.4 A 79.342 79.342 0 0 0 697.682 52.816 A 103.379 103.379 0 0 0 691.8 58.9 A 131.281 131.281 0 0 0 690.139 60.784 Q 689.296 61.757 688.374 62.855 A 229.439 229.439 0 0 0 687.75 63.6 A 176.764 176.764 0 0 0 685.542 66.307 Q 684.234 67.941 682.8 69.8 Q 679.2 74.5 678.5 74.5 Q 677.1 74.5 676.2 73.25 A 6.525 6.525 0 0 1 675.735 72.512 Q 675.524 72.116 675.416 71.749 A 2.637 2.637 0 0 1 675.3 71 Q 675.3 70.26 675.729 68.362 A 49.984 49.984 0 0 1 675.8 68.05 A 26.311 26.311 0 0 1 676.276 66.274 Q 676.555 65.368 676.879 64.586 A 15.603 15.603 0 0 1 677 64.3 Q 677.7 62.6 678.45 60.95 Q 679.2 59.3 679.9 57.7 L 673.9 64 L 672.7 65.2 A 7.429 7.429 0 0 1 672.282 65.59 Q 671.591 66.181 671.129 66.2 A 0.738 0.738 0 0 1 671.1 66.2 Q 670.6 66.2 670.6 65.5 A 0.749 0.749 0 0 1 670.614 65.364 Q 670.639 65.232 670.707 65.055 A 3.256 3.256 0 0 1 670.75 64.95 A 1.536 1.536 0 0 1 670.876 64.72 Q 671.025 64.49 671.292 64.211 A 6.493 6.493 0 0 1 671.4 64.1 Q 672.9 62.6 674.5 60.9 Q 676.1 59.2 677.8 57 A 182.751 182.751 0 0 0 678.306 56.378 Q 679.148 55.341 680.492 53.66 A 1292.286 1292.286 0 0 0 680.5 53.65 Q 682.3 51.4 684.45 48.8 Q 686.6 46.2 688.5 44 Q 688.911 43.424 689.391 43.153 A 1.936 1.936 0 0 1 689.6 43.05 A 8.589 8.589 0 0 1 689.843 42.953 Q 690.244 42.8 690.4 42.8 A 5.092 5.092 0 0 1 691.386 42.887 Q 693.1 43.227 693.1 44.9 A 2.554 2.554 0 0 1 692.924 45.819 A 3.136 3.136 0 0 1 692.8 46.1 Q 683.8 58.5 682 65 Q 691.561 55.439 698.031 49.785 A 134.781 134.781 0 0 1 700.65 47.55 A 68.093 68.093 0 0 1 703.492 45.307 Q 708.345 41.7 710.7 41.7 A 8.226 8.226 0 0 1 711.605 41.747 Q 712.543 41.851 713.13 42.189 A 2.412 2.412 0 0 1 713.15 42.2 A 1.589 1.589 0 0 1 713.848 43.077 Q 714 43.508 714 44.1 Q 714 44.426 713.958 44.666 A 1.641 1.641 0 0 1 713.9 44.9 Q 713.645 45.496 710.858 49.129 A 326.237 326.237 0 0 1 709.8 50.5 A 209.626 209.626 0 0 0 707.701 53.095 Q 706.718 54.332 705.863 55.451 A 125.271 125.271 0 0 0 705.75 55.6 Q 704 57.9 702.9 59.6 Q 701.258 62.154 700.365 64.417 A 19.434 19.434 0 0 0 700.2 64.85 A 19.015 19.015 0 0 0 699.697 66.412 Q 699.498 67.141 699.399 67.789 A 8.02 8.02 0 0 0 699.3 69 Q 699.3 69.7 699.5 70.7 Q 699.676 71.578 700.468 71.685 A 1.733 1.733 0 0 0 700.7 71.7 A 4.211 4.211 0 0 0 702.059 71.434 Q 704.05 70.743 707.21 68.254 A 50.87 50.87 0 0 0 707.9 67.7 Q 710.2 65.7 712.2 63.65 A 139.743 139.743 0 0 0 715.547 60.101 A 127.174 127.174 0 0 0 716 59.6 A 6.106 6.106 0 0 0 716.227 59.358 Q 716.604 58.937 717.239 58.129 A 60.175 60.175 0 0 0 717.3 58.05 A 21.143 21.143 0 0 1 717.589 57.689 Q 718.12 57.039 718.327 56.925 A 0.161 0.161 0 0 1 718.4 56.9 Q 718.8 56.9 718.8 57.7 Q 718.8 58.071 718.413 58.915 A 12.007 12.007 0 0 1 718.35 59.05 Q 718.032 59.723 717.688 60.17 A 3.378 3.378 0 0 1 717.4 60.5 Q 716.558 61.496 715.1 63.077 A 199.327 199.327 0 0 1 714.15 64.1 A 75.413 75.413 0 0 1 711.267 67.014 A 91.196 91.196 0 0 1 709.35 68.8 Q 706.7 71.2 704.2 72.9 A 13.765 13.765 0 0 1 702.769 73.76 Q 701.136 74.6 699.8 74.6 Q 697.1 74.6 696 73.05 Q 694.9 71.5 694.9 69.2 A 19.447 19.447 0 0 1 695.869 63.297 Q 696.619 60.938 697.949 58.463 A 37.027 37.027 0 0 1 698.9 56.8 Z M 90.4 62.3 L 104.2 46.1 A 10.694 10.694 0 0 1 105.939 44.47 Q 107.244 43.512 108.66 43.224 A 6.204 6.204 0 0 1 109.9 43.1 A 4.311 4.311 0 0 1 110.74 43.174 Q 112.057 43.437 112.186 44.63 A 2.511 2.511 0 0 1 112.2 44.9 A 1.646 1.646 0 0 1 111.916 45.815 A 2.415 2.415 0 0 1 111.6 46.2 A 35.973 35.973 0 0 0 110.33 47.472 Q 108.94 48.928 107.199 51.002 A 116.877 116.877 0 0 0 106.95 51.3 A 92.735 92.735 0 0 0 102.252 57.458 A 103.018 103.018 0 0 0 101.6 58.4 Q 99 62.2 97.25 65.65 A 25.16 25.16 0 0 0 96.404 67.484 Q 95.5 69.691 95.5 71.2 A 3.994 3.994 0 0 0 95.546 71.835 Q 95.734 73 96.7 73 Q 97.4 73 98.9 72.45 Q 100.4 71.9 102.9 70.15 Q 105.4 68.4 108.9 64.7 A 12.161 12.161 0 0 0 109.195 64.391 Q 109.925 63.605 111.774 61.476 A 482.723 482.723 0 0 0 112.1 61.1 Q 114.091 58.803 117.136 54.982 A 452.34 452.34 0 0 0 119.1 52.5 Q 126.52 43.273 129.053 42.823 A 1.414 1.414 0 0 1 129.3 42.8 A 5.982 5.982 0 0 1 130.6 42.929 Q 132.46 43.345 132.835 45.097 A 4.077 4.077 0 0 1 132.9 45.5 A 0.397 0.397 0 0 1 132.909 45.586 Q 132.909 46.508 129.544 50.429 A 103.214 103.214 0 0 1 128.7 51.4 A 435.483 435.483 0 0 0 126.075 54.606 Q 122.855 58.582 121.255 60.801 A 44.383 44.383 0 0 0 120.9 61.3 A 41.511 41.511 0 0 0 119.194 63.994 Q 117.679 66.622 117.21 68.58 A 6.993 6.993 0 0 0 117 70.2 A 4.776 4.776 0 0 0 117.057 70.976 Q 117.293 72.4 118.5 72.4 Q 120 72.4 122.35 70.95 Q 124.7 69.5 127.3 67.25 Q 129.9 65 132.35 62.55 A 97.194 97.194 0 0 0 134.571 60.259 Q 135.603 59.157 136.483 58.136 A 58.263 58.263 0 0 0 136.6 58 A 2.931 2.931 0 0 1 136.933 57.666 Q 137.122 57.507 137.311 57.417 A 1.131 1.131 0 0 1 137.8 57.3 A 0.864 0.864 0 0 1 138.037 57.33 Q 138.4 57.434 138.4 57.9 A 1.19 1.19 0 0 1 138.392 58.028 Q 138.378 58.155 138.34 58.331 A 5.828 5.828 0 0 1 138.3 58.5 A 1.218 1.218 0 0 1 138.184 58.787 Q 138.028 59.072 137.7 59.4 Q 136.1 61.2 133.6 63.85 A 89.016 89.016 0 0 1 128.919 68.449 A 98.457 98.457 0 0 1 128.2 69.1 Q 125.3 71.7 122.6 73.4 A 16.235 16.235 0 0 1 121.145 74.222 Q 119.524 75.022 118.247 75.093 A 4.427 4.427 0 0 1 118 75.1 Q 115.7 75.1 114 73.85 A 3.972 3.972 0 0 1 112.33 70.968 A 5.243 5.243 0 0 1 112.3 70.4 A 14.759 14.759 0 0 1 112.87 66.389 A 16.729 16.729 0 0 1 113 65.95 A 99.828 99.828 0 0 0 113.483 64.354 Q 113.666 63.727 113.821 63.164 A 49.453 49.453 0 0 0 114.1 62.1 A 107.068 107.068 0 0 1 111.275 65.284 Q 109.784 66.894 108.429 68.197 A 42.982 42.982 0 0 1 105.85 70.5 A 48.159 48.159 0 0 1 103.794 72.096 Q 101.569 73.72 99.9 74.45 Q 97.822 75.359 96.494 75.481 A 4.311 4.311 0 0 1 96.1 75.5 Q 91.6 75.5 91.6 69.8 A 9.006 9.006 0 0 1 91.79 68.031 Q 92.106 66.456 92.95 64.55 Q 94.213 61.697 96.483 58.537 A 48.449 48.449 0 0 1 96.8 58.1 L 95 59.8 A 48.862 48.862 0 0 0 93.58 61.202 Q 92.338 62.475 90.9 64.1 Q 90.5 64.5 89.9 64.5 A 0.453 0.453 0 0 1 89.725 64.469 Q 89.5 64.375 89.5 64 A 0.942 0.942 0 0 1 89.555 63.712 Q 89.7 63.271 90.232 62.53 A 13.434 13.434 0 0 1 90.4 62.3 Z M 630.8 62.3 L 644.6 46.1 A 10.694 10.694 0 0 1 646.339 44.47 Q 647.644 43.512 649.06 43.224 A 6.204 6.204 0 0 1 650.3 43.1 A 4.311 4.311 0 0 1 651.14 43.174 Q 652.457 43.437 652.586 44.63 A 2.511 2.511 0 0 1 652.6 44.9 A 1.646 1.646 0 0 1 652.316 45.815 A 2.415 2.415 0 0 1 652 46.2 A 35.973 35.973 0 0 0 650.73 47.472 Q 649.34 48.928 647.599 51.002 A 116.877 116.877 0 0 0 647.35 51.3 A 92.735 92.735 0 0 0 642.652 57.458 A 103.018 103.018 0 0 0 642 58.4 Q 639.4 62.2 637.65 65.65 A 25.16 25.16 0 0 0 636.804 67.484 Q 635.9 69.691 635.9 71.2 A 3.994 3.994 0 0 0 635.946 71.835 Q 636.134 73 637.1 73 Q 637.8 73 639.3 72.45 Q 640.8 71.9 643.3 70.15 Q 645.8 68.4 649.3 64.7 A 12.161 12.161 0 0 0 649.595 64.391 Q 650.325 63.605 652.174 61.476 A 482.723 482.723 0 0 0 652.5 61.1 Q 654.491 58.803 657.536 54.982 A 452.34 452.34 0 0 0 659.5 52.5 Q 666.92 43.273 669.453 42.823 A 1.414 1.414 0 0 1 669.7 42.8 A 5.982 5.982 0 0 1 671 42.929 Q 672.86 43.345 673.235 45.097 A 4.077 4.077 0 0 1 673.3 45.5 A 0.397 0.397 0 0 1 673.309 45.586 Q 673.309 46.508 669.944 50.429 A 103.214 103.214 0 0 1 669.1 51.4 A 435.483 435.483 0 0 0 666.475 54.606 Q 663.255 58.582 661.655 60.801 A 44.383 44.383 0 0 0 661.3 61.3 A 41.511 41.511 0 0 0 659.594 63.994 Q 658.079 66.622 657.61 68.58 A 6.993 6.993 0 0 0 657.4 70.2 A 4.776 4.776 0 0 0 657.457 70.976 Q 657.693 72.4 658.9 72.4 Q 660.4 72.4 662.75 70.95 Q 665.1 69.5 667.7 67.25 Q 670.3 65 672.75 62.55 A 97.194 97.194 0 0 0 674.971 60.259 Q 676.003 59.157 676.883 58.136 A 58.263 58.263 0 0 0 677 58 A 2.931 2.931 0 0 1 677.333 57.666 Q 677.522 57.507 677.711 57.417 A 1.131 1.131 0 0 1 678.2 57.3 A 0.864 0.864 0 0 1 678.437 57.33 Q 678.8 57.434 678.8 57.9 A 1.19 1.19 0 0 1 678.792 58.028 Q 678.778 58.155 678.74 58.331 A 5.828 5.828 0 0 1 678.7 58.5 A 1.218 1.218 0 0 1 678.584 58.787 Q 678.428 59.072 678.1 59.4 Q 676.5 61.2 674 63.85 A 89.016 89.016 0 0 1 669.319 68.449 A 98.457 98.457 0 0 1 668.6 69.1 Q 665.7 71.7 663 73.4 A 16.235 16.235 0 0 1 661.545 74.222 Q 659.924 75.022 658.647 75.093 A 4.427 4.427 0 0 1 658.4 75.1 Q 656.1 75.1 654.4 73.85 A 3.972 3.972 0 0 1 652.73 70.968 A 5.243 5.243 0 0 1 652.7 70.4 A 14.759 14.759 0 0 1 653.27 66.389 A 16.729 16.729 0 0 1 653.4 65.95 A 99.828 99.828 0 0 0 653.883 64.354 Q 654.066 63.727 654.221 63.164 A 49.453 49.453 0 0 0 654.5 62.1 A 107.068 107.068 0 0 1 651.675 65.284 Q 650.184 66.894 648.829 68.197 A 42.982 42.982 0 0 1 646.25 70.5 A 48.159 48.159 0 0 1 644.194 72.096 Q 641.969 73.72 640.3 74.45 Q 638.222 75.359 636.894 75.481 A 4.311 4.311 0 0 1 636.5 75.5 Q 632 75.5 632 69.8 A 9.006 9.006 0 0 1 632.19 68.031 Q 632.506 66.456 633.35 64.55 Q 634.613 61.697 636.883 58.537 A 48.449 48.449 0 0 1 637.2 58.1 L 635.4 59.8 A 48.862 48.862 0 0 0 633.98 61.202 Q 632.738 62.475 631.3 64.1 Q 630.9 64.5 630.3 64.5 A 0.453 0.453 0 0 1 630.125 64.469 Q 629.9 64.375 629.9 64 A 0.942 0.942 0 0 1 629.955 63.712 Q 630.1 63.271 630.632 62.53 A 13.434 13.434 0 0 1 630.8 62.3 Z M 359.7 66.5 A 23.151 23.151 0 0 0 359.704 66.943 Q 359.849 74.5 365 74.5 A 12.695 12.695 0 0 0 369.255 73.751 A 16.567 16.567 0 0 0 372.75 72 A 28.467 28.467 0 0 0 375.595 69.885 Q 377.825 68.005 379.848 65.563 A 38.908 38.908 0 0 0 379.9 65.5 A 39.277 39.277 0 0 0 380.897 64.24 A 34.325 34.325 0 0 0 385.1 57.1 Q 386.53 60.531 388.391 62.328 A 6.474 6.474 0 0 0 393 64.3 Q 395.417 64.3 397.683 62.43 A 14.121 14.121 0 0 0 399.5 60.6 A 8.278 8.278 0 0 0 399.833 60.109 Q 400.128 59.635 400.237 59.277 A 1.31 1.31 0 0 0 400.3 58.9 A 1.615 1.615 0 0 0 400.257 58.69 Q 400.118 58.2 399.7 58.2 A 1.131 1.131 0 0 0 399.211 58.317 Q 399.022 58.407 398.833 58.566 A 2.931 2.931 0 0 0 398.5 58.9 Q 395.6 62.1 393.4 62.1 A 3.762 3.762 0 0 1 390.671 60.932 A 6.348 6.348 0 0 1 389.75 59.75 A 15.565 15.565 0 0 1 388.777 57.922 A 11.942 11.942 0 0 1 387.9 55.1 A 39.279 39.279 0 0 1 387.92 55.018 Q 388.318 53.34 389.05 50.9 Q 389.8 48.4 389.8 45.9 A 8.173 8.173 0 0 0 389.8 45.865 Q 389.798 45.322 389.723 44.841 A 4.959 4.959 0 0 0 389.45 43.8 Q 389.216 43.199 388.692 42.955 A 1.822 1.822 0 0 0 388.1 42.8 A 6.808 6.808 0 0 0 387.797 42.76 Q 383.838 42.319 383.146 47.197 A 16.498 16.498 0 0 0 383 49.5 Q 383 52.6 383.7 54.7 A 13.633 13.633 0 0 1 383.319 55.874 Q 382.987 56.764 382.5 57.745 A 29.747 29.747 0 0 1 381.4 59.75 A 33.372 33.372 0 0 1 380.506 61.166 A 37.754 37.754 0 0 1 377.3 65.3 Q 374.9 68 372.3 69.8 A 13.845 13.845 0 0 1 371.457 70.341 Q 370.54 70.883 369.66 71.191 A 6.804 6.804 0 0 1 367.4 71.6 A 2.08 2.08 0 0 1 365.844 70.933 A 3.264 3.264 0 0 1 365.35 70.25 A 6.559 6.559 0 0 1 364.893 69.245 A 4.929 4.929 0 0 1 364.6 67.6 A 6.748 6.748 0 0 1 364.652 66.783 Q 365.083 63.26 369.056 57.117 A 88.971 88.971 0 0 1 371.9 53 Q 374.5 49.5 377.9 45.5 Q 381.3 41.5 385.5 36.9 Q 392.709 29.099 392.799 29.099 A 0.001 0.001 0 0 1 392.8 29.1 A 2.15 2.15 0 0 0 392.326 27.719 A 2.836 2.836 0 0 0 391.7 27.15 A 4.91 4.91 0 0 0 391.302 26.905 A 3.894 3.894 0 0 0 389.4 26.4 Q 384.363 26.4 375.562 37.689 A 133.685 133.685 0 0 0 371.3 43.5 A 198.384 198.384 0 0 0 368.501 47.635 Q 362.068 57.413 360.337 62.976 A 12.166 12.166 0 0 0 359.7 66.5 Z M 307.3 45.7 L 299.9 55.3 A 142.278 142.278 0 0 1 298.008 57.72 Q 294.53 62.06 293.184 62.833 A 1.037 1.037 0 0 1 292.7 63 A 0.917 0.917 0 0 1 292.518 62.984 Q 292.236 62.926 292.204 62.669 A 0.56 0.56 0 0 1 292.2 62.6 A 1.351 1.351 0 0 1 292.249 62.258 Q 292.356 61.85 292.7 61.3 A 3.656 3.656 0 0 1 292.916 60.931 Q 293.173 60.542 293.608 60.032 A 17.689 17.689 0 0 1 293.9 59.7 A 158.776 158.776 0 0 0 299.263 53.156 A 140.52 140.52 0 0 0 300.9 51 A 66.2 66.2 0 0 0 304.152 46.226 A 52.715 52.715 0 0 0 306.2 42.6 A 36.758 36.758 0 0 1 307.105 39.644 Q 309.156 33.9 312 33.9 A 3.651 3.651 0 0 1 312.882 33.997 Q 314.3 34.351 314.3 36 A 4.009 4.009 0 0 1 314.068 37.269 Q 313.538 38.845 311.8 41 Q 309.63 43.804 309.422 44.154 A 0.146 0.146 0 0 0 309.4 44.2 Q 309.4 46.3 312.5 46.3 A 5.967 5.967 0 0 0 314.152 46.051 Q 314.846 45.851 315.59 45.491 A 12.588 12.588 0 0 0 316.5 45 L 319.1 43.4 A 0.746 0.746 0 0 1 319.245 43.347 Q 319.425 43.3 319.7 43.3 A 2.649 2.649 0 0 1 321.511 44.012 A 3.705 3.705 0 0 1 321.8 44.3 Q 322.7 45.3 322.4 46.1 L 315.5 54.8 Q 310.484 61.227 309.399 65.688 A 9.81 9.81 0 0 0 309.1 68 A 6.654 6.654 0 0 0 309.311 69.754 Q 309.86 71.76 311.842 72.301 A 6.309 6.309 0 0 0 313.5 72.5 Q 316.219 72.5 319.307 71.022 A 20.876 20.876 0 0 0 319.95 70.7 A 38.893 38.893 0 0 0 325.63 67.058 A 43.86 43.86 0 0 0 326.65 66.25 Q 329.684 63.776 331.803 61.433 A 32.972 32.972 0 0 0 332.1 61.1 L 334.5 58.3 L 335 57.8 A 1.997 1.997 0 0 1 335.135 57.676 Q 335.274 57.561 335.388 57.521 A 0.341 0.341 0 0 1 335.5 57.5 A 1.008 1.008 0 0 1 335.777 57.535 Q 336.088 57.624 336.17 57.941 A 1.031 1.031 0 0 1 336.2 58.2 A 0.672 0.672 0 0 1 336.188 58.317 Q 336.154 58.503 336.028 58.829 A 7.262 7.262 0 0 1 336 58.9 A 3.007 3.007 0 0 1 335.798 59.306 Q 335.605 59.635 335.3 60 L 332.1 63.6 Q 329.809 66.19 326.476 68.83 A 59.807 59.807 0 0 1 326.45 68.85 Q 323.1 71.5 319.55 73.2 A 20.484 20.484 0 0 1 316.979 74.236 Q 314.913 74.9 313.1 74.9 Q 310.697 74.9 309.138 74.198 A 4.667 4.667 0 0 1 307.2 72.65 A 7.997 7.997 0 0 1 306.032 70.13 Q 305.6 68.574 305.6 66.6 Q 305.6 62.4 308.2 56.6 A 40.873 40.873 0 0 1 309.357 54.155 A 32.475 32.475 0 0 1 310.3 52.45 A 39.429 39.429 0 0 1 312.227 49.506 A 35.362 35.362 0 0 1 312.6 49 A 3.947 3.947 0 0 1 312.314 49.061 Q 312.088 49.1 311.9 49.1 L 311.3 49.1 Q 308.9 49.1 307.3 45.7 Z M 183.8 63.7 L 177.6 69.7 A 35.109 35.109 0 0 1 175.904 71.294 Q 174.097 72.875 172.55 73.7 A 15.77 15.77 0 0 1 171.352 74.28 Q 169.906 74.9 168.9 74.9 A 7.329 7.329 0 0 1 165.975 74.269 A 10.353 10.353 0 0 1 164.1 73.2 A 8.147 8.147 0 0 1 162.751 72.02 Q 161.907 71.084 161.574 70.002 A 4.858 4.858 0 0 1 161.4 69.2 A 10.374 10.374 0 0 1 161.315 67.863 Q 161.315 61.659 168.442 53.69 A 63.849 63.849 0 0 1 171.1 50.9 A 59.427 59.427 0 0 1 176.269 46.263 Q 182.345 41.468 187.657 40.529 A 14.589 14.589 0 0 1 190.2 40.3 Q 192.5 40.3 193.8 41.4 Q 194.5 42.1 194.85 43.3 A 12.568 12.568 0 0 0 194.966 43.677 Q 195.187 44.356 195.339 44.475 A 0.101 0.101 0 0 0 195.4 44.5 Q 195.8 44.5 196.1 44.35 A 1.397 1.397 0 0 1 196.508 44.222 A 1.859 1.859 0 0 1 196.8 44.2 A 2.863 2.863 0 0 1 198.842 45.043 A 3.757 3.757 0 0 1 198.9 45.1 A 6.084 6.084 0 0 1 199.322 45.564 Q 199.728 46.065 199.855 46.495 A 1.451 1.451 0 0 1 199.9 46.7 Q 200 46.9 193.5 56.6 Q 187 66.1 187.6 69.5 A 5.037 5.037 0 0 0 187.876 70.396 Q 188.076 70.868 188.359 71.181 A 1.853 1.853 0 0 0 189.8 71.8 A 6.077 6.077 0 0 0 192.598 70.917 Q 197.943 68.004 208.096 55.473 A 231.99 231.99 0 0 0 208.8 54.6 Q 209.071 54.238 209.343 54.204 A 0.453 0.453 0 0 1 209.4 54.2 Q 209.9 54.2 209.9 54.9 A 1.436 1.436 0 0 1 209.9 54.922 Q 209.888 55.717 209 56.9 Q 196.3 74 189.5 74 A 4.802 4.802 0 0 1 187.803 73.701 A 4.406 4.406 0 0 1 187.8 73.7 A 7.425 7.425 0 0 1 185.386 72.24 Q 183.866 70.825 183.509 68.564 A 9.402 9.402 0 0 1 183.4 67.1 Q 183.4 65.4 183.8 63.7 Z M 273.1 63.7 L 266.9 69.7 A 35.109 35.109 0 0 1 265.204 71.294 Q 263.397 72.875 261.85 73.7 A 15.77 15.77 0 0 1 260.652 74.28 Q 259.206 74.9 258.2 74.9 A 7.329 7.329 0 0 1 255.275 74.269 A 10.353 10.353 0 0 1 253.4 73.2 A 8.147 8.147 0 0 1 252.051 72.02 Q 251.207 71.084 250.874 70.002 A 4.858 4.858 0 0 1 250.7 69.2 A 10.374 10.374 0 0 1 250.615 67.863 Q 250.615 61.659 257.742 53.69 A 63.849 63.849 0 0 1 260.4 50.9 A 59.427 59.427 0 0 1 265.569 46.263 Q 271.645 41.468 276.957 40.529 A 14.589 14.589 0 0 1 279.5 40.3 Q 281.8 40.3 283.1 41.4 Q 283.8 42.1 284.15 43.3 A 12.568 12.568 0 0 0 284.266 43.677 Q 284.487 44.356 284.639 44.475 A 0.101 0.101 0 0 0 284.7 44.5 Q 285.1 44.5 285.4 44.35 A 1.397 1.397 0 0 1 285.808 44.222 A 1.859 1.859 0 0 1 286.1 44.2 A 2.863 2.863 0 0 1 288.142 45.043 A 3.757 3.757 0 0 1 288.2 45.1 A 6.084 6.084 0 0 1 288.622 45.564 Q 289.028 46.065 289.155 46.495 A 1.451 1.451 0 0 1 289.2 46.7 Q 289.3 46.9 282.8 56.6 Q 276.3 66.1 276.9 69.5 A 5.037 5.037 0 0 0 277.176 70.396 Q 277.376 70.868 277.659 71.181 A 1.853 1.853 0 0 0 279.1 71.8 A 6.077 6.077 0 0 0 281.898 70.917 Q 287.243 68.004 297.396 55.473 A 231.99 231.99 0 0 0 298.1 54.6 Q 298.371 54.238 298.643 54.204 A 0.453 0.453 0 0 1 298.7 54.2 Q 299.2 54.2 299.2 54.9 A 1.436 1.436 0 0 1 299.2 54.922 Q 299.188 55.717 298.3 56.9 Q 285.6 74 278.8 74 A 4.802 4.802 0 0 1 277.103 73.701 A 4.406 4.406 0 0 1 277.1 73.7 A 7.425 7.425 0 0 1 274.686 72.24 Q 273.166 70.825 272.809 68.564 A 9.402 9.402 0 0 1 272.7 67.1 Q 272.7 65.4 273.1 63.7 Z M 574.5 63.7 L 568.3 69.7 A 35.109 35.109 0 0 1 566.604 71.294 Q 564.797 72.875 563.25 73.7 A 15.77 15.77 0 0 1 562.052 74.28 Q 560.606 74.9 559.6 74.9 A 7.329 7.329 0 0 1 556.675 74.269 A 10.353 10.353 0 0 1 554.8 73.2 A 8.147 8.147 0 0 1 553.451 72.02 Q 552.607 71.084 552.274 70.002 A 4.858 4.858 0 0 1 552.1 69.2 A 10.374 10.374 0 0 1 552.015 67.863 Q 552.015 61.659 559.142 53.69 A 63.849 63.849 0 0 1 561.8 50.9 A 59.427 59.427 0 0 1 566.969 46.263 Q 573.045 41.468 578.357 40.529 A 14.589 14.589 0 0 1 580.9 40.3 Q 583.2 40.3 584.5 41.4 Q 585.2 42.1 585.55 43.3 A 12.568 12.568 0 0 0 585.666 43.677 Q 585.887 44.356 586.039 44.475 A 0.101 0.101 0 0 0 586.1 44.5 Q 586.5 44.5 586.8 44.35 A 1.397 1.397 0 0 1 587.208 44.222 A 1.859 1.859 0 0 1 587.5 44.2 A 2.863 2.863 0 0 1 589.542 45.043 A 3.757 3.757 0 0 1 589.6 45.1 A 6.084 6.084 0 0 1 590.022 45.564 Q 590.428 46.065 590.555 46.495 A 1.451 1.451 0 0 1 590.6 46.7 Q 590.7 46.9 584.2 56.6 Q 577.7 66.1 578.3 69.5 A 5.037 5.037 0 0 0 578.576 70.396 Q 578.776 70.868 579.059 71.181 A 1.853 1.853 0 0 0 580.5 71.8 A 6.077 6.077 0 0 0 583.298 70.917 Q 588.643 68.004 598.796 55.473 A 231.99 231.99 0 0 0 599.5 54.6 Q 599.771 54.238 600.043 54.204 A 0.453 0.453 0 0 1 600.1 54.2 Q 600.6 54.2 600.6 54.9 A 1.436 1.436 0 0 1 600.6 54.922 Q 600.588 55.717 599.7 56.9 Q 587 74 580.2 74 A 4.802 4.802 0 0 1 578.503 73.701 A 4.406 4.406 0 0 1 578.5 73.7 A 7.425 7.425 0 0 1 576.086 72.24 Q 574.566 70.825 574.209 68.564 A 9.402 9.402 0 0 1 574.1 67.1 Q 574.1 65.4 574.5 63.7 Z M 736.2 63.7 L 730 69.7 A 35.109 35.109 0 0 1 728.304 71.294 Q 726.497 72.875 724.95 73.7 A 15.77 15.77 0 0 1 723.752 74.28 Q 722.306 74.9 721.3 74.9 A 7.329 7.329 0 0 1 718.375 74.269 A 10.353 10.353 0 0 1 716.5 73.2 A 8.147 8.147 0 0 1 715.151 72.02 Q 714.307 71.084 713.974 70.002 A 4.858 4.858 0 0 1 713.8 69.2 A 10.374 10.374 0 0 1 713.715 67.863 Q 713.715 61.659 720.842 53.69 A 63.849 63.849 0 0 1 723.5 50.9 A 59.427 59.427 0 0 1 728.669 46.263 Q 734.745 41.468 740.057 40.529 A 14.589 14.589 0 0 1 742.6 40.3 Q 744.9 40.3 746.2 41.4 Q 746.9 42.1 747.25 43.3 A 12.568 12.568 0 0 0 747.366 43.677 Q 747.587 44.356 747.739 44.475 A 0.101 0.101 0 0 0 747.8 44.5 Q 748.2 44.5 748.5 44.35 A 1.397 1.397 0 0 1 748.908 44.222 A 1.859 1.859 0 0 1 749.2 44.2 A 2.863 2.863 0 0 1 751.242 45.043 A 3.757 3.757 0 0 1 751.3 45.1 A 6.084 6.084 0 0 1 751.722 45.564 Q 752.128 46.065 752.255 46.495 A 1.451 1.451 0 0 1 752.3 46.7 Q 752.4 46.9 745.9 56.6 Q 739.4 66.1 740 69.5 A 5.037 5.037 0 0 0 740.276 70.396 Q 740.476 70.868 740.759 71.181 A 1.853 1.853 0 0 0 742.2 71.8 A 6.077 6.077 0 0 0 744.998 70.917 Q 750.343 68.004 760.496 55.473 A 231.99 231.99 0 0 0 761.2 54.6 Q 761.471 54.238 761.743 54.204 A 0.453 0.453 0 0 1 761.8 54.2 Q 762.3 54.2 762.3 54.9 A 1.436 1.436 0 0 1 762.3 54.922 Q 762.288 55.717 761.4 56.9 Q 748.7 74 741.9 74 A 4.802 4.802 0 0 1 740.203 73.701 A 4.406 4.406 0 0 1 740.2 73.7 A 7.425 7.425 0 0 1 737.786 72.24 Q 736.266 70.825 735.909 68.564 A 9.402 9.402 0 0 1 735.8 67.1 Q 735.8 65.4 736.2 63.7 Z M 143.2 57 L 139.3 62.7 Q 138.7 63.6 138.05 65.8 Q 137.4 68 137.4 69.1 A 4.851 4.851 0 0 0 137.677 70.769 A 4.269 4.269 0 0 0 138.75 72.4 A 4.594 4.594 0 0 0 141.5 73.662 A 6.211 6.211 0 0 0 142.2 73.7 Q 147.2 73.7 155.4 67.2 A 71.607 71.607 0 0 0 160.677 62.631 Q 163.318 60.096 165.351 57.538 A 42.409 42.409 0 0 0 166 56.7 Q 166.5 56.1 167.2 56.1 A 1.83 1.83 0 0 1 167.438 56.114 Q 167.693 56.148 167.808 56.262 A 0.322 0.322 0 0 1 167.9 56.5 A 0.598 0.598 0 0 1 167.869 56.675 Q 167.784 56.946 167.471 57.4 A 7.834 7.834 0 0 1 167.4 57.5 Q 161.9 64.8 154.5 70.1 A 50.296 50.296 0 0 1 150.501 72.68 Q 146.387 75.044 143.199 75.558 A 10.687 10.687 0 0 1 141.5 75.7 Q 138.3 75.7 135.7 73.65 A 6.51 6.51 0 0 1 133.131 68.928 A 8.351 8.351 0 0 1 133.1 68.2 A 14.437 14.437 0 0 1 134.224 62.839 Q 136.227 57.83 141.8 52 A 51.315 51.315 0 0 1 146.131 47.975 Q 151.027 43.966 155.281 43.063 A 11.632 11.632 0 0 1 157.7 42.8 Q 160.1 42.8 161.5 44.05 A 4.27 4.27 0 0 1 162.499 45.331 A 3.915 3.915 0 0 1 162.9 47.1 Q 162.9 49.6 161.7 51.7 A 5.913 5.913 0 0 1 160.722 53.057 A 4.073 4.073 0 0 1 157.7 54.3 A 6.32 6.32 0 0 1 156.816 54.244 Q 155.8 54.1 155.386 53.585 A 1.365 1.365 0 0 1 155.1 52.7 A 2.815 2.815 0 0 1 155.197 52.016 Q 155.371 51.333 155.854 50.387 A 18.466 18.466 0 0 1 156.4 49.4 Q 157.8 47.1 157.8 47 A 0.183 0.183 0 0 0 157.771 46.895 Q 157.723 46.824 157.594 46.806 A 0.693 0.693 0 0 0 157.5 46.8 Q 155.345 47.031 151.886 49.336 A 43.468 43.468 0 0 0 149.7 50.9 A 74.776 74.776 0 0 0 147.698 52.5 Q 146.763 53.275 145.957 54.003 A 45.313 45.313 0 0 0 145.85 54.1 A 23.235 23.235 0 0 0 144.531 55.394 Q 143.763 56.213 143.2 57 Z M 232.5 57 L 228.6 62.7 Q 228 63.6 227.35 65.8 Q 226.7 68 226.7 69.1 A 4.851 4.851 0 0 0 226.977 70.769 A 4.269 4.269 0 0 0 228.05 72.4 A 4.594 4.594 0 0 0 230.8 73.662 A 6.211 6.211 0 0 0 231.5 73.7 Q 236.5 73.7 244.7 67.2 A 71.607 71.607 0 0 0 249.977 62.631 Q 252.618 60.096 254.651 57.538 A 42.409 42.409 0 0 0 255.3 56.7 Q 255.8 56.1 256.5 56.1 A 1.83 1.83 0 0 1 256.738 56.114 Q 256.993 56.148 257.108 56.262 A 0.322 0.322 0 0 1 257.2 56.5 A 0.598 0.598 0 0 1 257.169 56.675 Q 257.084 56.946 256.771 57.4 A 7.834 7.834 0 0 1 256.7 57.5 Q 251.2 64.8 243.8 70.1 A 50.296 50.296 0 0 1 239.801 72.68 Q 235.687 75.044 232.499 75.558 A 10.687 10.687 0 0 1 230.8 75.7 Q 227.6 75.7 225 73.65 A 6.51 6.51 0 0 1 222.431 68.928 A 8.351 8.351 0 0 1 222.4 68.2 A 14.437 14.437 0 0 1 223.524 62.839 Q 225.527 57.83 231.1 52 A 51.315 51.315 0 0 1 235.431 47.975 Q 240.327 43.966 244.581 43.063 A 11.632 11.632 0 0 1 247 42.8 Q 249.4 42.8 250.8 44.05 A 4.27 4.27 0 0 1 251.799 45.331 A 3.915 3.915 0 0 1 252.2 47.1 Q 252.2 49.6 251 51.7 A 5.913 5.913 0 0 1 250.022 53.057 A 4.073 4.073 0 0 1 247 54.3 A 6.32 6.32 0 0 1 246.116 54.244 Q 245.1 54.1 244.686 53.585 A 1.365 1.365 0 0 1 244.4 52.7 A 2.815 2.815 0 0 1 244.497 52.016 Q 244.671 51.333 245.154 50.387 A 18.466 18.466 0 0 1 245.7 49.4 Q 247.1 47.1 247.1 47 A 0.183 0.183 0 0 0 247.071 46.895 Q 247.023 46.824 246.894 46.806 A 0.693 0.693 0 0 0 246.8 46.8 Q 244.645 47.031 241.186 49.336 A 43.468 43.468 0 0 0 239 50.9 A 74.776 74.776 0 0 0 236.998 52.5 Q 236.063 53.275 235.257 54.003 A 45.313 45.313 0 0 0 235.15 54.1 A 23.235 23.235 0 0 0 233.831 55.394 Q 233.063 56.213 232.5 57 Z M 584.1 84.6 A 18.261 18.261 0 0 0 584.12 85.46 Q 584.388 91.158 588.3 93.3 A 1.09 1.09 0 0 0 588.394 93.351 Q 588.743 93.516 589.116 93.37 A 1.354 1.354 0 0 0 589.35 93.25 Q 589.539 93.13 589.663 92.992 A 0.863 0.863 0 0 0 589.9 92.4 L 589.85 92.35 A 0.148 0.148 0 0 1 589.822 92.312 Q 589.81 92.287 589.805 92.257 A 0.319 0.319 0 0 1 589.8 92.2 Q 589.2 91.2 588.55 90.05 Q 588.159 89.358 588.003 88.468 A 7.361 7.361 0 0 1 587.9 87.2 Q 587.9 86.085 588.223 84.624 A 22.846 22.846 0 0 1 588.65 83 Q 589.4 80.5 590.55 77.95 A 49.39 49.39 0 0 1 591.283 76.396 A 42.018 42.018 0 0 1 593 73.25 Q 593.894 71.772 594.693 70.885 A 6.527 6.527 0 0 1 595.4 70.2 A 17.826 17.826 0 0 0 596.82 71.726 Q 597.62 72.485 598.41 73.002 A 7.081 7.081 0 0 0 600.3 73.9 A 5.325 5.325 0 0 0 600.421 73.934 Q 602.156 74.4 606.5 74.4 A 13.661 13.661 0 0 0 607.07 74.388 Q 613.666 74.113 622.1 67.5 Q 631.8 59.9 631.8 51.8 A 8.827 8.827 0 0 0 631.799 51.688 Q 631.756 48.266 629.05 46.15 Q 626.534 44.183 622.888 44.183 A 14.123 14.123 0 0 0 622.2 44.2 A 8.76 8.76 0 0 0 622.167 44.204 Q 621.496 44.281 620.316 44.519 A 63.165 63.165 0 0 0 619.45 44.7 Q 617.6 45.1 615.85 45.75 A 15.27 15.27 0 0 0 615.418 45.918 Q 614.509 46.287 613.932 46.673 A 3.508 3.508 0 0 0 613.4 47.1 A 12.649 12.649 0 0 0 613.359 46.04 Q 613.256 44.816 612.892 44.16 A 1.307 1.307 0 0 0 611.7 43.4 Q 611.4 43.4 611.1 43.45 Q 610.8 43.5 610.4 43.6 A 3.297 3.297 0 0 0 610.311 43.629 Q 606.086 45.07 595.4 61 Q 586.881 73.59 584.784 80.611 A 14.235 14.235 0 0 0 584.1 84.6 Z M 526.6 51 L 539.2 39.2 Q 541.8 36.7 543.35 35.4 A 14.151 14.151 0 0 1 543.986 34.895 Q 544.924 34.196 545.46 34.112 A 0.901 0.901 0 0 1 545.6 34.1 A 6.271 6.271 0 0 1 546.758 34.197 Q 548.684 34.561 548.793 36.287 A 3.365 3.365 0 0 1 548.8 36.5 A 2.787 2.787 0 0 1 548.632 37.414 Q 548.363 38.189 547.661 39.098 A 10.655 10.655 0 0 1 547.5 39.3 Q 546.5 40.5 546.05 41.15 A 38.757 38.757 0 0 1 545.894 41.375 Q 545.623 41.759 545.526 41.872 A 0.544 0.544 0 0 1 545.5 41.9 Q 544.134 44.253 542.94 49.429 A 88.768 88.768 0 0 0 542.2 53 Q 541.155 58.606 540.38 62.317 A 225.715 225.715 0 0 1 540.3 62.7 Q 539.53 66.358 539.038 68.07 A 21.996 21.996 0 0 1 539 68.2 A 15.621 15.621 0 0 0 544.986 66.817 A 19.918 19.918 0 0 0 547.3 65.6 Q 551.4 63.1 556.1 57.4 L 556.7 56.8 Q 556.968 56.533 557.235 56.444 A 0.838 0.838 0 0 1 557.5 56.4 A 1.052 1.052 0 0 1 557.723 56.422 Q 558.044 56.492 558.092 56.79 A 0.702 0.702 0 0 1 558.1 56.9 A 1.789 1.789 0 0 1 557.96 57.584 A 2.346 2.346 0 0 1 557.8 57.9 Q 557.5 58.4 557.2 58.8 A 70.341 70.341 0 0 1 554.747 61.584 Q 553.003 63.455 551.4 64.85 A 23.954 23.954 0 0 1 547.273 67.762 A 21.325 21.325 0 0 1 545.7 68.55 Q 542.924 69.799 539.207 70.663 A 50.829 50.829 0 0 1 538.6 70.8 L 535.4 72.9 A 7.979 7.979 0 0 1 533.58 73.83 A 10.197 10.197 0 0 1 532.3 74.2 A 17.075 17.075 0 0 1 529.243 74.586 A 19.455 19.455 0 0 1 528.5 74.6 A 11.28 11.28 0 0 1 525.802 74.297 A 7.192 7.192 0 0 1 521.55 71.5 A 17.416 17.416 0 0 1 519.982 68.838 Q 519.303 67.431 518.729 65.729 A 38.955 38.955 0 0 1 517.9 62.9 Q 516.442 64.358 515.706 64.635 A 0.884 0.884 0 0 1 515.4 64.7 Q 514.923 64.7 514.901 63.971 A 2.391 2.391 0 0 1 514.9 63.9 A 1.42 1.42 0 0 1 515.17 63.073 A 2.025 2.025 0 0 1 515.4 62.8 L 517.95 59.7 A 40.282 40.282 0 0 1 519.447 57.994 Q 521.209 56.084 523.905 53.517 A 202.427 202.427 0 0 1 526.6 51 Z M 438.731 75.192 A 5.474 5.474 0 0 0 440.6 75.5 Q 444.6 75.5 448 73.55 Q 451.4 71.6 454.3 68.8 Q 457.2 66 459.6 63.6 A 54.815 54.815 0 0 0 460.781 62.385 Q 461.328 61.802 461.791 61.269 A 24.904 24.904 0 0 0 462.75 60.1 Q 463.648 58.928 463.845 58.367 A 0.834 0.834 0 0 0 463.9 58.1 Q 463.9 57.687 463.71 57.558 A 0.366 0.366 0 0 0 463.5 57.5 Q 463.3 57.5 462.55 58 Q 462.011 58.36 461.343 59.132 A 15.066 15.066 0 0 0 460.8 59.8 Q 459.8 61.05 458.429 62.456 A 58.122 58.122 0 0 1 456.65 64.2 Q 454.1 66.6 451.3 68.7 A 47.7 47.7 0 0 1 448.73 70.504 A 35.693 35.693 0 0 1 445.95 72.15 Q 444.197 73.078 442.893 73.368 A 5.06 5.06 0 0 1 441.8 73.5 Q 439.3 73.5 439.3 70.3 A 6.017 6.017 0 0 1 439.447 69.044 Q 440.152 65.759 444.251 59.941 A 96.707 96.707 0 0 1 446.8 56.5 L 454.4 46.7 A 1.226 1.226 0 0 0 454.384 46.502 Q 454.29 45.931 453.653 45.422 A 4.459 4.459 0 0 0 453.1 45.05 A 9.717 9.717 0 0 0 452.992 44.989 Q 452.214 44.553 451.582 44.393 A 2.787 2.787 0 0 0 450.9 44.3 Q 448.031 44.38 443.893 50.175 A 58.447 58.447 0 0 0 441.7 53.5 Q 440.3 55.7 438.85 58.5 A 46.099 46.099 0 0 0 438.324 59.548 A 40.733 40.733 0 0 0 436.45 64.05 Q 435.901 65.64 435.669 67.013 A 11.366 11.366 0 0 0 435.5 68.9 A 17.199 17.199 0 0 0 435.515 69.627 Q 435.594 71.499 436.095 72.717 A 4.017 4.017 0 0 0 436.95 74.05 A 4.797 4.797 0 0 0 438.731 75.192 Z M 338 74.6 L 336.4 74.6 A 4.162 4.162 0 0 1 333.089 73.079 A 6.002 6.002 0 0 1 332.5 72.25 Q 331.155 69.993 331.102 67.874 A 6.944 6.944 0 0 1 331.1 67.7 A 12 12 0 0 1 331.788 63.946 Q 333.547 58.663 339.8 50.9 Q 348.6 40 354 40 A 6.921 6.921 0 0 1 356.049 40.277 Q 358.302 40.976 358.891 43.435 A 8.452 8.452 0 0 1 359.1 45.4 A 9.622 9.622 0 0 1 359.041 46.439 A 11.735 11.735 0 0 1 358.95 47.1 Q 358.8 48 358.6 49 A 0.5 0.5 0 0 0 358.796 49.165 Q 359.063 49.3 359.6 49.3 A 9.617 9.617 0 0 0 361.766 49.033 Q 362.817 48.79 363.985 48.324 A 23.374 23.374 0 0 0 366 47.4 A 1.463 1.463 0 0 1 365.559 48.248 Q 364.237 49.711 358.953 51.945 A 85.666 85.666 0 0 1 358.1 52.3 Q 359.071 55.212 353.189 62.797 A 84.711 84.711 0 0 1 351.5 64.9 Q 345.939 71.728 341.518 73.75 A 8.478 8.478 0 0 1 338 74.6 Z M 183.8 60 L 194.4 45.4 A 2.628 2.628 0 0 0 192.515 44.063 A 3.911 3.911 0 0 0 191.8 44 A 10.889 10.889 0 0 0 187.914 44.819 Q 182.707 46.828 175.338 53.765 A 98.789 98.789 0 0 0 175.3 53.8 A 62.257 62.257 0 0 0 171.481 57.633 Q 165.498 64.231 165.498 69.069 A 7.369 7.369 0 0 0 165.6 70.3 A 4.851 4.851 0 0 0 165.898 71.265 Q 166.518 72.672 167.942 72.7 A 2.96 2.96 0 0 0 168 72.7 A 7.889 7.889 0 0 0 171.486 71.751 Q 176.043 69.473 182.406 61.733 A 105.469 105.469 0 0 0 183.8 60 Z M 273.1 60 L 283.7 45.4 A 2.628 2.628 0 0 0 281.815 44.063 A 3.911 3.911 0 0 0 281.1 44 A 10.889 10.889 0 0 0 277.214 44.819 Q 272.007 46.828 264.638 53.765 A 98.789 98.789 0 0 0 264.6 53.8 A 62.257 62.257 0 0 0 260.781 57.633 Q 254.798 64.231 254.798 69.069 A 7.369 7.369 0 0 0 254.9 70.3 A 4.851 4.851 0 0 0 255.198 71.265 Q 255.818 72.672 257.242 72.7 A 2.96 2.96 0 0 0 257.3 72.7 A 7.889 7.889 0 0 0 260.786 71.751 Q 265.343 69.473 271.706 61.733 A 105.469 105.469 0 0 0 273.1 60 Z M 574.5 60 L 585.1 45.4 A 2.628 2.628 0 0 0 583.215 44.063 A 3.911 3.911 0 0 0 582.5 44 A 10.889 10.889 0 0 0 578.614 44.819 Q 573.407 46.828 566.038 53.765 A 98.789 98.789 0 0 0 566 53.8 A 62.257 62.257 0 0 0 562.181 57.633 Q 556.198 64.231 556.198 69.069 A 7.369 7.369 0 0 0 556.3 70.3 A 4.851 4.851 0 0 0 556.598 71.265 Q 557.218 72.672 558.642 72.7 A 2.96 2.96 0 0 0 558.7 72.7 A 7.889 7.889 0 0 0 562.186 71.751 Q 566.743 69.473 573.106 61.733 A 105.469 105.469 0 0 0 574.5 60 Z M 736.2 60 L 746.8 45.4 A 2.628 2.628 0 0 0 744.915 44.063 A 3.911 3.911 0 0 0 744.2 44 A 10.889 10.889 0 0 0 740.314 44.819 Q 735.107 46.828 727.738 53.765 A 98.789 98.789 0 0 0 727.7 53.8 A 62.257 62.257 0 0 0 723.881 57.633 Q 717.898 64.231 717.898 69.069 A 7.369 7.369 0 0 0 718 70.3 A 4.851 4.851 0 0 0 718.298 71.265 Q 718.918 72.672 720.342 72.7 A 2.96 2.96 0 0 0 720.4 72.7 A 7.889 7.889 0 0 0 723.886 71.751 Q 728.443 69.473 734.806 61.733 A 105.469 105.469 0 0 0 736.2 60 Z M 605.2 71.6 A 13.702 13.702 0 0 0 609.639 70.799 Q 613.538 69.463 618.1 65.9 A 29.133 29.133 0 0 0 622.542 61.617 Q 624.978 58.661 625.987 55.455 A 15.417 15.417 0 0 0 626.7 50.8 A 4.34 4.34 0 0 0 626.406 49.138 Q 625.525 47 622 47 Q 617.7 47 614 48.9 A 3.354 3.354 0 0 0 613.463 49.187 Q 612.636 49.712 611.298 50.974 A 41.983 41.983 0 0 0 610.75 51.5 Q 608.5 53.7 604.8 57.5 Q 596.9 65.7 596.9 68 Q 596.9 69.572 599.415 70.61 A 12.046 12.046 0 0 0 600.2 70.9 Q 602.4 71.6 605.2 71.6 Z M 539.8 44.9 L 540.2 41.5 A 44.292 44.292 0 0 0 538.645 42.709 Q 536.806 44.2 534.4 46.4 Q 530.9 49.6 527.5 53.1 A 87.2 87.2 0 0 0 525.994 54.687 Q 523.955 56.894 523.172 58.134 A 7.338 7.338 0 0 0 523.1 58.25 Q 522.104 59.893 522.001 60.694 A 1.674 1.674 0 0 0 522 60.7 A 11.531 11.531 0 0 0 521.943 61.658 Q 521.919 63.116 522.299 64.338 A 6.764 6.764 0 0 0 523.95 67.1 A 7.721 7.721 0 0 0 529.541 69.499 A 9.53 9.53 0 0 0 529.7 69.5 A 7.921 7.921 0 0 0 531.375 69.332 Q 532.586 69.071 533.5 68.4 A 2.384 2.384 0 0 0 534.115 67.893 Q 534.895 67.027 535.65 65.05 Q 536.372 63.16 537.07 60.631 A 83.354 83.354 0 0 0 537.7 58.2 A 76.835 76.835 0 0 0 538.892 51.77 A 70.276 70.276 0 0 0 538.95 51.35 Q 539.4 48 539.8 44.9 Z M 338.2 71.6 A 6.551 6.551 0 0 0 340.945 70.913 Q 344.403 69.304 349.005 63.929 A 64.396 64.396 0 0 0 349.2 63.7 A 72.119 72.119 0 0 0 351.693 60.59 Q 355.149 56.002 355.624 53.385 A 4.401 4.401 0 0 0 355.7 52.6 A 5.116 5.116 0 0 1 354.794 51.925 Q 353.463 50.717 351.7 48 A 4.389 4.389 0 0 0 349.748 48.545 Q 346.65 50.114 341.9 56.2 A 57.847 57.847 0 0 0 339.373 59.644 Q 335.645 65.177 335.8 68.5 A 6.18 6.18 0 0 0 335.931 69.632 Q 336.367 71.6 338.2 71.6 Z M 55.4 49.5 L 56.1 48.5 A 74.843 74.843 0 0 1 56.534 47.856 Q 57.238 46.825 58.25 45.4 A 108.316 108.316 0 0 0 59.312 43.877 Q 59.775 43.201 60.272 42.457 A 189.899 189.899 0 0 0 61.3 40.9 A 8.084 8.084 0 0 0 60.51 40.616 Q 60.094 40.491 59.721 40.439 A 3.742 3.742 0 0 0 59.2 40.4 A 4.167 4.167 0 0 0 56.038 41.803 A 5.826 5.826 0 0 0 55.7 42.2 Q 54.3 44 54.3 46.2 A 5.508 5.508 0 0 0 54.638 48.154 A 5.04 5.04 0 0 0 55.4 49.5 Z M 459.1 40 Q 457.4 40 456.15 38.9 A 4.226 4.226 0 0 1 455.419 38.08 A 2.968 2.968 0 0 1 454.9 36.4 A 2.879 2.879 0 0 1 455.18 35.086 Q 455.788 33.884 457.717 33.654 A 8.345 8.345 0 0 1 458.7 33.6 A 4.459 4.459 0 0 1 460.472 33.981 A 6.175 6.175 0 0 1 461.5 34.55 A 3.89 3.89 0 0 1 462.238 35.188 A 2.515 2.515 0 0 1 462.9 36.9 A 2.223 2.223 0 0 1 462.43 38.254 Q 462.196 38.567 461.846 38.858 A 4.923 4.923 0 0 1 461.6 39.05 A 5.956 5.956 0 0 1 460.698 39.601 Q 460.16 39.863 459.64 39.953 A 3.158 3.158 0 0 1 459.1 40 Z M 59.8 51.2 A 15.726 15.726 0 0 0 60.204 51.195 Q 60.754 51.181 61.009 51.125 A 0.918 0.918 0 0 0 61.1 51.1 Q 62.4 50.9 65.1 49.5 Q 64.7 48.3 64.35 47.3 Q 64.049 46.441 63.859 45.729 A 14.861 14.861 0 0 1 63.8 45.5 Q 63.319 46.256 62.696 47.178 A 113.477 113.477 0 0 1 62.1 48.05 Q 61.1 49.5 59.8 51.2 Z" vector-effect="non-scaling-stroke"/></g></svg>
