<svg width="539.2" height="85.6" viewBox="0 0 539.2 85.6" xmlns="http://www.w3.org/2000/svg"><g id="svgGroup" stroke-linecap="round" fill-rule="evenodd" font-size="9pt" stroke="#000" stroke-width="0.25mm" fill="black" style="stroke:#000;stroke-width:0.25mm;fill:black">
<path d="M 50.9 42.5 L 58.6 32.7 Q 61.5 28.9 66.4 23.7 A 356.143 356.143 0 0 1 71.032 18.882 Q 73.432 16.43 76.151 13.729 A 632.218 632.218 0 0 1 78 11.9 Q 80.9 9.1 84.6 7.1 Q 88.3 5.1 90.9 5.1 Q 94.5 5.1 94.5 8.9 Q 94.5 12.2 91.8 17.9 A 308.981 308.981 0 0 1 88.847 23.952 Q 87.511 26.62 85.999 29.532 A 564.833 564.833 0 0 1 82.8 35.6 Q 81.1 38.7 80.5 40.9 A 70.968 70.968 0 0 1 80.289 41.658 Q 79.863 43.157 79.7 43.4 A 29.663 29.663 0 0 1 79.891 43.165 Q 80.372 42.576 81.557 41.161 A 783.851 783.851 0 0 1 81.65 41.05 Q 82.837 39.634 84.756 37.426 A 597.491 597.491 0 0 1 86 36 Q 89.4 32.2 94.1 27.65 Q 98.8 23.1 104.9 17.9 L 120.9 4.7 A 10.134 10.134 0 0 1 121.937 3.927 Q 123.222 3.1 124.3 3.1 A 1.912 1.912 0 0 1 125.905 3.925 Q 126.128 4.224 126.302 4.632 A 4.645 4.645 0 0 1 126.35 4.75 Q 126.792 5.872 127.257 7.432 A 61.484 61.484 0 0 1 127.7 9 Q 128.194 10.68 123.025 15.973 A 72.804 72.804 0 0 1 122.9 16.1 Q 110.4 28.9 101.3 44.7 A 137.645 137.645 0 0 0 97.865 51.099 Q 93 60.824 93 65.8 A 6.628 6.628 0 0 0 93.067 66.786 Q 93.258 68.049 93.995 68.479 A 1.766 1.766 0 0 0 94.9 68.7 A 3.091 3.091 0 0 0 95.536 68.614 Q 97.075 68.274 100.9 66.6 A 126.547 126.547 0 0 1 102.599 65.846 Q 104.853 64.866 105.948 64.525 A 6.397 6.397 0 0 1 106.4 64.4 A 1.594 1.594 0 0 1 106.595 64.493 Q 106.804 64.611 106.87 64.759 A 0.343 0.343 0 0 1 106.9 64.9 Q 106.9 66.126 103.359 68.154 A 41.069 41.069 0 0 1 101.6 69.1 Q 96.689 71.65 93.295 71.792 A 9.453 9.453 0 0 1 92.9 71.8 Q 91.26 71.8 90.616 71.053 A 1.557 1.557 0 0 1 90.5 70.9 A 10.011 10.011 0 0 1 88.867 66.753 A 13.373 13.373 0 0 1 88.7 64.6 A 23.354 23.354 0 0 1 89.428 59.17 Q 90.773 53.603 94.603 46.011 A 134.123 134.123 0 0 1 97.9 39.9 Q 102.417 32.167 110.686 20.331 A 680.978 680.978 0 0 1 116.1 12.7 Q 110.9 17 104.8 22.6 Q 98.7 28.2 91.7 35 Q 85.444 41.119 80.771 46.222 A 165.244 165.244 0 0 0 76.85 50.65 Q 72.111 56.214 69.58 60.181 A 37.007 37.007 0 0 0 68.6 61.8 A 13.763 13.763 0 0 1 67.186 63.911 Q 66.317 64.963 65.348 65.588 A 5.524 5.524 0 0 1 62.3 66.5 A 3.567 3.567 0 0 1 61.701 66.454 Q 60.631 66.271 60.601 65.354 A 1.638 1.638 0 0 1 60.6 65.3 A 1.159 1.159 0 0 1 60.706 64.825 Q 60.778 64.663 60.9 64.5 Q 62.421 62.085 64.742 58.269 A 964.418 964.418 0 0 0 65.3 57.35 A 1264.064 1264.064 0 0 0 67.466 53.767 Q 69.388 50.575 71.7 46.7 A 543.6 543.6 0 0 0 76.719 37.782 Q 82.045 28.092 85.359 20.941 A 135.709 135.709 0 0 0 87.2 16.8 A 45.427 45.427 0 0 0 87.939 14.858 Q 88.895 12.144 88.9 10.716 A 4.263 4.263 0 0 0 88.9 10.7 A 3.445 3.445 0 0 0 88.858 10.136 Q 88.691 9.136 87.86 9.101 A 1.452 1.452 0 0 0 87.8 9.1 Q 86.408 9.1 83.551 11.427 A 33.485 33.485 0 0 0 83.1 11.8 A 139.596 139.596 0 0 0 74.49 19.708 Q 70.209 23.956 65.59 29.118 A 311.603 311.603 0 0 0 58.2 37.7 Q 52.4 44.6 48.05 50.45 Q 43.7 56.3 40.7 61 Q 38.525 64.353 38.321 65.982 A 2.569 2.569 0 0 0 38.3 66.3 A 1.243 1.243 0 0 0 38.342 66.633 A 0.821 0.821 0 0 0 38.75 67.15 L 39.2 67.4 Q 39.2 67.488 37.83 68.564 A 108.584 108.584 0 0 1 37.4 68.9 A 7.614 7.614 0 0 1 34.716 69.656 A 9.35 9.35 0 0 1 33.8 69.7 A 13.52 13.52 0 0 1 32.676 69.658 Q 29.953 69.429 30.254 67.978 A 1.811 1.811 0 0 1 30.3 67.8 Q 31.516 63.892 37.633 54.48 A 262.106 262.106 0 0 1 39.6 51.5 A 978.356 978.356 0 0 0 43.762 45.271 Q 49.38 36.785 52.013 32.321 A 73.317 73.317 0 0 0 53 30.6 Q 58.595 20.496 59.518 13.809 A 18.38 18.38 0 0 0 59.7 11.3 A 15.094 15.094 0 0 0 59.5 8.75 Q 58.979 5.718 57.1 4.2 Q 55.233 2.692 51.975 2.267 A 21.502 21.502 0 0 0 49.2 2.1 A 30.723 30.723 0 0 0 37.347 4.606 Q 33.172 6.341 28.902 9.28 A 63.453 63.453 0 0 0 25 12.2 Q 19.6 16.6 14.9 22.15 A 56.67 56.67 0 0 0 8.915 30.636 A 50.084 50.084 0 0 0 7.3 33.7 A 30.077 30.077 0 0 0 5.048 39.973 A 24.34 24.34 0 0 0 4.4 45.5 A 15.95 15.95 0 0 0 4.865 49.537 Q 6.216 54.685 11.491 55.668 A 14.805 14.805 0 0 0 14.2 55.9 A 25.415 25.415 0 0 0 22.019 54.757 A 19.988 19.988 0 0 0 32 47.6 A 15.849 15.849 0 0 0 33.317 45.478 Q 33.926 44.28 34.193 43.14 A 7.626 7.626 0 0 0 34.4 41.4 A 4.481 4.481 0 0 0 34.332 40.586 Q 34.25 40.146 34.072 39.814 A 1.809 1.809 0 0 0 33.4 39.1 Q 33.317 39.017 33.303 38.866 A 0.703 0.703 0 0 1 33.3 38.8 A 0.366 0.366 0 0 1 33.358 38.59 Q 33.487 38.4 33.9 38.4 Q 36.182 38.4 36.461 41.02 A 7.384 7.384 0 0 1 36.5 41.8 A 6.485 6.485 0 0 1 36.297 43.335 Q 35.952 44.745 35.021 46.512 A 24.394 24.394 0 0 1 34.7 47.1 Q 32.4 51.1 27.8 53.9 Q 22 57.5 15 57.5 A 17.407 17.407 0 0 1 10.1 56.844 A 13.303 13.303 0 0 1 4.1 53.2 A 14.574 14.574 0 0 1 0.298 45.478 A 20.605 20.605 0 0 1 0 41.9 A 28.015 28.015 0 0 1 3.532 28.696 Q 8.213 19.867 19.096 10.827 A 109.09 109.09 0 0 1 20.6 9.6 A 33.919 33.919 0 0 1 25.624 6.337 A 43.265 43.265 0 0 1 29.65 4.45 Q 34.9 2.3 40.5 1.15 Q 46.1 0 50.8 0 Q 57.6 0 61.15 2.25 A 7.177 7.177 0 0 1 64.201 6.371 Q 64.591 7.644 64.676 9.204 A 16.417 16.417 0 0 1 64.7 10.1 A 23.83 23.83 0 0 1 64.157 14.887 Q 63.167 19.681 60.369 26.028 A 103.985 103.985 0 0 1 59 29 A 43.515 43.515 0 0 1 57.909 31.07 Q 55.724 34.997 50.9 42.5 Z M 475.8 47.5 L 482.2 37.1 A 79.342 79.342 0 0 0 474.582 43.516 A 103.379 103.379 0 0 0 468.7 49.6 A 131.281 131.281 0 0 0 467.039 51.484 Q 466.197 52.457 465.274 53.555 A 229.439 229.439 0 0 0 464.65 54.3 A 176.764 176.764 0 0 0 462.442 57.007 Q 461.135 58.641 459.7 60.5 Q 456.1 65.2 455.4 65.2 Q 454 65.2 453.1 63.95 A 6.525 6.525 0 0 1 452.635 63.212 Q 452.425 62.816 452.316 62.449 A 2.637 2.637 0 0 1 452.2 61.7 Q 452.2 60.96 452.629 59.062 A 49.984 49.984 0 0 1 452.7 58.75 A 26.311 26.311 0 0 1 453.176 56.974 Q 453.455 56.068 453.779 55.286 A 15.603 15.603 0 0 1 453.9 55 Q 454.6 53.3 455.35 51.65 Q 456.1 50 456.8 48.4 L 450.8 54.7 L 449.6 55.9 A 7.429 7.429 0 0 1 449.182 56.29 Q 448.491 56.881 448.029 56.9 A 0.738 0.738 0 0 1 448 56.9 Q 447.5 56.9 447.5 56.2 A 0.749 0.749 0 0 1 447.514 56.064 Q 447.539 55.932 447.607 55.755 A 3.256 3.256 0 0 1 447.65 55.65 A 1.536 1.536 0 0 1 447.776 55.42 Q 447.925 55.191 448.192 54.911 A 6.493 6.493 0 0 1 448.3 54.8 Q 449.8 53.3 451.4 51.6 Q 453 49.9 454.7 47.7 A 182.751 182.751 0 0 0 455.206 47.078 Q 456.048 46.041 457.392 44.36 A 1292.286 1292.286 0 0 0 457.4 44.35 Q 459.2 42.1 461.35 39.5 Q 463.5 36.9 465.4 34.7 Q 465.812 34.124 466.291 33.853 A 1.936 1.936 0 0 1 466.5 33.75 A 8.589 8.589 0 0 1 466.744 33.653 Q 467.144 33.5 467.3 33.5 A 5.092 5.092 0 0 1 468.286 33.587 Q 470 33.927 470 35.6 A 2.554 2.554 0 0 1 469.824 36.519 A 3.136 3.136 0 0 1 469.7 36.8 Q 460.7 49.2 458.9 55.7 Q 468.461 46.139 474.931 40.485 A 134.781 134.781 0 0 1 477.55 38.25 A 68.093 68.093 0 0 1 480.393 36.007 Q 485.245 32.4 487.6 32.4 A 8.226 8.226 0 0 1 488.506 32.447 Q 489.443 32.551 490.03 32.889 A 2.412 2.412 0 0 1 490.05 32.9 A 1.589 1.589 0 0 1 490.748 33.777 Q 490.9 34.208 490.9 34.8 Q 490.9 35.126 490.858 35.366 A 1.641 1.641 0 0 1 490.8 35.6 Q 490.545 36.196 487.758 39.829 A 326.237 326.237 0 0 1 486.7 41.2 A 209.626 209.626 0 0 0 484.601 43.795 Q 483.618 45.032 482.764 46.152 A 125.271 125.271 0 0 0 482.65 46.3 Q 480.9 48.6 479.8 50.3 Q 478.158 52.854 477.265 55.117 A 19.434 19.434 0 0 0 477.1 55.55 A 19.015 19.015 0 0 0 476.597 57.112 Q 476.399 57.842 476.299 58.489 A 8.02 8.02 0 0 0 476.2 59.7 Q 476.2 60.4 476.4 61.4 Q 476.576 62.278 477.369 62.385 A 1.733 1.733 0 0 0 477.6 62.4 A 4.211 4.211 0 0 0 478.959 62.134 Q 480.95 61.443 484.11 58.954 A 50.87 50.87 0 0 0 484.8 58.4 Q 487.1 56.4 489.1 54.35 A 139.743 139.743 0 0 0 492.447 50.801 A 127.174 127.174 0 0 0 492.9 50.3 A 6.106 6.106 0 0 0 493.127 50.058 Q 493.504 49.637 494.139 48.829 A 60.175 60.175 0 0 0 494.2 48.75 A 21.143 21.143 0 0 1 494.489 48.389 Q 495.021 47.739 495.227 47.625 A 0.161 0.161 0 0 1 495.3 47.6 Q 495.7 47.6 495.7 48.4 Q 495.7 48.771 495.313 49.615 A 12.007 12.007 0 0 1 495.25 49.75 Q 494.932 50.423 494.588 50.87 A 3.378 3.378 0 0 1 494.3 51.2 Q 493.458 52.196 492 53.777 A 199.327 199.327 0 0 1 491.05 54.8 A 75.413 75.413 0 0 1 488.167 57.714 A 91.196 91.196 0 0 1 486.25 59.5 Q 483.6 61.9 481.1 63.6 A 13.765 13.765 0 0 1 479.669 64.46 Q 478.036 65.3 476.7 65.3 Q 474 65.3 472.9 63.75 Q 471.8 62.2 471.8 59.9 A 19.447 19.447 0 0 1 472.769 53.997 Q 473.519 51.638 474.849 49.163 A 37.027 37.027 0 0 1 475.8 47.5 Z M 407.7 53 L 421.5 36.8 A 10.694 10.694 0 0 1 423.239 35.17 Q 424.544 34.212 425.961 33.924 A 6.204 6.204 0 0 1 427.2 33.8 A 4.311 4.311 0 0 1 428.04 33.875 Q 429.357 34.137 429.486 35.33 A 2.511 2.511 0 0 1 429.5 35.6 A 1.646 1.646 0 0 1 429.217 36.515 A 2.415 2.415 0 0 1 428.9 36.9 A 35.973 35.973 0 0 0 427.63 38.172 Q 426.24 39.628 424.5 41.702 A 116.877 116.877 0 0 0 424.25 42 A 92.735 92.735 0 0 0 419.553 48.158 A 103.018 103.018 0 0 0 418.9 49.1 Q 416.3 52.9 414.55 56.35 A 25.16 25.16 0 0 0 413.704 58.184 Q 412.8 60.391 412.8 61.9 A 3.994 3.994 0 0 0 412.846 62.535 Q 413.035 63.7 414 63.7 Q 414.7 63.7 416.2 63.15 Q 417.7 62.6 420.2 60.85 Q 422.7 59.1 426.2 55.4 A 12.161 12.161 0 0 0 426.495 55.091 Q 427.225 54.305 429.074 52.176 A 482.723 482.723 0 0 0 429.4 51.8 Q 431.391 49.503 434.437 45.682 A 452.34 452.34 0 0 0 436.4 43.2 Q 443.82 33.973 446.353 33.523 A 1.414 1.414 0 0 1 446.6 33.5 A 5.982 5.982 0 0 1 447.9 33.629 Q 449.76 34.045 450.135 35.797 A 4.077 4.077 0 0 1 450.2 36.2 A 0.397 0.397 0 0 1 450.209 36.286 Q 450.209 37.208 446.844 41.129 A 103.214 103.214 0 0 1 446 42.1 A 435.483 435.483 0 0 0 443.375 45.307 Q 440.155 49.282 438.555 51.501 A 44.383 44.383 0 0 0 438.2 52 A 41.511 41.511 0 0 0 436.494 54.694 Q 434.979 57.322 434.51 59.28 A 6.993 6.993 0 0 0 434.3 60.9 A 4.776 4.776 0 0 0 434.357 61.676 Q 434.593 63.1 435.8 63.1 Q 437.3 63.1 439.65 61.65 Q 442 60.2 444.6 57.95 Q 447.2 55.7 449.65 53.25 A 97.194 97.194 0 0 0 451.871 50.959 Q 452.903 49.857 453.783 48.836 A 58.263 58.263 0 0 0 453.9 48.7 A 2.931 2.931 0 0 1 454.233 48.366 Q 454.422 48.207 454.611 48.117 A 1.131 1.131 0 0 1 455.1 48 A 0.864 0.864 0 0 1 455.338 48.03 Q 455.7 48.134 455.7 48.6 A 1.19 1.19 0 0 1 455.692 48.728 Q 455.678 48.855 455.64 49.031 A 5.828 5.828 0 0 1 455.6 49.2 A 1.218 1.218 0 0 1 455.484 49.487 Q 455.328 49.772 455 50.1 Q 453.4 51.9 450.9 54.55 A 89.016 89.016 0 0 1 446.219 59.149 A 98.457 98.457 0 0 1 445.5 59.8 Q 442.6 62.4 439.9 64.1 A 16.235 16.235 0 0 1 438.445 64.922 Q 436.825 65.722 435.547 65.793 A 4.427 4.427 0 0 1 435.3 65.8 Q 433 65.8 431.3 64.55 A 3.972 3.972 0 0 1 429.63 61.668 A 5.243 5.243 0 0 1 429.6 61.1 A 14.759 14.759 0 0 1 430.17 57.089 A 16.729 16.729 0 0 1 430.3 56.65 A 99.828 99.828 0 0 0 430.783 55.054 Q 430.967 54.427 431.121 53.864 A 49.453 49.453 0 0 0 431.4 52.8 A 107.068 107.068 0 0 1 428.575 55.984 Q 427.084 57.594 425.729 58.897 A 42.982 42.982 0 0 1 423.15 61.2 A 48.159 48.159 0 0 1 421.094 62.796 Q 418.869 64.42 417.2 65.15 Q 415.122 66.059 413.794 66.181 A 4.311 4.311 0 0 1 413.4 66.2 Q 408.9 66.2 408.9 60.5 A 9.006 9.006 0 0 1 409.09 58.731 Q 409.406 57.157 410.25 55.25 Q 411.513 52.397 413.783 49.237 A 48.449 48.449 0 0 1 414.1 48.8 L 412.3 50.5 A 48.862 48.862 0 0 0 410.88 51.902 Q 409.638 53.175 408.2 54.8 Q 407.8 55.2 407.2 55.2 A 0.453 0.453 0 0 1 407.025 55.169 Q 406.8 55.075 406.8 54.7 A 0.942 0.942 0 0 1 406.855 54.412 Q 407 53.971 407.532 53.23 A 13.434 13.434 0 0 1 407.7 53 Z M 172.6 60.5 L 177.6 50.6 L 170.1 58.2 A 67.393 67.393 0 0 1 168.005 60.212 Q 165.874 62.166 164.164 63.324 A 19.73 19.73 0 0 1 164.05 63.4 A 19.036 19.036 0 0 1 162.856 64.139 Q 161.683 64.801 160.819 65.007 A 3.116 3.116 0 0 1 160.1 65.1 A 7.144 7.144 0 0 1 157.194 64.459 A 10.26 10.26 0 0 1 155.3 63.35 A 8.422 8.422 0 0 1 153.951 62.143 Q 152.802 60.846 152.6 59.3 A 10.374 10.374 0 0 1 152.515 57.963 Q 152.515 51.76 159.642 43.79 A 63.849 63.849 0 0 1 162.3 41 A 60.676 60.676 0 0 1 167.506 36.407 Q 175.1 30.5 181.4 30.5 Q 183.7 30.5 185 31.6 A 2.882 2.882 0 0 1 185.596 32.322 Q 185.87 32.782 186.05 33.4 A 12.568 12.568 0 0 0 186.166 33.777 Q 186.388 34.456 186.539 34.575 A 0.101 0.101 0 0 0 186.6 34.6 Q 187 34.6 187.3 34.45 A 1.397 1.397 0 0 1 187.709 34.322 A 1.859 1.859 0 0 1 188 34.3 A 3.075 3.075 0 0 1 189.12 34.498 A 2.796 2.796 0 0 1 190.15 35.2 A 2.947 2.947 0 0 1 190.481 35.616 Q 190.778 36.073 190.778 36.531 A 1.477 1.477 0 0 1 190.7 37 A 2.018 2.018 0 0 1 190.568 37.464 Q 190.164 38.514 188.559 41.165 A 118.718 118.718 0 0 1 187.8 42.4 A 140.247 140.247 0 0 0 186.38 44.826 Q 185.759 45.91 185.089 47.116 A 263.435 263.435 0 0 0 183.7 49.65 Q 181.4 53.9 178.85 58.45 Q 176.3 63 173.9 66.95 A 108.849 108.849 0 0 1 172.188 69.682 Q 170.795 71.828 169.6 73.4 A 54.825 54.825 0 0 1 165.197 78.594 Q 160.083 83.858 155.26 85.167 A 12.024 12.024 0 0 1 152.1 85.6 A 6.308 6.308 0 0 1 147.402 83.547 A 8.774 8.774 0 0 1 147 83.1 A 9.903 9.903 0 0 1 145.475 80.679 A 8.12 8.12 0 0 1 144.8 77.7 Q 144.996 76.919 145.318 76.646 A 0.578 0.578 0 0 1 145.7 76.5 A 0.455 0.455 0 0 1 146.08 76.718 Q 146.313 77.047 146.387 77.872 A 7.381 7.381 0 0 1 146.4 78.05 A 3.841 3.841 0 0 0 146.874 79.632 Q 147.16 80.164 147.617 80.69 A 8.008 8.008 0 0 0 148 81.1 Q 149.5 82.6 150.9 82.6 A 10.588 10.588 0 0 0 155.617 81.41 Q 158.888 79.791 162.335 75.972 A 41.673 41.673 0 0 0 163.1 75.1 Q 165.4 72.4 167.85 68.75 A 67.616 67.616 0 0 0 170.559 64.343 A 85.558 85.558 0 0 0 172.6 60.5 Z M 133.6 54.4 L 127.4 60.4 A 35.109 35.109 0 0 1 125.704 61.994 Q 123.897 63.575 122.35 64.4 A 15.77 15.77 0 0 1 121.152 64.98 Q 119.706 65.6 118.7 65.6 A 7.329 7.329 0 0 1 115.775 64.969 A 10.353 10.353 0 0 1 113.9 63.9 A 8.147 8.147 0 0 1 112.551 62.72 Q 111.707 61.784 111.374 60.702 A 4.858 4.858 0 0 1 111.2 59.9 A 10.374 10.374 0 0 1 111.115 58.563 Q 111.115 52.36 118.242 44.39 A 63.849 63.849 0 0 1 120.9 41.6 A 59.427 59.427 0 0 1 126.069 36.963 Q 132.145 32.168 137.457 31.229 A 14.589 14.589 0 0 1 140 31 Q 142.3 31 143.6 32.1 Q 144.3 32.8 144.65 34 A 12.568 12.568 0 0 0 144.766 34.377 Q 144.988 35.056 145.139 35.175 A 0.101 0.101 0 0 0 145.2 35.2 Q 145.6 35.2 145.9 35.05 A 1.397 1.397 0 0 1 146.309 34.922 A 1.859 1.859 0 0 1 146.6 34.9 A 2.863 2.863 0 0 1 148.642 35.743 A 3.757 3.757 0 0 1 148.7 35.8 A 6.084 6.084 0 0 1 149.122 36.264 Q 149.528 36.765 149.655 37.195 A 1.451 1.451 0 0 1 149.7 37.4 Q 149.8 37.6 143.3 47.3 Q 136.8 56.8 137.4 60.2 A 5.037 5.037 0 0 0 137.676 61.096 Q 137.876 61.568 138.159 61.881 A 1.853 1.853 0 0 0 139.6 62.5 A 6.077 6.077 0 0 0 142.398 61.617 Q 147.743 58.704 157.896 46.173 A 231.99 231.99 0 0 0 158.6 45.3 Q 158.872 44.938 159.143 44.904 A 0.453 0.453 0 0 1 159.2 44.9 Q 159.7 44.9 159.7 45.6 A 1.436 1.436 0 0 1 159.7 45.622 Q 159.688 46.417 158.8 47.6 Q 146.1 64.7 139.3 64.7 A 4.802 4.802 0 0 1 137.603 64.401 A 4.406 4.406 0 0 1 137.6 64.4 A 7.425 7.425 0 0 1 135.186 62.94 Q 133.666 61.525 133.309 59.264 A 9.402 9.402 0 0 1 133.2 57.8 Q 133.2 56.1 133.6 54.4 Z M 254.5 54.4 L 248.3 60.4 A 35.109 35.109 0 0 1 246.604 61.994 Q 244.797 63.575 243.25 64.4 A 15.77 15.77 0 0 1 242.052 64.98 Q 240.606 65.6 239.6 65.6 A 7.329 7.329 0 0 1 236.675 64.969 A 10.353 10.353 0 0 1 234.8 63.9 A 8.147 8.147 0 0 1 233.451 62.72 Q 232.607 61.784 232.274 60.702 A 4.858 4.858 0 0 1 232.1 59.9 A 10.374 10.374 0 0 1 232.015 58.563 Q 232.015 52.36 239.142 44.39 A 63.849 63.849 0 0 1 241.8 41.6 A 59.427 59.427 0 0 1 246.969 36.963 Q 253.045 32.168 258.357 31.229 A 14.589 14.589 0 0 1 260.9 31 Q 263.2 31 264.5 32.1 Q 265.2 32.8 265.55 34 A 12.568 12.568 0 0 0 265.666 34.377 Q 265.888 35.056 266.039 35.175 A 0.101 0.101 0 0 0 266.1 35.2 Q 266.5 35.2 266.8 35.05 A 1.397 1.397 0 0 1 267.209 34.922 A 1.859 1.859 0 0 1 267.5 34.9 A 2.863 2.863 0 0 1 269.542 35.743 A 3.757 3.757 0 0 1 269.6 35.8 A 6.084 6.084 0 0 1 270.022 36.264 Q 270.428 36.765 270.555 37.195 A 1.451 1.451 0 0 1 270.6 37.4 Q 270.7 37.6 264.2 47.3 Q 257.7 56.8 258.3 60.2 A 5.037 5.037 0 0 0 258.576 61.096 Q 258.776 61.568 259.059 61.881 A 1.853 1.853 0 0 0 260.5 62.5 A 6.077 6.077 0 0 0 263.298 61.617 Q 268.643 58.704 278.796 46.173 A 231.99 231.99 0 0 0 279.5 45.3 Q 279.772 44.938 280.043 44.904 A 0.453 0.453 0 0 1 280.1 44.9 Q 280.6 44.9 280.6 45.6 A 1.436 1.436 0 0 1 280.6 45.622 Q 280.588 46.417 279.7 47.6 Q 267 64.7 260.2 64.7 A 4.802 4.802 0 0 1 258.503 64.401 A 4.406 4.406 0 0 1 258.5 64.4 A 7.425 7.425 0 0 1 256.086 62.94 Q 254.566 61.525 254.209 59.264 A 9.402 9.402 0 0 1 254.1 57.8 Q 254.1 56.1 254.5 54.4 Z M 351.4 54.4 L 345.2 60.4 A 35.109 35.109 0 0 1 343.504 61.994 Q 341.697 63.575 340.15 64.4 A 15.77 15.77 0 0 1 338.952 64.98 Q 337.506 65.6 336.5 65.6 A 7.329 7.329 0 0 1 333.575 64.969 A 10.353 10.353 0 0 1 331.7 63.9 A 8.147 8.147 0 0 1 330.351 62.72 Q 329.507 61.784 329.174 60.702 A 4.858 4.858 0 0 1 329 59.9 A 10.374 10.374 0 0 1 328.915 58.563 Q 328.915 52.36 336.042 44.39 A 63.849 63.849 0 0 1 338.7 41.6 A 59.427 59.427 0 0 1 343.869 36.963 Q 349.945 32.168 355.257 31.229 A 14.589 14.589 0 0 1 357.8 31 Q 360.1 31 361.4 32.1 Q 362.1 32.8 362.45 34 A 12.568 12.568 0 0 0 362.566 34.377 Q 362.788 35.056 362.939 35.175 A 0.101 0.101 0 0 0 363 35.2 Q 363.4 35.2 363.7 35.05 A 1.397 1.397 0 0 1 364.109 34.922 A 1.859 1.859 0 0 1 364.4 34.9 A 2.863 2.863 0 0 1 366.442 35.743 A 3.757 3.757 0 0 1 366.5 35.8 A 6.084 6.084 0 0 1 366.922 36.264 Q 367.328 36.765 367.455 37.195 A 1.451 1.451 0 0 1 367.5 37.4 Q 367.6 37.6 361.1 47.3 Q 354.6 56.8 355.2 60.2 A 5.037 5.037 0 0 0 355.476 61.096 Q 355.676 61.568 355.959 61.881 A 1.853 1.853 0 0 0 357.4 62.5 A 6.077 6.077 0 0 0 360.198 61.617 Q 365.543 58.704 375.696 46.173 A 231.99 231.99 0 0 0 376.4 45.3 Q 376.672 44.938 376.943 44.904 A 0.453 0.453 0 0 1 377 44.9 Q 377.5 44.9 377.5 45.6 A 1.436 1.436 0 0 1 377.5 45.622 Q 377.488 46.417 376.6 47.6 Q 363.9 64.7 357.1 64.7 A 4.802 4.802 0 0 1 355.403 64.401 A 4.406 4.406 0 0 1 355.4 64.4 A 7.425 7.425 0 0 1 352.986 62.94 Q 351.466 61.525 351.109 59.264 A 9.402 9.402 0 0 1 351 57.8 Q 351 56.1 351.4 54.4 Z M 513.1 54.4 L 506.9 60.4 A 35.109 35.109 0 0 1 505.204 61.994 Q 503.397 63.575 501.85 64.4 A 15.77 15.77 0 0 1 500.652 64.98 Q 499.206 65.6 498.2 65.6 A 7.329 7.329 0 0 1 495.275 64.969 A 10.353 10.353 0 0 1 493.4 63.9 A 8.147 8.147 0 0 1 492.051 62.72 Q 491.207 61.784 490.874 60.702 A 4.858 4.858 0 0 1 490.7 59.9 A 10.374 10.374 0 0 1 490.615 58.563 Q 490.615 52.36 497.742 44.39 A 63.849 63.849 0 0 1 500.4 41.6 A 59.427 59.427 0 0 1 505.569 36.963 Q 511.645 32.168 516.957 31.229 A 14.589 14.589 0 0 1 519.5 31 Q 521.8 31 523.1 32.1 Q 523.8 32.8 524.15 34 A 12.568 12.568 0 0 0 524.266 34.377 Q 524.488 35.056 524.639 35.175 A 0.101 0.101 0 0 0 524.7 35.2 Q 525.1 35.2 525.4 35.05 A 1.397 1.397 0 0 1 525.809 34.922 A 1.859 1.859 0 0 1 526.1 34.9 A 2.863 2.863 0 0 1 528.142 35.743 A 3.757 3.757 0 0 1 528.2 35.8 A 6.084 6.084 0 0 1 528.622 36.264 Q 529.028 36.765 529.155 37.195 A 1.451 1.451 0 0 1 529.2 37.4 Q 529.3 37.6 522.8 47.3 Q 516.3 56.8 516.9 60.2 A 5.037 5.037 0 0 0 517.176 61.096 Q 517.376 61.568 517.659 61.881 A 1.853 1.853 0 0 0 519.1 62.5 A 6.077 6.077 0 0 0 521.898 61.617 Q 527.243 58.704 537.396 46.173 A 231.99 231.99 0 0 0 538.1 45.3 Q 538.372 44.938 538.643 44.904 A 0.453 0.453 0 0 1 538.7 44.9 Q 539.2 44.9 539.2 45.6 A 1.436 1.436 0 0 1 539.2 45.622 Q 539.188 46.417 538.3 47.6 Q 525.6 64.7 518.8 64.7 A 4.802 4.802 0 0 1 517.103 64.401 A 4.406 4.406 0 0 1 517.1 64.4 A 7.425 7.425 0 0 1 514.686 62.94 Q 513.166 61.525 512.809 59.264 A 9.402 9.402 0 0 1 512.7 57.8 Q 512.7 56.1 513.1 54.4 Z M 221.3 41.1 L 224.6 37.6 A 8.87 8.87 0 0 1 225.85 36.598 Q 226.624 36.093 227.397 35.872 A 4.361 4.361 0 0 1 228.6 35.7 A 4.867 4.867 0 0 1 229.586 35.791 Q 231.079 36.101 231.272 37.471 A 3.083 3.083 0 0 1 231.3 37.9 A 0.67 0.67 0 0 1 231.245 38.091 Q 230.918 38.932 228.636 43.013 A 426.884 426.884 0 0 1 227.8 44.5 L 223.4 52.1 A 427.591 427.591 0 0 1 219.769 58.894 Q 216.33 65.18 213.779 69.207 A 66.788 66.788 0 0 1 211.5 72.6 Q 202.4 85.6 194.4 85.6 Q 191.4 85.6 188.9 83.7 Q 186.448 81.814 186.309 79.928 A 3.084 3.084 0 0 1 186.3 79.7 A 6.058 6.058 0 0 1 186.329 79.079 Q 186.394 78.456 186.602 78.136 A 0.68 0.68 0 0 1 187.2 77.8 A 0.131 0.131 0 0 1 187.253 77.839 Q 187.496 78.073 188.745 79.703 A 203.828 203.828 0 0 1 189.2 80.3 Q 190.792 82.37 192.764 82.792 A 4.934 4.934 0 0 0 193.8 82.9 Q 201.8 82.9 212 64.8 A 217.334 217.334 0 0 0 214.698 59.781 Q 216.108 57.067 217.25 54.65 Q 218.98 50.989 220.095 47.943 A 52.528 52.528 0 0 0 220.6 46.5 Q 219.911 47.266 218.753 48.413 A 105.713 105.713 0 0 1 218 49.15 Q 216.3 50.8 214.75 52.05 A 14.069 14.069 0 0 1 214.113 52.537 Q 213.047 53.3 212.5 53.3 A 0.432 0.432 0 0 1 212.381 53.285 Q 212.248 53.247 212.213 53.111 A 0.442 0.442 0 0 1 212.2 53 Q 212.2 52.1 213.5 50.9 A 14.896 14.896 0 0 0 214.723 49.73 Q 215.984 48.393 217.495 46.308 A 60.082 60.082 0 0 0 218 45.6 A 444.165 444.165 0 0 1 218.686 44.633 Q 220.841 41.604 221.262 41.141 A 1.183 1.183 0 0 1 221.3 41.1 Z M 361 75.3 A 18.261 18.261 0 0 0 361.02 76.16 Q 361.289 81.858 365.2 84 A 1.09 1.09 0 0 0 365.294 84.051 Q 365.643 84.216 366.016 84.071 A 1.354 1.354 0 0 0 366.25 83.95 Q 366.439 83.83 366.563 83.692 A 0.863 0.863 0 0 0 366.8 83.1 L 366.75 83.05 A 0.148 0.148 0 0 1 366.723 83.012 Q 366.71 82.987 366.705 82.957 A 0.319 0.319 0 0 1 366.7 82.9 Q 366.1 81.9 365.45 80.75 Q 365.059 80.058 364.903 79.168 A 7.361 7.361 0 0 1 364.8 77.9 Q 364.8 76.785 365.123 75.324 A 22.846 22.846 0 0 1 365.55 73.7 Q 366.3 71.2 367.45 68.65 A 49.39 49.39 0 0 1 368.184 67.096 A 42.018 42.018 0 0 1 369.9 63.95 Q 370.794 62.472 371.593 61.585 A 6.527 6.527 0 0 1 372.3 60.9 A 17.826 17.826 0 0 0 373.72 62.426 Q 374.52 63.185 375.31 63.702 A 7.081 7.081 0 0 0 377.2 64.6 A 5.325 5.325 0 0 0 377.321 64.634 Q 379.056 65.1 383.4 65.1 A 13.661 13.661 0 0 0 383.97 65.088 Q 390.567 64.813 399 58.2 Q 408.7 50.6 408.7 42.5 A 8.827 8.827 0 0 0 408.699 42.388 Q 408.656 38.966 405.95 36.85 Q 403.434 34.883 399.788 34.883 A 14.123 14.123 0 0 0 399.1 34.9 A 8.76 8.76 0 0 0 399.067 34.904 Q 398.396 34.981 397.216 35.219 A 63.165 63.165 0 0 0 396.35 35.4 Q 394.5 35.8 392.75 36.45 A 15.27 15.27 0 0 0 392.318 36.618 Q 391.409 36.987 390.832 37.373 A 3.508 3.508 0 0 0 390.3 37.8 A 12.649 12.649 0 0 0 390.259 36.74 Q 390.156 35.516 389.792 34.86 A 1.307 1.307 0 0 0 388.6 34.1 Q 388.3 34.1 388 34.15 Q 387.7 34.2 387.3 34.3 A 3.297 3.297 0 0 0 387.211 34.329 Q 382.986 35.77 372.3 51.7 Q 363.781 64.29 361.685 71.311 A 14.235 14.235 0 0 0 361 75.3 Z M 303.5 41.7 L 316.1 29.9 Q 318.7 27.4 320.25 26.1 A 14.151 14.151 0 0 1 320.886 25.595 Q 321.824 24.896 322.36 24.812 A 0.901 0.901 0 0 1 322.5 24.8 A 6.271 6.271 0 0 1 323.658 24.897 Q 325.584 25.261 325.694 26.987 A 3.365 3.365 0 0 1 325.7 27.2 A 2.787 2.787 0 0 1 325.532 28.114 Q 325.263 28.89 324.561 29.798 A 10.655 10.655 0 0 1 324.4 30 Q 323.4 31.2 322.95 31.85 A 38.757 38.757 0 0 1 322.794 32.075 Q 322.523 32.459 322.426 32.572 A 0.544 0.544 0 0 1 322.4 32.6 Q 321.034 34.953 319.84 40.129 A 88.768 88.768 0 0 0 319.1 43.7 Q 318.055 49.306 317.281 53.017 A 225.715 225.715 0 0 1 317.2 53.4 Q 316.43 57.058 315.938 58.77 A 21.996 21.996 0 0 1 315.9 58.9 A 15.621 15.621 0 0 0 321.886 57.517 A 19.918 19.918 0 0 0 324.2 56.3 Q 328.3 53.8 333 48.1 L 333.6 47.5 Q 333.868 47.233 334.135 47.144 A 0.838 0.838 0 0 1 334.4 47.1 A 1.052 1.052 0 0 1 334.623 47.122 Q 334.944 47.192 334.992 47.49 A 0.702 0.702 0 0 1 335 47.6 A 1.789 1.789 0 0 1 334.86 48.284 A 2.346 2.346 0 0 1 334.7 48.6 Q 334.4 49.1 334.1 49.5 A 70.341 70.341 0 0 1 331.647 52.284 Q 329.903 54.155 328.3 55.55 A 23.954 23.954 0 0 1 324.173 58.463 A 21.325 21.325 0 0 1 322.6 59.25 Q 319.824 60.499 316.107 61.363 A 50.829 50.829 0 0 1 315.5 61.5 L 312.3 63.6 A 7.979 7.979 0 0 1 310.48 64.53 A 10.197 10.197 0 0 1 309.2 64.9 A 17.075 17.075 0 0 1 306.143 65.286 A 19.455 19.455 0 0 1 305.4 65.3 A 11.28 11.28 0 0 1 302.702 64.998 A 7.192 7.192 0 0 1 298.45 62.2 A 17.416 17.416 0 0 1 296.882 59.538 Q 296.203 58.132 295.629 56.429 A 38.955 38.955 0 0 1 294.8 53.6 Q 293.342 55.058 292.606 55.335 A 0.884 0.884 0 0 1 292.3 55.4 Q 291.823 55.4 291.801 54.671 A 2.391 2.391 0 0 1 291.8 54.6 A 1.42 1.42 0 0 1 292.07 53.773 A 2.025 2.025 0 0 1 292.3 53.5 L 294.85 50.4 A 40.282 40.282 0 0 1 296.347 48.694 Q 298.109 46.784 300.805 44.217 A 202.427 202.427 0 0 1 303.5 41.7 Z M 191.931 65.892 A 5.474 5.474 0 0 0 193.8 66.2 Q 197.8 66.2 201.2 64.25 Q 204.6 62.3 207.5 59.5 Q 210.4 56.7 212.8 54.3 A 54.815 54.815 0 0 0 213.981 53.085 Q 214.528 52.502 214.991 51.969 A 24.904 24.904 0 0 0 215.95 50.8 Q 216.849 49.628 217.045 49.067 A 0.834 0.834 0 0 0 217.1 48.8 Q 217.1 48.387 216.91 48.258 A 0.366 0.366 0 0 0 216.7 48.2 Q 216.5 48.2 215.75 48.7 Q 215.211 49.06 214.543 49.832 A 15.066 15.066 0 0 0 214 50.5 Q 213 51.75 211.629 53.157 A 58.122 58.122 0 0 1 209.85 54.9 Q 207.3 57.3 204.5 59.4 A 47.7 47.7 0 0 1 201.93 61.204 A 35.693 35.693 0 0 1 199.15 62.85 Q 197.397 63.778 196.093 64.068 A 5.06 5.06 0 0 1 195 64.2 Q 192.5 64.2 192.5 61 A 6.017 6.017 0 0 1 192.647 59.744 Q 193.352 56.459 197.451 50.641 A 96.707 96.707 0 0 1 200 47.2 L 207.6 37.4 A 1.226 1.226 0 0 0 207.584 37.202 Q 207.49 36.631 206.854 36.122 A 4.459 4.459 0 0 0 206.3 35.75 A 9.717 9.717 0 0 0 206.192 35.689 Q 205.414 35.253 204.782 35.093 A 2.787 2.787 0 0 0 204.1 35 Q 201.231 35.08 197.093 40.875 A 58.447 58.447 0 0 0 194.9 44.2 Q 193.5 46.4 192.05 49.2 A 46.099 46.099 0 0 0 191.524 50.249 A 40.733 40.733 0 0 0 189.65 54.75 Q 189.101 56.34 188.869 57.713 A 11.366 11.366 0 0 0 188.7 59.6 A 17.199 17.199 0 0 0 188.715 60.327 Q 188.794 62.199 189.295 63.417 A 4.017 4.017 0 0 0 190.15 64.75 A 4.797 4.797 0 0 0 191.931 65.892 Z M 175 50.1 L 185.6 35.5 Q 185.005 34.112 183.133 34.1 A 5.11 5.11 0 0 0 183.1 34.1 A 11.111 11.111 0 0 0 179.165 34.919 Q 173.894 36.933 166.5 43.9 A 65.39 65.39 0 0 0 162.681 47.797 Q 156.698 54.48 156.698 59.202 A 6.953 6.953 0 0 0 156.8 60.4 A 4.851 4.851 0 0 0 157.099 61.365 Q 157.718 62.772 159.142 62.8 A 2.96 2.96 0 0 0 159.2 62.8 A 7.889 7.889 0 0 0 162.686 61.851 Q 167.243 59.573 173.607 51.833 A 105.469 105.469 0 0 0 175 50.1 Z M 133.6 50.7 L 144.2 36.1 A 2.628 2.628 0 0 0 142.315 34.763 A 3.911 3.911 0 0 0 141.6 34.7 A 10.889 10.889 0 0 0 137.714 35.519 Q 132.507 37.528 125.138 44.465 A 98.789 98.789 0 0 0 125.1 44.5 A 62.257 62.257 0 0 0 121.281 48.333 Q 115.298 54.931 115.298 59.769 A 7.369 7.369 0 0 0 115.4 61 A 4.851 4.851 0 0 0 115.699 61.965 Q 116.318 63.372 117.742 63.4 A 2.96 2.96 0 0 0 117.8 63.4 A 7.889 7.889 0 0 0 121.286 62.451 Q 125.843 60.173 132.207 52.433 A 105.469 105.469 0 0 0 133.6 50.7 Z M 254.5 50.7 L 265.1 36.1 A 2.628 2.628 0 0 0 263.215 34.763 A 3.911 3.911 0 0 0 262.5 34.7 A 10.889 10.889 0 0 0 258.614 35.519 Q 253.407 37.528 246.038 44.465 A 98.789 98.789 0 0 0 246 44.5 A 62.257 62.257 0 0 0 242.181 48.333 Q 236.198 54.931 236.198 59.769 A 7.369 7.369 0 0 0 236.3 61 A 4.851 4.851 0 0 0 236.599 61.965 Q 237.218 63.372 238.642 63.4 A 2.96 2.96 0 0 0 238.7 63.4 A 7.889 7.889 0 0 0 242.186 62.451 Q 246.743 60.173 253.107 52.433 A 105.469 105.469 0 0 0 254.5 50.7 Z M 351.4 50.7 L 362 36.1 A 2.628 2.628 0 0 0 360.115 34.763 A 3.911 3.911 0 0 0 359.4 34.7 A 10.889 10.889 0 0 0 355.514 35.519 Q 350.307 37.528 342.938 44.465 A 98.789 98.789 0 0 0 342.9 44.5 A 62.257 62.257 0 0 0 339.081 48.333 Q 333.098 54.931 333.098 59.769 A 7.369 7.369 0 0 0 333.2 61 A 4.851 4.851 0 0 0 333.499 61.965 Q 334.118 63.372 335.542 63.4 A 2.96 2.96 0 0 0 335.6 63.4 A 7.889 7.889 0 0 0 339.086 62.451 Q 343.643 60.173 350.007 52.433 A 105.469 105.469 0 0 0 351.4 50.7 Z M 513.1 50.7 L 523.7 36.1 A 2.628 2.628 0 0 0 521.815 34.763 A 3.911 3.911 0 0 0 521.1 34.7 A 10.889 10.889 0 0 0 517.214 35.519 Q 512.007 37.528 504.638 44.465 A 98.789 98.789 0 0 0 504.6 44.5 A 62.257 62.257 0 0 0 500.781 48.333 Q 494.798 54.931 494.798 59.769 A 7.369 7.369 0 0 0 494.9 61 A 4.851 4.851 0 0 0 495.199 61.965 Q 495.818 63.372 497.242 63.4 A 2.96 2.96 0 0 0 497.3 63.4 A 7.889 7.889 0 0 0 500.786 62.451 Q 505.343 60.173 511.707 52.433 A 105.469 105.469 0 0 0 513.1 50.7 Z M 382.1 62.3 A 13.702 13.702 0 0 0 386.539 61.499 Q 390.438 60.163 395 56.6 A 29.133 29.133 0 0 0 399.442 52.317 Q 401.879 49.361 402.887 46.155 A 15.417 15.417 0 0 0 403.6 41.5 A 4.34 4.34 0 0 0 403.306 39.838 Q 402.425 37.7 398.9 37.7 Q 394.6 37.7 390.9 39.6 A 3.354 3.354 0 0 0 390.363 39.887 Q 389.536 40.412 388.198 41.674 A 41.983 41.983 0 0 0 387.65 42.2 Q 385.4 44.4 381.7 48.2 Q 373.8 56.4 373.8 58.7 Q 373.8 60.272 376.315 61.31 A 12.046 12.046 0 0 0 377.1 61.6 Q 379.3 62.3 382.1 62.3 Z M 316.7 35.6 L 317.1 32.2 A 44.292 44.292 0 0 0 315.545 33.409 Q 313.706 34.9 311.3 37.1 Q 307.8 40.3 304.4 43.8 A 87.2 87.2 0 0 0 302.894 45.387 Q 300.856 47.594 300.072 48.834 A 7.338 7.338 0 0 0 300 48.95 Q 299.004 50.593 298.901 51.394 A 1.674 1.674 0 0 0 298.9 51.4 A 11.531 11.531 0 0 0 298.843 52.358 Q 298.819 53.816 299.199 55.038 A 6.764 6.764 0 0 0 300.85 57.8 A 7.721 7.721 0 0 0 306.441 60.199 A 9.53 9.53 0 0 0 306.6 60.2 A 7.921 7.921 0 0 0 308.275 60.032 Q 309.486 59.771 310.4 59.1 A 2.384 2.384 0 0 0 311.015 58.593 Q 311.795 57.727 312.55 55.75 Q 313.272 53.86 313.97 51.331 A 83.354 83.354 0 0 0 314.6 48.9 A 76.835 76.835 0 0 0 315.793 42.47 A 70.276 70.276 0 0 0 315.85 42.05 Q 316.3 38.7 316.7 35.6 Z M 233.6 30.5 Q 231.9 30.5 230.65 29.45 A 3.976 3.976 0 0 1 229.915 28.653 A 2.871 2.871 0 0 1 229.4 27 Q 229.4 24.455 232.328 24.144 A 8.269 8.269 0 0 1 233.2 24.1 A 4.245 4.245 0 0 1 234.906 24.472 A 6.026 6.026 0 0 1 236 25.1 A 4.102 4.102 0 0 1 236.738 25.764 A 2.602 2.602 0 0 1 237.4 27.5 A 2.162 2.162 0 0 1 236.892 28.883 Q 236.588 29.263 236.1 29.6 Q 235.06 30.32 234.085 30.464 A 3.312 3.312 0 0 1 233.6 30.5 Z M 212.3 30.7 Q 210.6 30.7 209.35 29.6 A 4.226 4.226 0 0 1 208.619 28.78 A 2.968 2.968 0 0 1 208.1 27.1 A 2.879 2.879 0 0 1 208.38 25.786 Q 208.988 24.584 210.918 24.354 A 8.345 8.345 0 0 1 211.9 24.3 A 4.459 4.459 0 0 1 213.672 24.681 A 6.175 6.175 0 0 1 214.7 25.25 A 3.89 3.89 0 0 1 215.438 25.888 A 2.515 2.515 0 0 1 216.1 27.6 A 2.223 2.223 0 0 1 215.63 28.954 Q 215.396 29.267 215.046 29.559 A 4.923 4.923 0 0 1 214.8 29.75 A 5.956 5.956 0 0 1 213.898 30.301 Q 213.36 30.563 212.84 30.653 A 3.158 3.158 0 0 1 212.3 30.7 Z" vector-effect="non-scaling-stroke"/></g></svg>
